SplineFontDB: 3.2
FontName: IoniconsNF
FullName: IoniconsNF
FamilyName: IoniconsNF
Weight: Regular
Copyright: Copyright (c) 2020, kiera
UComments: "2020-6-16: Created with FontForge (http://fontforge.org)"
Version: 001.000
ItalicAngle: 0
UnderlinePosition: -100
UnderlineWidth: 50
Ascent: 800
Descent: 200
InvalidEm: 0
LayerCount: 2
Layer: 0 0 "Back" 1
Layer: 1 0 "Fore" 0
XUID: [1021 214 -1571244977 19959]
OS2Version: 0
OS2_WeightWidthSlopeOnly: 0
OS2_UseTypoMetrics: 1
CreationTime: 1592341315
ModificationTime: 1592347710
OS2TypoAscent: 0
OS2TypoAOffset: 1
OS2TypoDescent: 0
OS2TypoDOffset: 1
OS2TypoLinegap: 0
OS2WinAscent: 0
OS2WinAOffset: 1
OS2WinDescent: 0
OS2WinDOffset: 1
HheadAscent: 0
HheadAOffset: 1
HheadDescent: 0
HheadDOffset: 1
OS2Vendor: 'PfEd'
MarkAttachClasses: 1
DEI: 91125
Encoding: UnicodeBmp
UnicodeInterp: none
NameList: AGL For New Fonts
DisplaySize: -48
AntiAlias: 1
FitToEm: 0
WidthSeparation: 150
WinInfo: 62510 19 13
BeginPrivate: 0
EndPrivate
BeginChars: 65536 115

StartChar: uniF400
Encoding: 62464 62464 0
Width: 937
VWidth: 1704
Flags: HW
LayerCount: 2
Fore
SplineSet
830.900390625 850.80078125 m 0
 830.900390625 752.400390625 794.900390625 652.80078125 722.900390625 552 c 0
 655.701171875 460.798828125 617.298828125 406.798828125 607.69921875 390 c 0
 564.5 315.599609375 542.900390625 217.19921875 542.900390625 94.80078125 c 2
 542.900390625 91.19921875 l 1
 427.69921875 91.19921875 l 1
 427.69921875 552 l 1
 542.900390625 782.400390625 l 1
 485.30078125 782.400390625 l 1
 370.099609375 552 l 1
 370.099609375 91.19921875 l 1
 254.900390625 91.19921875 l 1
 254.900390625 552 l 1
 143.30078125 782.400390625 l 1
 82.099609375 782.400390625 l 1
 197.30078125 552 l 1
 197.30078125 91.19921875 l 1
 82.099609375 91.19921875 l 1
 82.099609375 94.80078125 l 2
 82.099609375 212.3984375 59.298828125 310.80078125 13.69921875 390 c 0
 -5.5 423.599609375 -42.69921875 477.599609375 -97.900390625 552 c 0
 -169.900390625 652.80078125 -205.900390625 752.400390625 -205.900390625 850.80078125 c 0
 -205.900390625 990 -154.900390625 1109.40039062 -52.900390625 1209 c 128
 49.099609375 1308.59960938 170.8984375 1358.40039062 312.5 1358.40039062 c 128
 454.1015625 1358.40039062 575.900390625 1308.59960938 677.900390625 1209 c 128
 779.900390625 1109.40039062 830.900390625 990 830.900390625 850.80078125 c 0
197.30078125 -254.400390625 m 1
 197.30078125 -196.80078125 l 1
 427.69921875 -196.80078125 l 1
 427.69921875 -254.400390625 l 1
 197.30078125 -254.400390625 l 1
139.69921875 -139.19921875 m 1
 139.69921875 -81.599609375 l 1
 485.30078125 -81.599609375 l 1
 485.30078125 -139.19921875 l 1
 139.69921875 -139.19921875 l 1
139.69921875 -24 m 1
 139.69921875 33.599609375 l 1
 485.30078125 33.599609375 l 1
 485.30078125 -24 l 1
 139.69921875 -24 l 1
EndSplineSet
EndChar

StartChar: uniF405
Encoding: 62469 62469 1
Width: 1600
VWidth: 1704
Flags: HW
LayerCount: 2
Fore
SplineSet
-388.099609375 1473.59960938 m 1
 245.5 1070.40039062 l 1
 245.5 -312 l 1
 -388.099609375 206.400390625 l 1
 -388.099609375 1473.59960938 l 1
1455.09960938 1473.59960938 m 1
 1455.09960938 206.400390625 l 1
 821.5 -312 l 1
 821.5 1070.40039062 l 1
 1455.09960938 1473.59960938 l 1
360.69921875 -369.599609375 m 1
 360.69921875 1012.80078125 l 1
 706.30078125 1012.80078125 l 1
 706.30078125 -369.599609375 l 1
 360.69921875 -369.599609375 l 1
1145.5 1452 m 2
 1282.30078125 1444.80078125 l 1
 706.30078125 1099.19921875 l 1
 533.5 1099.19921875 l 1
 360.69921875 1099.19921875 l 1
 -215.30078125 1444.80078125 l 1
 -164.900390625 1449.6015625 -119.30078125 1452 -78.5 1452 c 0
 55.900390625 1452 183.099609375 1420.80078125 303.099609375 1358.40039062 c 0
 358.30078125 1329.59960938 405.099609375 1302 443.5 1275.59960938 c 128
 481.8984375 1249.19921875 507.099609375 1230 519.099609375 1218 c 2
 533.5 1200 l 1
 562.30078125 1240.80078125 639.1015625 1293.59960938 763.900390625 1358.40039062 c 0
 883.900390625 1420.80078125 1011.09960938 1452 1145.5 1452 c 2
EndSplineSet
EndChar

StartChar: uniF409
Encoding: 62473 62473 2
Width: 1398
VWidth: 1704
Flags: HW
LayerCount: 2
Fore
SplineSet
437.19921875 -92.400390625 m 1
 437.19921875 292.80078125 l 1
 494.80078125 292.80078125 l 1
 494.80078125 -92.400390625 l 1
 692.80078125 102 l 1
 736 58.80078125 l 1
 466 -204 l 1
 199.599609375 58.80078125 l 1
 239.19921875 102 l 1
 437.19921875 -92.400390625 l 1
980.80078125 883.19921875 m 1
 1062.40039062 883.19921875 1131.40039062 854.400390625 1187.80078125 796.80078125 c 128
 1244.19921875 739.19921875 1272.40039062 669.599609375 1272.40039062 588 c 128
 1272.40039062 506.400390625 1243.59960938 436.80078125 1186 379.19921875 c 128
 1128.40039062 321.599609375 1058.79882812 292.80078125 977.19921875 292.80078125 c 2
 494.80078125 292.80078125 l 1
 494.80078125 778.80078125 l 1
 437.19921875 778.80078125 l 1
 437.19921875 292.80078125 l 1
 311.19921875 292.80078125 l 1
 235.599609375 292.80078125 l 1
 -16.400390625 292.80078125 l 2
 -105.19921875 292.80078125 -181.400390625 324 -245 386.400390625 c 128
 -308.599609375 448.80078125 -340.400390625 524.400390625 -340.400390625 613.19921875 c 0
 -340.400390625 682.80078125 -320 744.599609375 -279.19921875 798.599609375 c 128
 -238.400390625 852.599609375 -185.599609375 890.400390625 -120.80078125 912 c 1
 -111.201171875 962.400390625 -86.599609375 1005.59960938 -47 1041.59960938 c 128
 -7.400390625 1077.59960938 38.80078125 1095.59960938 91.599609375 1095.59960938 c 0
 125.201171875 1095.59960938 156.400390625 1088.40039062 185.19921875 1074 c 1
 218.80078125 1146 269.80078125 1203 338.19921875 1245 c 128
 406.599609375 1287 481.6015625 1308 563.19921875 1308 c 0
 678.400390625 1308 777.400390625 1267.80078125 860.19921875 1187.40039062 c 128
 943 1107 984.400390625 1009.19921875 984.400390625 894 c 0
 984.400390625 890.400390625 984.400390625 890.400390625 984.400390625 890.400390625 c 1
 980.80078125 883.19921875 l 1
EndSplineSet
EndChar

StartChar: uniF40A
Encoding: 62474 62474 3
Width: 1399
VWidth: 1704
Flags: HW
LayerCount: 2
Fore
SplineSet
437.69921875 -139.19921875 m 1
 437.69921875 206.400390625 l 1
 495.30078125 206.400390625 l 1
 495.30078125 -139.19921875 l 1
 437.69921875 -139.19921875 l 1
981.30078125 811.19921875 m 1
 1062.90039062 811.19921875 1131.90039062 781.19921875 1188.30078125 721.19921875 c 128
 1244.69921875 661.201171875 1272.90039062 589.201171875 1272.90039062 505.19921875 c 0
 1272.90039062 423.599609375 1244.09960938 353.400390625 1186.5 294.599609375 c 128
 1128.90039062 235.798828125 1059.29882812 206.400390625 977.69921875 206.400390625 c 2
 495.30078125 206.400390625 l 1
 495.30078125 732 l 1
 693.30078125 537.599609375 l 1
 736.5 577.19921875 l 1
 466.5 847.19921875 l 1
 200.099609375 577.19921875 l 1
 239.69921875 537.599609375 l 1
 437.69921875 732 l 1
 437.69921875 206.400390625 l 1
 311.69921875 206.400390625 l 1
 200.099609375 206.400390625 l 1
 -15.900390625 206.400390625 l 2
 -107.1015625 206.400390625 -183.900390625 237.599609375 -246.30078125 300 c 128
 -308.701171875 362.400390625 -339.900390625 439.19921875 -339.900390625 530.400390625 c 0
 -339.900390625 602.400390625 -319.5 666.599609375 -278.69921875 723 c 128
 -237.900390625 779.400390625 -185.099609375 818.400390625 -120.30078125 840 c 1
 -110.701171875 892.798828125 -86.099609375 937.19921875 -46.5 973.19921875 c 128
 -6.900390625 1009.19921875 39.30078125 1027.19921875 92.099609375 1027.19921875 c 0
 125.701171875 1027.19921875 156.900390625 1020 185.69921875 1005.59960938 c 1
 219.30078125 1077.59960938 270.30078125 1135.19921875 338.69921875 1178.40039062 c 128
 407.099609375 1221.59960938 482.1015625 1243.19921875 563.69921875 1243.19921875 c 0
 678.900390625 1243.19921875 777.900390625 1202.40039062 860.69921875 1120.80078125 c 128
 943.5 1039.20117188 984.900390625 940.80078125 984.900390625 825.599609375 c 2
 984.900390625 818.400390625 l 1
 981.30078125 811.19921875 l 1
EndSplineSet
EndChar

StartChar: uniF40D
Encoding: 62477 62477 4
Width: 999
VWidth: 1704
Flags: HW
LayerCount: 2
Fore
SplineSet
844.19921875 865.19921875 m 2
 849 850.80078125 851.400390625 838.798828125 851.400390625 829.19921875 c 2
 851.400390625 -52.80078125 l 2
 851.400390625 -76.798828125 843.6015625 -97.201171875 828 -114 c 128
 812.400390625 -130.798828125 793.80078125 -139.19921875 772.19921875 -139.19921875 c 2
 -102.599609375 -139.19921875 l 2
 -124.19921875 -139.19921875 -143.400390625 -130.798828125 -160.19921875 -114 c 128
 -177 -97.201171875 -185.400390625 -76.798828125 -185.400390625 -52.80078125 c 2
 -185.400390625 1156.80078125 l 2
 -185.400390625 1180.79882812 -177 1201.20117188 -160.19921875 1218 c 128
 -143.400390625 1234.79882812 -124.19921875 1243.19921875 -102.599609375 1243.19921875 c 2
 473.400390625 1243.19921875 l 2
 487.80078125 1243.19921875 498.599609375 1240.80078125 505.80078125 1236 c 0
 515.400390625 1231.19921875 523.80078125 1225.19921875 531 1218 c 2
 833.400390625 886.80078125 l 1
 844.19921875 865.19921875 l 2
-12.599609375 829.19921875 m 2
 -12.599609375 793.19921875 l 2
 -12.599609375 786 -9 782.400390625 -1.80078125 782.400390625 c 2
 253.80078125 782.400390625 l 2
 261 782.400390625 264.599609375 786 264.599609375 793.19921875 c 2
 264.599609375 829.19921875 l 2
 264.599609375 836.400390625 261 840 253.80078125 840 c 2
 -1.80078125 840 l 2
 -9 840 -12.599609375 836.400390625 -12.599609375 829.19921875 c 2
-12.599609375 368.400390625 m 2
 -12.599609375 332.400390625 l 2
 -12.599609375 325.19921875 -9 321.599609375 -1.80078125 321.599609375 c 2
 441 321.599609375 l 2
 445.80078125 321.599609375 448.19921875 325.19921875 448.19921875 332.400390625 c 2
 448.19921875 368.400390625 l 2
 448.19921875 375.599609375 445.80078125 379.19921875 441 379.19921875 c 2
 -1.80078125 379.19921875 l 2
 -9 379.19921875 -12.599609375 375.599609375 -12.599609375 368.400390625 c 2
563.400390625 102 m 2
 563.400390625 138 l 2
 563.400390625 145.19921875 561 148.80078125 556.19921875 148.80078125 c 2
 -1.80078125 148.80078125 l 2
 -9 148.80078125 -12.599609375 145.19921875 -12.599609375 138 c 2
 -12.599609375 102 l 2
 -12.599609375 94.80078125 -9 91.19921875 -1.80078125 91.19921875 c 2
 556.19921875 91.19921875 l 2
 561 91.19921875 563.400390625 94.80078125 563.400390625 102 c 2
678.599609375 562.80078125 m 2
 678.599609375 598.80078125 l 2
 678.599609375 606 676.201171875 609.599609375 671.400390625 609.599609375 c 2
 -1.80078125 609.599609375 l 2
 -9 609.599609375 -12.599609375 606 -12.599609375 598.80078125 c 2
 -12.599609375 562.80078125 l 2
 -12.599609375 555.599609375 -9 552 -1.80078125 552 c 2
 671.400390625 552 l 2
 676.201171875 552 678.599609375 555.599609375 678.599609375 562.80078125 c 2
509.400390625 832.80078125 m 2
 725.400390625 832.80078125 l 1
 469.80078125 1113.59960938 l 1
 469.80078125 876 l 2
 469.80078125 847.19921875 483 832.80078125 509.400390625 832.80078125 c 2
EndSplineSet
EndChar

StartChar: uniF40E
Encoding: 62478 62478 5
Width: 999
VWidth: 1704
Flags: HW
LayerCount: 2
Fore
SplineSet
847.80078125 865.19921875 m 0
 850.19921875 858 851.400390625 847.19921875 851.400390625 832.80078125 c 2
 851.400390625 -45.599609375 l 2
 851.400390625 -69.599609375 844.19921875 -91.19921875 829.80078125 -110.400390625 c 128
 815.400390625 -129.6015625 797.400390625 -139.19921875 775.80078125 -139.19921875 c 2
 -99 -139.19921875 l 2
 -120.599609375 -139.19921875 -140.400390625 -129.6015625 -158.400390625 -110.400390625 c 128
 -176.400390625 -91.19921875 -185.400390625 -69.599609375 -185.400390625 -45.599609375 c 2
 -185.400390625 1160.40039062 l 2
 -185.400390625 1182 -176.400390625 1201.20117188 -158.400390625 1218 c 128
 -140.400390625 1234.79882812 -120.599609375 1243.19921875 -99 1243.19921875 c 2
 477 1243.19921875 l 2
 491.400390625 1243.19921875 502.19921875 1240.80078125 509.400390625 1236 c 0
 523.80078125 1228.80078125 532.201171875 1224 534.599609375 1221.59960938 c 2
 833.400390625 890.400390625 l 2
 840.599609375 883.19921875 845.400390625 874.798828125 847.80078125 865.19921875 c 0
509.400390625 1074 m 1
 509.400390625 847.19921875 l 1
 718.19921875 847.19921875 l 1
 509.400390625 1074 l 1
-70.19921875 -24 m 1
 736.19921875 -24 l 1
 736.19921875 732 l 1
 495 732 l 2
 468.599609375 732 445.19921875 742.201171875 424.80078125 762.599609375 c 128
 404.400390625 783 394.19921875 806.400390625 394.19921875 832.80078125 c 2
 394.19921875 1128 l 1
 -70.19921875 1128 l 1
 -70.19921875 -24 l 1
EndSplineSet
EndChar

StartChar: uniF40F
Encoding: 62479 62479 6
Width: 1432
VWidth: 1704
Flags: HW
LayerCount: 2
Fore
SplineSet
880.69921875 667.19921875 m 128
 832.69921875 667.19921875 791.900390625 684 758.30078125 717.599609375 c 128
 724.69921875 751.201171875 707.900390625 792 707.900390625 840 c 128
 707.900390625 888 724.69921875 928.798828125 758.30078125 962.400390625 c 128
 791.900390625 996 832.69921875 1012.80078125 880.69921875 1012.80078125 c 128
 928.701171875 1012.80078125 969.5 996 1003.09960938 962.400390625 c 128
 1036.70117188 928.798828125 1053.5 888 1053.5 840 c 128
 1053.5 792 1036.70117188 751.201171875 1003.09960938 717.599609375 c 128
 969.5 684 928.701171875 667.19921875 880.69921875 667.19921875 c 128
1183.09960938 1243.19921875 m 2
 1211.90039062 1243.19921875 1235.90039062 1233.6015625 1255.09960938 1214.40039062 c 128
 1274.30078125 1195.19921875 1283.90039062 1171.19921875 1283.90039062 1142.40039062 c 2
 1283.90039062 -38.400390625 l 2
 1283.90039062 -67.19921875 1274.30078125 -91.19921875 1255.09960938 -110.400390625 c 128
 1235.90039062 -129.6015625 1211.90039062 -139.19921875 1183.09960938 -139.19921875 c 2
 -228.099609375 -139.19921875 l 2
 -256.900390625 -139.19921875 -280.900390625 -129.6015625 -300.099609375 -110.400390625 c 128
 -319.30078125 -91.19921875 -328.900390625 -67.19921875 -328.900390625 -38.400390625 c 2
 -328.900390625 1142.40039062 l 2
 -328.900390625 1171.19921875 -319.30078125 1195.19921875 -300.099609375 1214.40039062 c 128
 -280.900390625 1233.6015625 -256.900390625 1243.19921875 -228.099609375 1243.19921875 c 2
 1183.09960938 1243.19921875 l 2
812.30078125 530.400390625 m 2
 1168.69921875 148.80078125 l 1
 1168.69921875 1084.80078125 l 2
 1168.69921875 1113.59960938 1153.09960938 1128 1121.90039062 1128 c 2
 -166.900390625 1128 l 2
 -193.30078125 1128 -208.900390625 1113.59960938 -213.69921875 1084.80078125 c 2
 -213.69921875 148.80078125 l 1
 239.900390625 696 l 2
 259.099609375 715.201171875 279.5 724.80078125 301.099609375 724.80078125 c 0
 327.5 724.80078125 347.900390625 716.400390625 362.30078125 699.599609375 c 2
 556.69921875 487.19921875 l 1
 571.099609375 472.80078125 l 2
 585.5 463.201171875 598.69921875 458.400390625 610.69921875 458.400390625 c 128
 622.701171875 458.400390625 637.1015625 464.3984375 653.900390625 476.400390625 c 2
 718.69921875 534 l 2
 735.5 546 751.099609375 552 765.5 552 c 0
 784.701171875 552 800.298828125 544.80078125 812.30078125 530.400390625 c 2
EndSplineSet
EndChar

StartChar: uniF412
Encoding: 62482 62482 7
Width: 1380
VWidth: 1701
Flags: HW
LayerCount: 2
Fore
SplineSet
1234 533.387695312 m 1
 1255.59960938 511.788085938 1266.40039062 485.989257812 1266.40039062 455.987304688 c 128
 1266.40039062 425.987304688 1255.59960938 400.188476562 1234 378.588867188 c 2
 640 -222.612304688 l 2
 620.798828125 -241.813476562 596.201171875 -252.010742188 566.19921875 -253.211914062 c 128
 536.19921875 -254.413085938 510.400390625 -245.413085938 488.80078125 -226.211914062 c 2
 478 -215.411132812 l 1
 -263.599609375 536.987304688 l 1
 -285.19921875 554.987304688 l 2
 -304.400390625 578.987304688 -316.400390625 607.788085938 -321.19921875 641.387695312 c 2
 -321.19921875 648.588867188 l 1
 -346.400390625 1001.38769531 l 1
 -346.400390625 1015.78808594 l 2
 -346.400390625 1063.78808594 -330.798828125 1103.38769531 -299.599609375 1134.58886719 c 2
 -123.19921875 1310.98730469 l 2
 -94.400390625 1342.18652344 -57.19921875 1357.78808594 -11.599609375 1357.78808594 c 2
 2.80078125 1357.78808594 l 1
 362.80078125 1343.38769531 l 2
 406 1343.38769531 442 1328.98730469 470.80078125 1300.18847656 c 2
 478 1292.98730469 l 1
 1234 533.387695312 l 1
56.80078125 781.788085938 m 128
 104.80078125 781.788085938 145.599609375 798.586914062 179.19921875 832.188476562 c 128
 212.80078125 865.788085938 229.599609375 906.586914062 229.599609375 954.588867188 c 128
 229.599609375 1002.58886719 212.80078125 1043.38769531 179.19921875 1076.98730469 c 128
 145.599609375 1110.58886719 104.80078125 1127.38769531 56.80078125 1127.38769531 c 128
 8.798828125 1127.38769531 -32 1110.58886719 -65.599609375 1076.98730469 c 128
 -99.201171875 1043.38769531 -116 1002.58886719 -116 954.588867188 c 128
 -116 906.586914062 -99.201171875 865.788085938 -65.599609375 832.188476562 c 128
 -32 798.586914062 8.798828125 781.788085938 56.80078125 781.788085938 c 128
EndSplineSet
EndChar

StartChar: uniF413
Encoding: 62483 62483 8
Width: 1568
VWidth: 1703
Flags: HW
LayerCount: 2
Fore
SplineSet
1156.59960938 -81.599609375 m 1
 -398.599609375 -81.599609375 l 1
 -398.599609375 1185.59960938 l 1
 119.80078125 1185.59960938 l 1
 292.599609375 955.19921875 l 1
 1156.59960938 955.19921875 l 1
 1156.59960938 840 l 1
 -168.19921875 840 l 1
 -312.19921875 379.19921875 l 1
 -254.599609375 321.599609375 l 1
 -110.599609375 782.400390625 l 1
 1444.59960938 782.400390625 l 1
 1156.59960938 -81.599609375 l 1
EndSplineSet
EndChar

StartChar: uniF414
Encoding: 62484 62484 9
Width: 1568
VWidth: 1703
Flags: HW
LayerCount: 2
Fore
SplineSet
1156.59960938 -81.599609375 m 1
 -398.599609375 -81.599609375 l 1
 -398.599609375 1185.59960938 l 1
 119.80078125 1185.59960938 l 1
 292.599609375 955.19921875 l 1
 1156.59960938 955.19921875 l 1
 1156.59960938 840 l 1
 -168.19921875 840 l 1
 -312.19921875 379.19921875 l 1
 -254.599609375 321.599609375 l 1
 -110.599609375 782.400390625 l 1
 1444.59960938 782.400390625 l 1
 1156.59960938 -81.599609375 l 1
EndSplineSet
EndChar

StartChar: uniF415
Encoding: 62485 62485 10
Width: 1429
VWidth: 1704
Flags: HW
LayerCount: 2
Fore
SplineSet
836.5 156 m 1
 1112.5 72 1285.29882812 -103.19921875 1354.90039062 -369.599609375 c 1
 -401.900390625 -369.599609375 l 1
 -332.298828125 -103.19921875 -159.5 72 116.5 156 c 1
 226.8984375 93.599609375 346.900390625 62.400390625 476.5 62.400390625 c 128
 606.099609375 62.400390625 726.1015625 93.599609375 836.5 156 c 1
476.5 1473.59960938 m 128
 651.69921875 1473.59960938 801.099609375 1411.80078125 924.69921875 1288.19921875 c 128
 1048.30078125 1164.59960938 1110.09960938 1015.19921875 1110.09960938 840 c 128
 1110.09960938 664.80078125 1048.30078125 515.400390625 924.69921875 391.80078125 c 128
 801.099609375 268.19921875 651.69921875 206.400390625 476.5 206.400390625 c 128
 301.30078125 206.400390625 151.900390625 268.19921875 28.30078125 391.80078125 c 128
 -95.30078125 515.400390625 -157.099609375 664.80078125 -157.099609375 840 c 128
 -157.099609375 1015.19921875 -95.30078125 1164.59960938 28.30078125 1288.19921875 c 128
 151.900390625 1411.80078125 301.30078125 1473.59960938 476.5 1473.59960938 c 128
476.5 364.80078125 m 128
 574.900390625 364.80078125 664.900390625 393 746.5 449.400390625 c 128
 828.099609375 505.798828125 885.69921875 578.400390625 919.30078125 667.19921875 c 1
 33.69921875 667.19921875 l 1
 67.30078125 578.400390625 124.900390625 505.798828125 206.5 449.400390625 c 128
 288.099609375 393 378.099609375 364.80078125 476.5 364.80078125 c 128
EndSplineSet
EndChar

StartChar: uniF41B
Encoding: 62491 62491 11
Width: 1407
VWidth: 1704
Flags: HW
LayerCount: 2
Fore
SplineSet
469 1358.40039062 m 128
 692.19921875 1358.40039062 882.400390625 1279.79882812 1039.59960938 1122.59960938 c 128
 1196.79882812 965.400390625 1275.40039062 775.19921875 1275.40039062 552 c 128
 1275.40039062 328.80078125 1196.79882812 138.599609375 1039.59960938 -18.599609375 c 128
 882.400390625 -175.798828125 692.19921875 -254.400390625 469 -254.400390625 c 128
 245.80078125 -254.400390625 55.599609375 -175.798828125 -101.599609375 -18.599609375 c 128
 -258.798828125 138.599609375 -337.400390625 328.80078125 -337.400390625 552 c 128
 -337.400390625 775.19921875 -258.798828125 965.400390625 -101.599609375 1122.59960938 c 128
 55.599609375 1279.79882812 245.80078125 1358.40039062 469 1358.40039062 c 128
584.19921875 102 m 1
 584.19921875 667.19921875 l 1
 353.80078125 667.19921875 l 1
 353.80078125 102 l 1
 584.19921875 102 l 1
469 840 m 128
 507.400390625 840 541 854.400390625 569.80078125 883.19921875 c 128
 598.599609375 912 613 945.6015625 613 984 c 128
 613 1022.40039062 598.599609375 1056 569.80078125 1084.80078125 c 128
 541 1113.59960938 507.400390625 1128 469 1128 c 128
 430.599609375 1128 397 1113.59960938 368.19921875 1084.80078125 c 128
 339.400390625 1056 325 1022.40039062 325 984 c 128
 325 945.6015625 339.400390625 912 368.19921875 883.19921875 c 128
 397 854.400390625 430.599609375 840 469 840 c 128
EndSplineSet
EndChar

StartChar: uniF422
Encoding: 62498 62498 12
Width: 1197
VWidth: 1704
Flags: HW
LayerCount: 2
Fore
SplineSet
715.80078125 400.80078125 m 2
 701.400390625 375.599609375 l 1
 1090.19921875 -16.80078125 l 1
 967.80078125 -139.19921875 l 1
 579 253.19921875 l 1
 553.80078125 235.19921875 l 2
 457.80078125 175.201171875 358.19921875 145.19921875 255 145.19921875 c 0
 103.80078125 145.19921875 -25.201171875 199.19921875 -132 307.19921875 c 128
 -238.798828125 415.19921875 -292.19921875 544.80078125 -292.19921875 696 c 128
 -292.19921875 847.19921875 -238.798828125 976.201171875 -132 1083 c 128
 -25.201171875 1189.79882812 103.80078125 1243.19921875 255 1243.19921875 c 128
 406.19921875 1243.19921875 535.201171875 1189.79882812 642 1083 c 128
 748.798828125 976.201171875 802.19921875 847.19921875 802.19921875 696 c 0
 802.19921875 590.3984375 773.400390625 492 715.80078125 400.80078125 c 2
561 1002 m 0
 477 1086 375 1128 255 1128 c 128
 135 1128 33 1086 -51 1002 c 128
 -135 918 -177 816 -177 696 c 128
 -177 576 -135 474 -51 390 c 128
 33 306 135 264 255 264 c 128
 375 264 477 306 561 390 c 0
 647.400390625 476.400390625 690.599609375 578.400390625 690.599609375 696 c 128
 690.599609375 813.599609375 647.400390625 915.599609375 561 1002 c 0
EndSplineSet
EndChar

StartChar: uniF41E
Encoding: 62494 62494 13
Width: 1347
VWidth: 1704
Flags: HW
LayerCount: 2
Fore
SplineSet
1255.40039062 728.400390625 m 1
 751.400390625 375.599609375 l 1
 945.80078125 -196.80078125 l 1
 449 159.599609375 l 1
 -47.80078125 -196.80078125 l 1
 146.599609375 375.599609375 l 1
 -357.400390625 728.400390625 l 1
 258.19921875 728.400390625 l 1
 449 1300.80078125 l 1
 639.80078125 728.400390625 l 1
 1255.40039062 728.400390625 l 1
EndSplineSet
EndChar

StartChar: uniF41F
Encoding: 62495 62495 14
Width: 1231
VWidth: 1704
Flags: HW
LayerCount: 2
Fore
SplineSet
410.5 1128 m 128
 600.099609375 1128 762.701171875 1074 898.30078125 966 c 128
 1033.90039062 858 1101.69921875 727.19921875 1101.69921875 573.599609375 c 0
 1101.69921875 422.400390625 1035.09960938 294.599609375 901.900390625 190.19921875 c 128
 768.69921875 85.80078125 606.1015625 33.599609375 414.099609375 33.599609375 c 0
 310.900390625 33.599609375 220.900390625 46.798828125 144.099609375 73.19921875 c 1
 136.900390625 73.19921875 l 2
 122.5 78 110.5 80.400390625 100.900390625 80.400390625 c 0
 86.5 80.400390625 72.099609375 78 57.69921875 73.19921875 c 1
 61.30078125 73.19921875 l 1
 57.69921875 73.19921875 l 2
 55.30078125 73.19921875 48.099609375 70.80078125 36.099609375 66 c 2
 21.69921875 58.80078125 l 1
 -158.30078125 -20.400390625 l 1
 -165.5 -24 l 1
 -176.30078125 -24 l 1
 -187.099609375 -24 l 2
 -208.69921875 -19.19921875 -217.1015625 -7.201171875 -212.30078125 12 c 0
 -171.5 148.80078125 -151.099609375 218.400390625 -151.099609375 220.80078125 c 0
 -151.099609375 235.19921875 -154.69921875 248.3984375 -161.900390625 260.400390625 c 1
 -158.30078125 256.80078125 l 1
 -172.69921875 271.19921875 l 1
 -244.69921875 362.400390625 -280.69921875 463.201171875 -280.69921875 573.599609375 c 0
 -280.69921875 727.19921875 -212.900390625 858 -77.30078125 966 c 128
 58.298828125 1074 220.900390625 1128 410.5 1128 c 128
EndSplineSet
EndChar

StartChar: uniF420
Encoding: 62496 62496 15
Width: 1321
VWidth: 1704
Flags: HW
LayerCount: 2
Fore
SplineSet
440.5 1300.80078125 m 128
 646.900390625 1300.80078125 823.30078125 1227.59960938 969.69921875 1081.19921875 c 128
 1116.09960938 934.80078125 1189.30078125 758.400390625 1189.30078125 552 c 128
 1189.30078125 345.599609375 1116.09960938 169.19921875 969.69921875 22.80078125 c 128
 823.30078125 -123.599609375 646.900390625 -196.80078125 440.5 -196.80078125 c 128
 234.099609375 -196.80078125 57.69921875 -123.599609375 -88.69921875 22.80078125 c 128
 -235.099609375 169.19921875 -308.30078125 345.599609375 -308.30078125 552 c 128
 -308.30078125 758.400390625 -235.099609375 934.80078125 -88.69921875 1081.19921875 c 128
 57.69921875 1227.59960938 234.099609375 1300.80078125 440.5 1300.80078125 c 128
454.900390625 156 m 128
 471.69921875 156 486.099609375 162 498.099609375 174 c 128
 510.1015625 186 516.099609375 200.400390625 516.099609375 217.19921875 c 128
 516.099609375 234 510.1015625 248.3984375 498.099609375 260.400390625 c 128
 486.099609375 272.400390625 471.69921875 278.400390625 454.900390625 278.400390625 c 128
 438.1015625 278.400390625 423.701171875 272.400390625 411.69921875 260.400390625 c 128
 399.69921875 248.3984375 393.69921875 234 393.69921875 217.19921875 c 128
 393.69921875 200.400390625 399.69921875 186 411.69921875 174 c 128
 423.701171875 162 438.1015625 156 454.900390625 156 c 128
577.30078125 570 m 0
 639.701171875 627.599609375 670.900390625 688.80078125 670.900390625 753.599609375 c 0
 670.900390625 813.599609375 650.5 861 609.69921875 895.80078125 c 128
 568.900390625 930.599609375 517.30078125 948 454.900390625 948 c 0
 291.69921875 948 210.099609375 873.6015625 210.099609375 724.80078125 c 1
 278.5 724.80078125 l 1
 276.099609375 777.599609375 289.8984375 818.400390625 319.900390625 847.19921875 c 128
 349.900390625 876 393.69921875 890.400390625 451.30078125 890.400390625 c 0
 494.5 890.400390625 530.5 877.80078125 559.30078125 852.599609375 c 128
 588.099609375 827.400390625 602.5 793.19921875 602.5 750 c 0
 602.5 697.201171875 579.69921875 650.400390625 534.099609375 609.599609375 c 0
 464.5 547.19921875 428.5 470.400390625 426.099609375 379.19921875 c 1
 494.5 379.19921875 l 1
 496.900390625 410.3984375 498.099609375 430.19921875 498.099609375 438.599609375 c 128
 498.099609375 447 500.5 460.19921875 505.30078125 478.19921875 c 128
 510.1015625 496.19921875 517.900390625 511.19921875 528.69921875 523.19921875 c 128
 539.5 535.201171875 555.69921875 550.798828125 577.30078125 570 c 0
EndSplineSet
EndChar

StartChar: uniF421
Encoding: 62497 62497 16
Width: 1345
VWidth: 1704
Flags: HW
LayerCount: 2
Fore
SplineSet
1244.09960938 -45.599609375 m 2
 1258.5 -72 1260.90039062 -93.6015625 1251.30078125 -110.400390625 c 0
 1239.29882812 -129.6015625 1222.5 -139.19921875 1200.90039062 -139.19921875 c 2
 -303.900390625 -139.19921875 l 2
 -325.5 -139.19921875 -342.298828125 -129.6015625 -354.30078125 -110.400390625 c 0
 -363.900390625 -93.6015625 -361.5 -72 -347.099609375 -45.599609375 c 2
 398.099609375 1210.80078125 l 2
 410.099609375 1232.40039062 426.900390625 1243.19921875 448.5 1243.19921875 c 128
 470.099609375 1243.19921875 486.900390625 1232.40039062 498.900390625 1210.80078125 c 2
 1244.09960938 -45.599609375 l 2
563.69921875 33.599609375 m 1
 563.69921875 206.400390625 l 1
 333.30078125 206.400390625 l 1
 333.30078125 33.599609375 l 1
 563.69921875 33.599609375 l 1
563.69921875 321.599609375 m 1
 563.69921875 840 l 1
 333.30078125 840 l 1
 333.30078125 321.599609375 l 1
 563.69921875 321.599609375 l 1
EndSplineSet
EndChar

StartChar: uniF423
Encoding: 62499 62499 17
Width: 1198
VWidth: 1704
Flags: HW
LayerCount: 2
Fore
SplineSet
957.5 552 m 128
 957.5 470.400390625 1001.90039062 403.19921875 1090.69921875 350.400390625 c 1
 1078.69921875 312 1059.5 266.3984375 1033.09960938 213.599609375 c 1
 951.5 232.80078125 877.099609375 208.798828125 809.900390625 141.599609375 c 0
 749.900390625 81.599609375 730.69921875 7.19921875 752.30078125 -81.599609375 c 1
 699.5 -108 653.900390625 -127.19921875 615.5 -139.19921875 c 1
 562.701171875 -50.400390625 490.701171875 -6 399.5 -6 c 128
 308.298828125 -6 236.298828125 -50.400390625 183.5 -139.19921875 c 1
 140.30078125 -124.80078125 93.5 -105.599609375 43.099609375 -81.599609375 c 1
 64.69921875 9.599609375 46.69921875 84 -10.900390625 141.599609375 c 128
 -68.5 199.19921875 -142.900390625 217.19921875 -234.099609375 195.599609375 c 1
 -258.099609375 246 -277.30078125 292.80078125 -291.69921875 336 c 1
 -202.900390625 388.798828125 -158.5 460.798828125 -158.5 552 c 0
 -158.5 633.599609375 -202.900390625 700.80078125 -291.69921875 753.599609375 c 1
 -274.900390625 806.400390625 -255.69921875 852 -234.099609375 890.400390625 c 1
 -152.5 871.19921875 -78.099609375 895.201171875 -10.900390625 962.400390625 c 0
 46.69921875 1020 64.69921875 1094.40039062 43.099609375 1185.59960938 c 1
 93.5 1209.59960938 140.30078125 1228.80078125 183.5 1243.19921875 c 1
 236.298828125 1154.40039062 308.298828125 1110 399.5 1110 c 128
 490.701171875 1110 562.701171875 1154.40039062 615.5 1243.19921875 c 1
 658.69921875 1228.80078125 705.5 1209.59960938 755.900390625 1185.59960938 c 1
 734.30078125 1094.40039062 752.30078125 1020 809.900390625 962.400390625 c 0
 877.099609375 895.201171875 951.5 871.19921875 1033.09960938 890.400390625 c 1
 1059.5 837.6015625 1078.69921875 792 1090.69921875 753.599609375 c 1
 1001.90039062 700.80078125 957.5 633.599609375 957.5 552 c 128
399.5 199.19921875 m 128
 495.5 199.19921875 578.298828125 234 647.900390625 303.599609375 c 128
 717.5 373.201171875 752.30078125 456 752.30078125 552 c 128
 752.30078125 648 717.5 730.798828125 647.900390625 800.400390625 c 128
 578.298828125 870 495.5 904.80078125 399.5 904.80078125 c 128
 303.5 904.80078125 220.701171875 870 151.099609375 800.400390625 c 128
 81.5 730.798828125 46.69921875 648 46.69921875 552 c 128
 46.69921875 456 81.5 373.201171875 151.099609375 303.599609375 c 128
 220.701171875 234 303.5 199.19921875 399.5 199.19921875 c 128
EndSplineSet
EndChar

StartChar: uniF424
Encoding: 62500 62500 18
Width: 1215
VWidth: 1704
Flags: HW
LayerCount: 2
Fore
SplineSet
-84.599609375 264 m 128
 -29.400390625 264 18 244.19921875 57.599609375 204.599609375 c 128
 97.19921875 165 117 117.599609375 117 62.400390625 c 128
 117 7.19921875 97.19921875 -40.19921875 57.599609375 -79.80078125 c 128
 18 -119.400390625 -29.400390625 -139.19921875 -84.599609375 -139.19921875 c 128
 -139.80078125 -139.19921875 -187.19921875 -119.400390625 -226.80078125 -79.80078125 c 128
 -266.400390625 -40.19921875 -286.19921875 7.19921875 -286.19921875 62.400390625 c 128
 -286.19921875 117.599609375 -266.400390625 165 -226.80078125 204.599609375 c 128
 -187.19921875 244.19921875 -139.80078125 264 -84.599609375 264 c 128
-286.19921875 782.400390625 m 1
 -34.19921875 782.400390625 182.3984375 691.80078125 363.599609375 510.599609375 c 128
 544.80078125 329.3984375 635.400390625 112.80078125 635.400390625 -139.19921875 c 1
 347.400390625 -139.19921875 l 1
 347.400390625 52.80078125 289.80078125 206.400390625 174.599609375 321.599609375 c 128
 59.400390625 436.80078125 -94.19921875 494.400390625 -286.19921875 494.400390625 c 1
 -286.19921875 782.400390625 l 1
-286.19921875 1243.19921875 m 1
 95.400390625 1243.19921875 421.19921875 1108.19921875 691.19921875 838.19921875 c 128
 961.19921875 568.19921875 1096.19921875 242.400390625 1096.19921875 -139.19921875 c 1
 808.19921875 -139.19921875 l 1
 808.19921875 168 702.599609375 427.201171875 491.400390625 638.400390625 c 128
 280.201171875 849.599609375 21 955.19921875 -286.19921875 955.19921875 c 1
 -286.19921875 1243.19921875 l 1
EndSplineSet
EndChar

StartChar: uniF425
Encoding: 62501 62501 19
Width: 1292
VWidth: 1701
Flags: HW
LayerCount: 2
Fore
SplineSet
1127.93359375 976.17578125 m 1
 1166.33398438 952.17578125 1183.1328125 908.9765625 1178.33398438 846.576171875 c 0
 1173.53320312 772.17578125 1143.53320312 707.375 1088.33398438 652.17578125 c 0
 1085.93359375 652.17578125 1084.734375 650.9765625 1084.734375 648.576171875 c 2
 1077.53320312 644.974609375 l 1
 983.93359375 556.17578125 871.1328125 532.17578125 739.134765625 572.974609375 c 0
 734.333984375 577.775390625 729.533203125 580.17578125 724.734375 580.17578125 c 0
 703.134765625 584.9765625 687.533203125 580.17578125 677.93359375 565.775390625 c 2
 548.333984375 425.375 l 1
 933.533203125 79.775390625 l 2
 943.1328125 72.576171875 943.1328125 64.17578125 933.533203125 54.576171875 c 2
 753.533203125 -129.025390625 l 2
 743.93359375 -136.224609375 735.533203125 -136.224609375 728.333984375 -129.025390625 c 0
 622.734375 2.9765625 511.1328125 131.375 393.533203125 256.17578125 c 1
 62.333984375 -96.625 l 2
 35.93359375 -125.423828125 2.93359375 -139.22265625 -36.666015625 -138.025390625 c 128
 -76.265625 -136.82421875 -109.267578125 -123.0234375 -135.666015625 -96.625 c 0
 -162.06640625 -67.82421875 -175.265625 -33.0234375 -175.265625 7.775390625 c 128
 -175.265625 48.576171875 -160.865234375 80.9765625 -132.06640625 104.974609375 c 2
 217.134765625 439.775390625 l 1
 173.93359375 482.974609375 l 2
 161.93359375 494.9765625 160.732421875 506.9765625 170.333984375 518.974609375 c 2
 177.533203125 536.974609375 l 1
 131.93359375 584.9765625 95.93359375 616.77734375 69.533203125 632.375 c 128
 43.1328125 647.9765625 11.93359375 654.576171875 -24.06640625 652.17578125 c 0
 -88.865234375 649.775390625 -146.466796875 616.17578125 -196.865234375 551.375 c 0
 -235.267578125 503.376953125 -244.8671875 428.974609375 -225.666015625 328.17578125 c 0
 -223.265625 313.775390625 -225.666015625 306.576171875 -232.865234375 306.576171875 c 0
 -244.8671875 306.576171875 -256.8671875 313.775390625 -268.865234375 328.17578125 c 0
 -290.466796875 352.17578125 -305.466796875 392.974609375 -313.865234375 450.576171875 c 128
 -322.265625 508.17578125 -314.466796875 578.9765625 -290.466796875 662.974609375 c 0
 -247.265625 770.974609375 -189.666015625 860.974609375 -117.666015625 932.974609375 c 0
 -88.865234375 961.775390625 -60.06640625 986.974609375 -31.265625 1008.57617188 c 0
 -21.666015625 1015.77539062 -4.8671875 1018.77539062 19.134765625 1017.57617188 c 128
 43.1328125 1016.37695312 58.734375 1019.375 65.93359375 1026.57617188 c 0
 77.93359375 1038.57617188 83.93359375 1057.77734375 83.93359375 1084.17578125 c 1
 69.533203125 1098.57617188 l 2
 59.93359375 1108.17578125 59.93359375 1116.57617188 69.533203125 1123.77539062 c 2
 181.134765625 1235.375 l 2
 188.333984375 1244.9765625 196.732421875 1244.9765625 206.333984375 1235.375 c 2
 386.333984375 1055.375 l 2
 395.93359375 1045.77539062 395.93359375 1036.17578125 386.333984375 1026.57617188 c 2
 274.734375 914.974609375 l 2
 267.533203125 907.775390625 259.1328125 907.775390625 249.533203125 914.974609375 c 2
 220.734375 947.375 l 1
 189.533203125 947.375 169.1328125 935.376953125 159.533203125 911.375 c 0
 142.732421875 875.375 139.1328125 835.775390625 148.734375 792.576171875 c 0
 155.93359375 768.576171875 199.134765625 716.974609375 278.333984375 637.775390625 c 1
 296.333984375 648.576171875 l 2
 310.734375 655.775390625 322.732421875 654.576171875 332.333984375 644.974609375 c 0
 334.734375 640.17578125 350.333984375 623.375 379.134765625 594.576171875 c 1
 515.93359375 727.775390625 l 2
 527.93359375 737.376953125 532.734375 752.974609375 530.333984375 774.576171875 c 0
 530.333984375 784.17578125 529.1328125 790.17578125 526.734375 792.576171875 c 0
 485.93359375 929.375 508.734375 1044.57617188 595.134765625 1138.17578125 c 2
 602.333984375 1145.375 l 2
 659.93359375 1202.97460938 723.533203125 1234.17578125 793.134765625 1238.97460938 c 0
 812.33203125 1241.37695312 836.333984375 1237.17578125 865.134765625 1226.375 c 128
 893.93359375 1215.57617188 911.93359375 1201.77734375 919.134765625 1184.97460938 c 1
 746.333984375 1012.17578125 l 1
 739.134765625 1001.375 l 1
 735.533203125 997.775390625 l 2
 733.1328125 995.375 731.93359375 990.576171875 731.93359375 983.375 c 128
 731.93359375 976.17578125 733.1328125 970.17578125 735.533203125 965.375 c 2
 742.734375 958.17578125 l 1
 749.93359375 950.974609375 l 1
 897.533203125 799.775390625 l 1
 908.333984375 788.974609375 l 1
 911.93359375 785.375 l 2
 914.333984375 782.9765625 919.134765625 781.775390625 926.333984375 781.775390625 c 128
 933.533203125 781.775390625 938.33203125 782.9765625 940.734375 785.375 c 2
 947.93359375 788.974609375 l 1
 955.134765625 799.775390625 l 1
 1127.93359375 976.17578125 l 1
EndSplineSet
EndChar

StartChar: uniF428
Encoding: 62504 62504 20
Width: 1215
VWidth: 1704
Flags: HW
LayerCount: 2
Fore
SplineSet
-84.599609375 264 m 128
 -29.400390625 264 18 244.19921875 57.599609375 204.599609375 c 128
 97.19921875 165 117 117.599609375 117 62.400390625 c 128
 117 7.19921875 97.19921875 -40.19921875 57.599609375 -79.80078125 c 128
 18 -119.400390625 -29.400390625 -139.19921875 -84.599609375 -139.19921875 c 128
 -139.80078125 -139.19921875 -187.19921875 -119.400390625 -226.80078125 -79.80078125 c 128
 -266.400390625 -40.19921875 -286.19921875 7.19921875 -286.19921875 62.400390625 c 128
 -286.19921875 117.599609375 -266.400390625 165 -226.80078125 204.599609375 c 128
 -187.19921875 244.19921875 -139.80078125 264 -84.599609375 264 c 128
-286.19921875 782.400390625 m 1
 -34.19921875 782.400390625 182.3984375 691.80078125 363.599609375 510.599609375 c 128
 544.80078125 329.3984375 635.400390625 112.80078125 635.400390625 -139.19921875 c 1
 347.400390625 -139.19921875 l 1
 347.400390625 52.80078125 289.80078125 206.400390625 174.599609375 321.599609375 c 128
 59.400390625 436.80078125 -94.19921875 494.400390625 -286.19921875 494.400390625 c 1
 -286.19921875 782.400390625 l 1
-286.19921875 1243.19921875 m 1
 95.400390625 1243.19921875 421.19921875 1108.19921875 691.19921875 838.19921875 c 128
 961.19921875 568.19921875 1096.19921875 242.400390625 1096.19921875 -139.19921875 c 1
 808.19921875 -139.19921875 l 1
 808.19921875 168 702.599609375 427.201171875 491.400390625 638.400390625 c 128
 280.201171875 849.599609375 21 955.19921875 -286.19921875 955.19921875 c 1
 -286.19921875 1243.19921875 l 1
EndSplineSet
EndChar

StartChar: uniF429
Encoding: 62505 62505 21
Width: 1432
VWidth: 1704
Flags: HW
LayerCount: 2
Fore
SplineSet
-98.5 1012.80078125 m 1
 1283.90039062 1012.80078125 l 1
 1283.90039062 -139.19921875 l 1
 -98.5 -139.19921875 l 1
 -98.5 1012.80078125 l 1
1053.5 1243.19921875 m 1
 1053.5 1070.40039062 l 1
 -156.099609375 1070.40039062 l 1
 -156.099609375 91.19921875 l 1
 -328.900390625 91.19921875 l 1
 -328.900390625 1243.19921875 l 1
 1053.5 1243.19921875 l 1
EndSplineSet
EndChar

StartChar: uniF42A
Encoding: 62506 62506 22
Width: 1233
VWidth: 1704
Flags: HW
LayerCount: 2
Fore
SplineSet
295.80078125 436.80078125 m 1
 295.80078125 609.599609375 l 1
 -251.400390625 609.599609375 l 2
 -270.6015625 609.599609375 -280.19921875 619.19921875 -280.19921875 638.400390625 c 2
 -280.19921875 696 l 2
 -280.19921875 715.201171875 -270.6015625 724.80078125 -251.400390625 724.80078125 c 2
 295.80078125 724.80078125 l 1
 295.80078125 897.599609375 l 1
 526.19921875 667.19921875 l 1
 295.80078125 436.80078125 l 1
1073.40039062 1243.19921875 m 2
 1092.6015625 1243.19921875 1102.19921875 1233.6015625 1102.19921875 1214.40039062 c 2
 1102.19921875 127.19921875 l 2
 1102.19921875 103.201171875 1091.40039062 85.201171875 1069.80078125 73.19921875 c 2
 641.400390625 -139.19921875 l 1
 641.400390625 91.19921875 l 1
 94.19921875 91.19921875 l 2
 75 91.19921875 65.400390625 100.798828125 65.400390625 120 c 2
 65.400390625 494.400390625 l 1
 180.599609375 494.400390625 l 1
 180.599609375 206.400390625 l 1
 641.400390625 206.400390625 l 1
 641.400390625 1012.80078125 l 1
 814.19921875 1128 l 1
 180.599609375 1128 l 1
 180.599609375 840 l 1
 65.400390625 840 l 1
 65.400390625 1214.40039062 l 2
 65.400390625 1233.6015625 75 1243.19921875 94.19921875 1243.19921875 c 2
 1073.40039062 1243.19921875 l 2
EndSplineSet
EndChar

StartChar: uniF42C
Encoding: 62508 62508 23
Width: 742
VWidth: 1704
Flags: HW
LayerCount: 2
Fore
SplineSet
506.69921875 1243.19921875 m 2
 530.69921875 1243.19921875 551.1015625 1234.79882812 567.900390625 1218 c 128
 584.69921875 1201.20117188 593.099609375 1180.79882812 593.099609375 1156.80078125 c 2
 593.099609375 -52.80078125 l 2
 593.099609375 -76.798828125 584.69921875 -97.201171875 567.900390625 -114 c 128
 551.1015625 -130.798828125 530.69921875 -139.19921875 506.69921875 -139.19921875 c 2
 -11.69921875 -139.19921875 l 2
 -35.69921875 -139.19921875 -56.1015625 -130.798828125 -72.900390625 -114 c 128
 -89.69921875 -97.201171875 -98.099609375 -76.798828125 -98.099609375 -52.80078125 c 2
 -98.099609375 1156.80078125 l 2
 -98.099609375 1180.79882812 -89.69921875 1201.20117188 -72.900390625 1218 c 128
 -56.1015625 1234.79882812 -35.69921875 1243.19921875 -11.69921875 1243.19921875 c 2
 506.69921875 1243.19921875 l 2
189.900390625 1113.59960938 m 128
 189.900390625 1104 194.701171875 1099.19921875 204.30078125 1099.19921875 c 2
 290.69921875 1099.19921875 l 2
 300.298828125 1099.19921875 305.099609375 1104 305.099609375 1113.59960938 c 128
 305.099609375 1123.19921875 300.298828125 1128 290.69921875 1128 c 2
 204.30078125 1128 l 2
 194.701171875 1128 189.900390625 1123.19921875 189.900390625 1113.59960938 c 128
146.69921875 1128 m 128
 137.099609375 1128 132.30078125 1123.19921875 132.30078125 1113.59960938 c 128
 132.30078125 1104 137.099609375 1099.19921875 146.69921875 1099.19921875 c 128
 156.298828125 1099.19921875 161.099609375 1104 161.099609375 1113.59960938 c 128
 161.099609375 1123.19921875 156.298828125 1128 146.69921875 1128 c 128
247.5 -81.599609375 m 128
 285.900390625 -81.599609375 305.099609375 -62.400390625 305.099609375 -24 c 128
 305.099609375 14.3984375 285.900390625 33.599609375 247.5 33.599609375 c 128
 209.099609375 33.599609375 189.900390625 14.3984375 189.900390625 -24 c 128
 189.900390625 -62.400390625 209.099609375 -81.599609375 247.5 -81.599609375 c 128
535.5 91.19921875 m 1
 535.5 1012.80078125 l 1
 -40.5 1012.80078125 l 1
 -40.5 91.19921875 l 1
 535.5 91.19921875 l 1
EndSplineSet
EndChar

StartChar: uniF42B
Encoding: 62507 62507 24
Width: 1513
VWidth: 1704
Flags: HW
LayerCount: 2
Fore
SplineSet
436.099609375 166.80078125 m 1
 628.1015625 109.19921875 746.900390625 -12 792.5 -196.80078125 c 1
 -417.099609375 -196.80078125 l 1
 -369.099609375 -9.599609375 -250.298828125 111.599609375 -60.69921875 166.80078125 c 1
 16.099609375 121.201171875 98.900390625 98.400390625 187.69921875 98.400390625 c 128
 276.5 98.400390625 359.298828125 121.201171875 436.099609375 166.80078125 c 1
187.69921875 1070.40039062 m 128
 307.701171875 1070.40039062 410.30078125 1027.79882812 495.5 942.599609375 c 128
 580.69921875 857.400390625 623.30078125 754.80078125 623.30078125 634.80078125 c 128
 623.30078125 514.798828125 580.69921875 412.19921875 495.5 327 c 128
 410.30078125 241.80078125 307.701171875 199.19921875 187.69921875 199.19921875 c 128
 67.69921875 199.19921875 -34.900390625 241.80078125 -120.099609375 327 c 128
 -205.298828125 412.19921875 -247.900390625 514.798828125 -247.900390625 634.80078125 c 128
 -247.900390625 754.80078125 -205.298828125 857.400390625 -120.099609375 942.599609375 c 128
 -34.900390625 1027.79882812 67.69921875 1070.40039062 187.69921875 1070.40039062 c 128
187.69921875 303.599609375 m 128
 254.8984375 303.599609375 316.099609375 323.400390625 371.30078125 363 c 128
 426.5 402.599609375 466.099609375 452.400390625 490.099609375 512.400390625 c 1
 -118.30078125 512.400390625 l 1
 -94.30078125 452.400390625 -54.099609375 402.599609375 2.30078125 363 c 128
 58.69921875 323.400390625 120.5 303.599609375 187.69921875 303.599609375 c 128
778.099609375 33.599609375 m 1
 720.5 120 638.900390625 184.80078125 533.30078125 228 c 1
 583.69921875 271.19921875 622.099609375 315.599609375 648.5 361.19921875 c 1
 701.298828125 339.599609375 758.900390625 328.80078125 821.30078125 328.80078125 c 0
 910.099609375 328.80078125 992.900390625 351.599609375 1069.69921875 397.19921875 c 1
 1261.70117188 339.599609375 1380.5 218.400390625 1426.09960938 33.599609375 c 1
 778.099609375 33.599609375 l 1
713.30078125 742.80078125 m 1
 679.69921875 898.80078125 593.298828125 1017.6015625 454.099609375 1099.19921875 c 1
 540.5 1233.6015625 662.900390625 1300.80078125 821.30078125 1300.80078125 c 0
 941.30078125 1300.80078125 1043.90039062 1258.19921875 1129.09960938 1173 c 128
 1214.29882812 1087.80078125 1256.90039062 985.201171875 1256.90039062 865.19921875 c 128
 1256.90039062 745.19921875 1214.29882812 642.599609375 1129.09960938 557.400390625 c 128
 1043.90039062 472.201171875 941.30078125 429.599609375 821.30078125 429.599609375 c 0
 775.701171875 429.599609375 731.30078125 436.80078125 688.099609375 451.19921875 c 1
 702.5 494.400390625 712.099609375 528 716.900390625 552 c 1
 752.900390625 540 787.69921875 534 821.30078125 534 c 0
 888.5 534 949.69921875 553.80078125 1004.90039062 593.400390625 c 128
 1060.1015625 633 1099.70117188 682.80078125 1123.69921875 742.80078125 c 1
 713.30078125 742.80078125 l 1
EndSplineSet
EndChar

StartChar: uniF426
Encoding: 62502 62502 25
Width: 1219
VWidth: 1704
Flags: HW
LayerCount: 2
Fore
SplineSet
867.30078125 897.599609375 m 1
 1097.69921875 667.19921875 l 1
 867.30078125 436.80078125 l 1
 867.30078125 609.599609375 l 1
 320.099609375 609.599609375 l 2
 300.8984375 609.599609375 291.30078125 619.19921875 291.30078125 638.400390625 c 2
 291.30078125 696 l 2
 291.30078125 715.201171875 300.8984375 724.80078125 320.099609375 724.80078125 c 2
 867.30078125 724.80078125 l 1
 867.30078125 897.599609375 l 1
752.099609375 840 m 1
 636.900390625 840 l 1
 636.900390625 1128 l 1
 3.30078125 1128 l 1
 176.099609375 1012.80078125 l 1
 176.099609375 206.400390625 l 1
 636.900390625 206.400390625 l 1
 636.900390625 494.400390625 l 1
 752.099609375 494.400390625 l 1
 752.099609375 120 l 2
 752.099609375 100.798828125 742.5 91.19921875 723.30078125 91.19921875 c 2
 176.099609375 91.19921875 l 1
 176.099609375 -139.19921875 l 1
 -252.30078125 73.19921875 l 2
 -273.900390625 85.201171875 -284.69921875 103.201171875 -284.69921875 127.19921875 c 2
 -284.69921875 1214.40039062 l 2
 -284.69921875 1233.6015625 -275.1015625 1243.19921875 -255.900390625 1243.19921875 c 2
 723.30078125 1243.19921875 l 2
 742.5 1243.19921875 752.099609375 1233.6015625 752.099609375 1214.40039062 c 2
 752.099609375 840 l 1
EndSplineSet
EndChar

StartChar: uniF449
Encoding: 62537 62537 26
Width: 1321
VWidth: 1704
Flags: HW
LayerCount: 2
Fore
SplineSet
440.5 1300.80078125 m 128
 646.900390625 1300.80078125 823.30078125 1227.59960938 969.69921875 1081.19921875 c 128
 1116.09960938 934.80078125 1189.30078125 758.400390625 1189.30078125 552 c 128
 1189.30078125 345.599609375 1116.09960938 169.19921875 969.69921875 22.80078125 c 128
 823.30078125 -123.599609375 646.900390625 -196.80078125 440.5 -196.80078125 c 128
 234.099609375 -196.80078125 57.69921875 -123.599609375 -88.69921875 22.80078125 c 128
 -235.099609375 169.19921875 -308.30078125 345.599609375 -308.30078125 552 c 128
 -308.30078125 758.400390625 -235.099609375 934.80078125 -88.69921875 1081.19921875 c 128
 57.69921875 1227.59960938 234.099609375 1300.80078125 440.5 1300.80078125 c 128
426.099609375 926.400390625 m 128
 406.900390625 926.400390625 390.099609375 919.19921875 375.69921875 904.80078125 c 128
 361.30078125 890.400390625 354.099609375 873.6015625 354.099609375 854.400390625 c 128
 354.099609375 835.19921875 361.30078125 818.400390625 375.69921875 804 c 128
 390.099609375 789.599609375 406.900390625 782.400390625 426.099609375 782.400390625 c 128
 445.30078125 782.400390625 462.099609375 789.599609375 476.5 804 c 128
 490.900390625 818.400390625 498.099609375 835.19921875 498.099609375 854.400390625 c 128
 498.099609375 873.6015625 490.900390625 890.400390625 476.5 904.80078125 c 128
 462.099609375 919.19921875 445.30078125 926.400390625 426.099609375 926.400390625 c 128
555.69921875 206.400390625 m 1
 555.69921875 235.19921875 l 1
 498.099609375 235.19921875 l 1
 498.099609375 696 l 1
 325.30078125 696 l 1
 325.30078125 667.19921875 l 1
 382.900390625 667.19921875 l 1
 382.900390625 235.19921875 l 1
 325.30078125 235.19921875 l 1
 325.30078125 206.400390625 l 1
 555.69921875 206.400390625 l 1
EndSplineSet
EndChar

StartChar: uniF42E
Encoding: 62510 62510 27
Width: 1269
VWidth: 1704
Flags: HW
LayerCount: 2
Fore
SplineSet
1164.59960938 1077.59960938 m 2
 1169.40039062 1068 1171.80078125 1060.80078125 1171.80078125 1056 c 128
 1171.80078125 1051.19921875 1169.40039062 1044 1164.59960938 1034.40039062 c 2
 268.19921875 -117.599609375 l 2
 253.80078125 -132 243 -139.19921875 235.80078125 -139.19921875 c 0
 223.798828125 -139.19921875 211.80078125 -133.201171875 199.80078125 -121.19921875 c 2
 -307.80078125 368.400390625 l 1
 -318.599609375 379.19921875 l 2
 -323.400390625 388.798828125 -325.80078125 396 -325.80078125 400.80078125 c 0
 -325.80078125 403.19921875 -323.400390625 409.201171875 -318.599609375 418.80078125 c 2
 -311.400390625 426 l 2
 -244.201171875 498 -191.400390625 553.201171875 -153 591.599609375 c 0
 -138.599609375 606 -129 613.19921875 -124.19921875 613.19921875 c 0
 -114.6015625 613.19921875 -102.599609375 606 -88.19921875 591.599609375 c 2
 199.80078125 310.80078125 l 1
 919.80078125 1236 l 2
 924.6015625 1240.80078125 931.80078125 1243.19921875 941.400390625 1243.19921875 c 0
 948.599609375 1243.19921875 957 1240.80078125 966.599609375 1236 c 2
 1164.59960938 1077.59960938 l 2
EndSplineSet
EndChar

StartChar: uniF42F
Encoding: 62511 62511 28
Width: 1342
VWidth: 1704
Flags: HW
LayerCount: 2
Fore
SplineSet
-232.900390625 937.19921875 m 0
 -256.900390625 949.201171875 -272.5 962.400390625 -279.69921875 976.80078125 c 0
 -284.5 991.19921875 -283.900390625 1000.79882812 -277.900390625 1005.59960938 c 128
 -271.900390625 1010.40039062 -258.099609375 1012.80078125 -236.5 1012.80078125 c 2
 451.099609375 1012.80078125 l 1
 1138.69921875 1012.80078125 l 2
 1160.30078125 1012.80078125 1174.1015625 1010.40039062 1180.09960938 1005.59960938 c 128
 1186.09960938 1000.79882812 1186.70117188 991.19921875 1181.90039062 976.80078125 c 0
 1174.69921875 962.400390625 1159.09960938 949.201171875 1135.09960938 937.19921875 c 0
 739.099609375 721.19921875 536.298828125 610.80078125 526.69921875 606 c 0
 507.5 596.400390625 482.298828125 591.599609375 451.099609375 591.599609375 c 128
 419.900390625 591.599609375 394.701171875 596.400390625 375.5 606 c 0
 365.900390625 610.80078125 163.099609375 721.19921875 -232.900390625 937.19921875 c 0
1167.5 922.80078125 m 0
 1184.29882812 925.19921875 1193.29882812 925.80078125 1194.5 924.599609375 c 128
 1195.70117188 923.400390625 1196.30078125 916.80078125 1196.30078125 904.80078125 c 2
 1196.30078125 166.80078125 l 2
 1196.30078125 150 1187.30078125 133.19921875 1169.30078125 116.400390625 c 128
 1151.30078125 99.599609375 1133.90039062 91.19921875 1117.09960938 91.19921875 c 2
 451.099609375 91.19921875 l 1
 -214.900390625 91.19921875 l 2
 -234.1015625 91.19921875 -253.298828125 99.599609375 -272.5 116.400390625 c 128
 -291.701171875 133.19921875 -301.30078125 150 -301.30078125 166.80078125 c 2
 -301.30078125 904.80078125 l 2
 -301.30078125 926.400390625 -290.5 932.400390625 -268.900390625 922.80078125 c 0
 -261.69921875 918 -231.69921875 898.19921875 -178.900390625 863.400390625 c 128
 -126.1015625 828.6015625 -60.69921875 784.798828125 17.30078125 732 c 128
 95.298828125 679.201171875 158.298828125 637.19921875 206.30078125 606 c 1
 -92.5 271.19921875 l 2
 -99.69921875 264 -100.900390625 258 -96.099609375 253.19921875 c 0
 -93.701171875 250.80078125 -90.1015625 250.19921875 -85.30078125 251.400390625 c 128
 -80.5 252.599609375 -76.900390625 254.400390625 -74.5 256.80078125 c 2
 278.30078125 555.599609375 l 1
 328.69921875 522 361.099609375 501.599609375 375.5 494.400390625 c 0
 394.701171875 484.80078125 419.900390625 480 451.099609375 480 c 128
 482.298828125 480 507.5 484.80078125 526.69921875 494.400390625 c 0
 541.099609375 501.599609375 573.5 522 623.900390625 555.599609375 c 1
 976.69921875 256.80078125 l 2
 979.099609375 254.400390625 982.69921875 252.599609375 987.5 251.400390625 c 128
 992.30078125 250.19921875 995.900390625 250.80078125 998.30078125 253.19921875 c 128
 1000.69921875 255.599609375 998.30078125 261.599609375 991.099609375 271.19921875 c 2
 695.900390625 606 l 1
 743.900390625 637.19921875 806.298828125 679.201171875 883.099609375 732 c 128
 959.900390625 784.798828125 1024.70117188 828.6015625 1077.5 863.400390625 c 128
 1130.29882812 898.19921875 1160.30078125 918 1167.5 922.80078125 c 0
EndSplineSet
EndChar

StartChar: uniF431
Encoding: 62513 62513 29
Width: 904
VWidth: 1703
Flags: HW
LayerCount: 2
Fore
SplineSet
-159.30078125 793.19921875 m 2
 218.69921875 1153.19921875 l 2
 240.30078125 1174.80078125 267.900390625 1185.59960938 301.5 1185.59960938 c 0
 332.69921875 1185.59960938 359.099609375 1174.80078125 380.69921875 1153.19921875 c 2
 762.30078125 793.19921875 l 2
 783.900390625 771.599609375 794.69921875 745.80078125 794.69921875 715.80078125 c 128
 794.69921875 685.798828125 783.900390625 660 762.30078125 638.400390625 c 128
 740.69921875 616.80078125 713.1015625 606 679.5 606 c 128
 645.900390625 606 618.30078125 616.80078125 596.69921875 638.400390625 c 2
 416.69921875 811.19921875 l 1
 416.69921875 30 l 2
 416.69921875 -1.19921875 405.30078125 -27.599609375 382.5 -49.19921875 c 128
 359.69921875 -70.80078125 332.69921875 -81.599609375 301.5 -81.599609375 c 128
 270.30078125 -81.599609375 243.30078125 -70.80078125 220.5 -49.19921875 c 128
 197.69921875 -27.599609375 186.30078125 -1.19921875 186.30078125 30 c 2
 186.30078125 811.19921875 l 1
 6.30078125 634.80078125 l 2
 -15.30078125 613.19921875 -42.900390625 602.400390625 -76.5 602.400390625 c 128
 -110.1015625 602.400390625 -137.69921875 613.19921875 -159.30078125 634.80078125 c 128
 -180.900390625 656.400390625 -191.69921875 682.80078125 -191.69921875 714 c 128
 -191.69921875 745.19921875 -180.900390625 771.599609375 -159.30078125 793.19921875 c 2
EndSplineSet
EndChar

StartChar: uniF432
Encoding: 62514 62514 30
Width: 1136
VWidth: 1704
Flags: HW
LayerCount: 2
Fore
SplineSet
620.19921875 1012.80078125 m 2
 980.19921875 634.80078125 l 2
 1001.80078125 613.19921875 1012.59960938 585.599609375 1012.59960938 552 c 0
 1012.59960938 520.80078125 1001.80078125 494.400390625 980.19921875 472.80078125 c 2
 620.19921875 91.19921875 l 2
 598.599609375 69.599609375 572.80078125 58.80078125 542.80078125 58.80078125 c 128
 512.798828125 58.80078125 487 69.599609375 465.400390625 91.19921875 c 128
 443.80078125 112.80078125 433 140.3984375 433 174 c 128
 433 207.599609375 443.80078125 235.19921875 465.400390625 256.80078125 c 2
 638.19921875 436.80078125 l 1
 -143 436.80078125 l 2
 -174.19921875 436.80078125 -200.599609375 448.19921875 -222.19921875 471 c 128
 -243.80078125 493.80078125 -254.599609375 520.80078125 -254.599609375 552 c 128
 -254.599609375 583.19921875 -243.80078125 610.19921875 -222.19921875 633 c 128
 -200.599609375 655.80078125 -174.19921875 667.19921875 -143 667.19921875 c 2
 638.19921875 667.19921875 l 1
 461.80078125 847.19921875 l 2
 440.19921875 868.80078125 429.400390625 896.400390625 429.400390625 930 c 128
 429.400390625 963.6015625 440.19921875 991.19921875 461.80078125 1012.80078125 c 128
 483.400390625 1034.40039062 509.80078125 1045.19921875 541 1045.19921875 c 128
 572.19921875 1045.19921875 598.599609375 1034.40039062 620.19921875 1012.80078125 c 2
EndSplineSet
EndChar

StartChar: uniF433
Encoding: 62515 62515 31
Width: 901
VWidth: 1703
Flags: HW
LayerCount: 2
Fore
SplineSet
761.30078125 310.80078125 m 2
 383.30078125 -49.19921875 l 2
 361.69921875 -70.80078125 334.1015625 -81.599609375 300.5 -81.599609375 c 0
 269.30078125 -81.599609375 242.900390625 -70.80078125 221.30078125 -49.19921875 c 2
 -160.30078125 310.80078125 l 2
 -181.900390625 332.400390625 -192.69921875 358.19921875 -192.69921875 388.19921875 c 128
 -192.69921875 418.201171875 -181.900390625 444 -160.30078125 465.599609375 c 128
 -138.69921875 487.19921875 -111.1015625 498 -77.5 498 c 128
 -43.900390625 498 -16.30078125 487.19921875 5.30078125 465.599609375 c 2
 185.30078125 292.80078125 l 1
 185.30078125 1074 l 2
 185.30078125 1105.19921875 196.69921875 1131.59960938 219.5 1153.19921875 c 128
 242.30078125 1174.80078125 269.30078125 1185.59960938 300.5 1185.59960938 c 128
 331.69921875 1185.59960938 358.69921875 1174.80078125 381.5 1153.19921875 c 128
 404.30078125 1131.59960938 415.69921875 1105.19921875 415.69921875 1074 c 2
 415.69921875 292.80078125 l 1
 595.69921875 465.599609375 l 2
 617.30078125 487.19921875 644.900390625 498 678.5 498 c 128
 712.1015625 498 739.69921875 487.19921875 761.30078125 465.599609375 c 128
 782.900390625 444 793.69921875 418.201171875 793.69921875 388.19921875 c 128
 793.69921875 358.19921875 782.900390625 332.400390625 761.30078125 310.80078125 c 2
EndSplineSet
EndChar

StartChar: uniF434
Encoding: 62516 62516 32
Width: 1139
VWidth: 1704
Flags: HW
LayerCount: 2
Fore
SplineSet
138.80078125 1012.80078125 m 2
 160.400390625 1034.40039062 186.80078125 1045.19921875 218 1045.19921875 c 128
 249.19921875 1045.19921875 275.599609375 1034.40039062 297.19921875 1012.80078125 c 128
 318.80078125 991.19921875 329.599609375 963.6015625 329.599609375 930 c 128
 329.599609375 896.400390625 318.80078125 868.80078125 297.19921875 847.19921875 c 2
 120.80078125 667.19921875 l 1
 902 667.19921875 l 2
 933.19921875 667.19921875 959.599609375 655.80078125 981.19921875 633 c 128
 1002.80078125 610.19921875 1013.59960938 583.19921875 1013.59960938 552 c 128
 1013.59960938 520.80078125 1002.80078125 493.80078125 981.19921875 471 c 128
 959.599609375 448.19921875 933.19921875 436.80078125 902 436.80078125 c 2
 120.80078125 436.80078125 l 1
 293.599609375 256.80078125 l 2
 315.19921875 235.19921875 326 207.599609375 326 174 c 128
 326 140.3984375 315.19921875 112.80078125 293.599609375 91.19921875 c 128
 272 69.599609375 246.201171875 58.80078125 216.19921875 58.80078125 c 128
 186.19921875 58.80078125 160.400390625 69.599609375 138.80078125 91.19921875 c 2
 -221.19921875 472.80078125 l 2
 -242.80078125 494.400390625 -253.599609375 520.80078125 -253.599609375 552 c 0
 -253.599609375 585.599609375 -242.80078125 613.19921875 -221.19921875 634.80078125 c 2
 138.80078125 1012.80078125 l 2
EndSplineSet
EndChar

StartChar: uniF435
Encoding: 62517 62517 33
Width: 784
VWidth: 1704
Flags: HW
LayerCount: 2
Fore
SplineSet
535.099609375 652.80078125 m 0
 621.5 609.599609375 664.69921875 543.599609375 664.69921875 454.80078125 c 0
 664.69921875 423.599609375 661.099609375 403.19921875 653.900390625 393.599609375 c 128
 646.69921875 384 632.30078125 379.19921875 610.69921875 379.19921875 c 2
 319.099609375 379.19921875 l 1
 275.900390625 -254.400390625 l 1
 247.099609375 -254.400390625 l 1
 203.900390625 379.19921875 l 1
 -87.69921875 379.19921875 l 2
 -109.30078125 379.19921875 -123.69921875 384.599609375 -130.900390625 395.400390625 c 128
 -138.099609375 406.19921875 -141.69921875 426 -141.69921875 454.80078125 c 0
 -141.69921875 543.599609375 -98.5 609.599609375 -12.099609375 652.80078125 c 0
 -7.298828125 652.80078125 -2.5 655.19921875 2.30078125 660 c 0
 28.701171875 674.400390625 45.5 697.201171875 52.69921875 728.400390625 c 2
 117.5 1153.19921875 l 1
 117.5 1171.19921875 l 2
 117.5 1190.40039062 105.5 1206 81.5 1218 c 2
 77.900390625 1221.59960938 l 1
 74.30078125 1221.59960938 l 1
 45.5 1233.6015625 31.099609375 1254 31.099609375 1282.80078125 c 0
 31.099609375 1316.40039062 35.900390625 1337.40039062 45.5 1345.80078125 c 128
 55.099609375 1354.20117188 71.900390625 1358.40039062 95.900390625 1358.40039062 c 2
 427.099609375 1358.40039062 l 2
 451.099609375 1358.40039062 467.900390625 1354.20117188 477.5 1345.80078125 c 128
 487.099609375 1337.40039062 491.900390625 1316.40039062 491.900390625 1282.80078125 c 0
 491.900390625 1254 477.5 1233.6015625 448.69921875 1221.59960938 c 1
 445.099609375 1221.59960938 l 1
 441.5 1218 l 2
 417.5 1206 405.5 1190.40039062 405.5 1171.19921875 c 2
 405.5 1153.19921875 l 1
 470.30078125 728.400390625 l 2
 477.5 697.201171875 494.298828125 674.400390625 520.69921875 660 c 0
 525.5 655.19921875 530.298828125 652.80078125 535.099609375 652.80078125 c 0
EndSplineSet
EndChar

StartChar: uniF437
Encoding: 62519 62519 34
Width: 1142
VWidth: 1704
Flags: HW
LayerCount: 2
Fore
SplineSet
93 -24 m 1
 93 1128 l 1
 323.400390625 1128 l 1
 323.400390625 -24 l 1
 93 -24 l 1
-252.599609375 -24 m 1
 -252.599609375 321.599609375 l 1
 -22.19921875 321.599609375 l 1
 -22.19921875 -24 l 1
 -252.599609375 -24 l 1
438.599609375 -24 m 1
 438.599609375 552 l 1
 669 552 l 1
 669 -24 l 1
 438.599609375 -24 l 1
784.19921875 -24 m 1
 784.19921875 782.400390625 l 1
 1014.59960938 782.400390625 l 1
 1014.59960938 -24 l 1
 784.19921875 -24 l 1
EndSplineSet
EndChar

StartChar: uniF438
Encoding: 62520 62520 35
Width: 721
VWidth: 1704
Flags: HW
LayerCount: 2
Fore
SplineSet
496.099609375 1117.19921875 m 2
 503.30078125 1124.40039062 514.099609375 1128 528.5 1128 c 0
 545.298828125 1128 559.099609375 1122 569.900390625 1110 c 128
 580.69921875 1098 586.099609375 1083.59960938 586.099609375 1066.80078125 c 2
 586.099609375 37.19921875 l 2
 586.099609375 20.400390625 580.69921875 6 569.900390625 -6 c 128
 559.099609375 -18 545.298828125 -24 528.5 -24 c 0
 514.099609375 -24 503.30078125 -20.400390625 496.099609375 -13.19921875 c 2
 488.900390625 -6 l 1
 -72.69921875 483.599609375 l 2
 -94.30078125 505.19921875 -105.099609375 528 -105.099609375 552 c 128
 -105.099609375 576 -94.30078125 598.80078125 -72.69921875 620.400390625 c 2
 488.900390625 1110 l 1
 496.099609375 1117.19921875 l 2
EndSplineSet
EndChar

StartChar: uniF44B
Encoding: 62539 62539 36
Width: 1012
VWidth: 1704
Flags: HW
LayerCount: 2
Fore
SplineSet
-227.69921875 807.599609375 m 2
 -234.900390625 814.80078125 -238.5 825.599609375 -238.5 840 c 0
 -238.5 856.798828125 -232.5 870.599609375 -220.5 881.400390625 c 128
 -208.5 892.19921875 -194.099609375 897.599609375 -177.30078125 897.599609375 c 2
 852.30078125 897.599609375 l 2
 869.099609375 897.599609375 883.5 892.19921875 895.5 881.400390625 c 128
 907.5 870.599609375 913.5 856.798828125 913.5 840 c 0
 913.5 828 909.900390625 818.400390625 902.69921875 811.19921875 c 2
 895.5 800.400390625 l 1
 405.900390625 238.80078125 l 2
 384.30078125 217.19921875 361.5 206.400390625 337.5 206.400390625 c 128
 313.5 206.400390625 290.69921875 217.19921875 269.099609375 238.80078125 c 2
 -220.5 800.400390625 l 1
 -227.69921875 807.599609375 l 2
EndSplineSet
EndChar

StartChar: uniF47E
Encoding: 62590 62590 37
Width: 1015
VWidth: 1704
Flags: HW
LayerCount: 2
Fore
SplineSet
903.69921875 296.400390625 m 2
 910.900390625 289.19921875 914.5 278.400390625 914.5 264 c 0
 914.5 247.201171875 908.5 233.400390625 896.5 222.599609375 c 128
 884.5 211.80078125 870.099609375 206.400390625 853.30078125 206.400390625 c 2
 -176.30078125 206.400390625 l 2
 -193.099609375 206.400390625 -207.5 211.80078125 -219.5 222.599609375 c 128
 -231.5 233.400390625 -237.5 247.201171875 -237.5 264 c 0
 -237.5 276 -233.900390625 285.599609375 -226.69921875 292.80078125 c 2
 -219.5 303.599609375 l 1
 270.099609375 865.19921875 l 2
 291.69921875 886.80078125 314.5 897.599609375 338.5 897.599609375 c 128
 362.5 897.599609375 385.30078125 886.80078125 406.900390625 865.19921875 c 2
 896.5 303.599609375 l 1
 903.69921875 296.400390625 l 2
EndSplineSet
EndChar

StartChar: uniF44A
Encoding: 62538 62538 38
Width: 719
VWidth: 1704
Flags: HW
LayerCount: 2
Fore
SplineSet
-15.599609375 -13.19921875 m 2
 -22.80078125 -20.400390625 -33.599609375 -24 -48 -24 c 0
 -64.798828125 -24 -78.599609375 -18 -89.400390625 -6 c 128
 -100.19921875 6 -105.599609375 20.400390625 -105.599609375 37.19921875 c 2
 -105.599609375 1066.80078125 l 2
 -105.599609375 1083.59960938 -100.19921875 1098 -89.400390625 1110 c 128
 -78.599609375 1122 -64.798828125 1128 -48 1128 c 0
 -36 1128 -26.400390625 1124.40039062 -19.19921875 1117.19921875 c 2
 -8.400390625 1110 l 1
 553.19921875 620.400390625 l 2
 574.80078125 598.80078125 585.599609375 576 585.599609375 552 c 128
 585.599609375 528 574.80078125 505.19921875 553.19921875 483.599609375 c 2
 -8.400390625 -6 l 1
 -15.599609375 -13.19921875 l 2
EndSplineSet
EndChar

StartChar: uniF43A
Encoding: 62522 62522 39
Width: 1407
VWidth: 1704
Flags: HW
LayerCount: 2
Fore
SplineSet
469 1358.40039062 m 128
 692.19921875 1358.40039062 882.400390625 1279.79882812 1039.59960938 1122.59960938 c 128
 1196.79882812 965.400390625 1275.40039062 775.19921875 1275.40039062 552 c 128
 1275.40039062 328.80078125 1196.79882812 138.599609375 1039.59960938 -18.599609375 c 128
 882.400390625 -175.798828125 692.19921875 -254.400390625 469 -254.400390625 c 128
 245.80078125 -254.400390625 55.599609375 -175.798828125 -101.599609375 -18.599609375 c 128
 -258.798828125 138.599609375 -337.400390625 328.80078125 -337.400390625 552 c 128
 -337.400390625 775.19921875 -258.798828125 965.400390625 -101.599609375 1122.59960938 c 128
 55.599609375 1279.79882812 245.80078125 1358.40039062 469 1358.40039062 c 128
469 1214.40039062 m 128
 449.798828125 1214.40039062 440.19921875 1204.80078125 440.19921875 1185.59960938 c 128
 440.19921875 1166.40039062 449.798828125 1156.80078125 469 1156.80078125 c 128
 488.201171875 1156.80078125 497.80078125 1166.40039062 497.80078125 1185.59960938 c 128
 497.80078125 1204.80078125 488.201171875 1214.40039062 469 1214.40039062 c 128
-164.599609375 523.19921875 m 128
 -145.400390625 523.19921875 -135.80078125 532.798828125 -135.80078125 552 c 128
 -135.80078125 571.201171875 -145.400390625 580.80078125 -164.599609375 580.80078125 c 128
 -183.80078125 580.80078125 -193.400390625 571.201171875 -193.400390625 552 c 128
 -193.400390625 532.798828125 -183.80078125 523.19921875 -164.599609375 523.19921875 c 128
-63.80078125 210 m 0
 -49.400390625 217.19921875 -47 230.3984375 -56.599609375 249.599609375 c 0
 -63.80078125 264 -75.80078125 267.599609375 -92.599609375 260.400390625 c 128
 -109.400390625 253.19921875 -113 240 -103.400390625 220.80078125 c 0
 -96.19921875 204 -83 200.400390625 -63.80078125 210 c 0
-56.599609375 854.400390625 m 0
 -47 873.6015625 -49.400390625 886.80078125 -63.80078125 894 c 0
 -83 903.599609375 -96.19921875 900 -103.400390625 883.19921875 c 0
 -113 864 -109.400390625 850.80078125 -92.599609375 843.599609375 c 128
 -75.80078125 836.400390625 -63.80078125 840 -56.599609375 854.400390625 c 0
137.80078125 1124.40039062 m 0
 121 1117.19921875 117.400390625 1104 127 1084.80078125 c 0
 134.19921875 1070.40039062 147.3984375 1068 166.599609375 1077.59960938 c 0
 181 1084.80078125 184.599609375 1096.80078125 177.400390625 1113.59960938 c 128
 170.19921875 1130.40039062 157 1134 137.80078125 1124.40039062 c 0
177.400390625 -9.599609375 m 128
 184.599609375 7.19921875 181 19.19921875 166.599609375 26.400390625 c 0
 147.3984375 36 134.19921875 33.599609375 127 19.19921875 c 0
 117.400390625 0 121 -13.19921875 137.80078125 -20.400390625 c 0
 157 -30 170.19921875 -26.400390625 177.400390625 -9.599609375 c 128
469 -110.400390625 m 128
 488.201171875 -110.400390625 497.80078125 -100.80078125 497.80078125 -81.599609375 c 128
 497.80078125 -62.400390625 488.201171875 -52.80078125 469 -52.80078125 c 128
 449.798828125 -52.80078125 440.19921875 -62.400390625 440.19921875 -81.599609375 c 128
 440.19921875 -100.80078125 449.798828125 -110.400390625 469 -110.400390625 c 128
497.80078125 501.599609375 m 1
 531.400390625 518.3984375 538.6015625 544.80078125 519.400390625 580.80078125 c 0
 507.400390625 600 490.599609375 609.599609375 469 609.599609375 c 1
 332.19921875 840 l 2
 325 854.400390625 311.80078125 856.798828125 292.599609375 847.19921875 c 0
 278.19921875 840 275.80078125 826.80078125 285.400390625 807.599609375 c 2
 418.599609375 580.80078125 l 1
 406.599609375 561.599609375 406.599609375 542.400390625 418.599609375 523.19921875 c 0
 421 520.80078125 423.400390625 517.80078125 425.80078125 514.19921875 c 128
 428.19921875 510.599609375 430.599609375 507.599609375 433 505.19921875 c 128
 435.3984375 502.80078125 437.80078125 501.599609375 440.19921875 501.599609375 c 1
 440.19921875 62.400390625 l 2
 440.19921875 43.19921875 449.798828125 33.599609375 469 33.599609375 c 128
 488.201171875 33.599609375 497.80078125 43.19921875 497.80078125 62.400390625 c 2
 497.80078125 501.599609375 l 1
800.19921875 -20.400390625 m 0
 817 -13.19921875 820.599609375 0 811 19.19921875 c 0
 803.80078125 33.599609375 790.6015625 36 771.400390625 26.400390625 c 0
 757 19.19921875 753.400390625 7.19921875 760.599609375 -9.599609375 c 128
 767.80078125 -26.400390625 781 -30 800.19921875 -20.400390625 c 0
811 1084.80078125 m 0
 820.599609375 1104 817 1117.19921875 800.19921875 1124.40039062 c 0
 781 1134 767.80078125 1130.40039062 760.599609375 1113.59960938 c 128
 753.400390625 1096.80078125 757 1084.80078125 771.400390625 1077.59960938 c 0
 790.6015625 1068 803.80078125 1070.40039062 811 1084.80078125 c 0
1041.40039062 220.80078125 m 0
 1051 240 1047.40039062 253.19921875 1030.59960938 260.400390625 c 128
 1013.80078125 267.599609375 1001.80078125 264 994.599609375 249.599609375 c 0
 985 230.3984375 987.400390625 217.19921875 1001.80078125 210 c 0
 1021 200.400390625 1034.19921875 204 1041.40039062 220.80078125 c 0
1030.59960938 843.599609375 m 128
 1047.40039062 850.80078125 1051 864 1041.40039062 883.19921875 c 0
 1034.19921875 900 1021 903.599609375 1001.80078125 894 c 0
 987.400390625 886.80078125 985 873.6015625 994.599609375 854.400390625 c 0
 1001.80078125 840 1013.80078125 836.400390625 1030.59960938 843.599609375 c 128
1102.59960938 523.19921875 m 128
 1121.80078125 523.19921875 1131.40039062 532.798828125 1131.40039062 552 c 128
 1131.40039062 571.201171875 1121.80078125 580.80078125 1102.59960938 580.80078125 c 128
 1083.40039062 580.80078125 1073.80078125 571.201171875 1073.80078125 552 c 128
 1073.80078125 532.798828125 1083.40039062 523.19921875 1102.59960938 523.19921875 c 128
EndSplineSet
EndChar

StartChar: uniF439
Encoding: 62521 62521 40
Width: 1432
VWidth: 1704
Flags: HW
LayerCount: 2
Fore
SplineSet
1183.09960938 1128 m 2
 1211.90039062 1128 1235.90039062 1118.40039062 1255.09960938 1099.19921875 c 128
 1274.30078125 1080 1283.90039062 1056 1283.90039062 1027.19921875 c 2
 1283.90039062 76.80078125 l 2
 1283.90039062 48 1274.30078125 24 1255.09960938 4.80078125 c 128
 1235.90039062 -14.400390625 1211.90039062 -24 1183.09960938 -24 c 2
 -228.099609375 -24 l 2
 -256.900390625 -24 -280.900390625 -14.400390625 -300.099609375 4.80078125 c 128
 -319.30078125 24 -328.900390625 48 -328.900390625 76.80078125 c 1
 -328.900390625 1027.19921875 l 1
 -328.900390625 1056 -319.30078125 1080 -300.099609375 1099.19921875 c 128
 -280.900390625 1118.40039062 -256.900390625 1128 -228.099609375 1128 c 2
 1183.09960938 1128 l 2
-166.900390625 1012.80078125 m 2
 -193.30078125 1012.80078125 -208.900390625 998.400390625 -213.69921875 969.599609375 c 2
 -213.69921875 897.599609375 l 1
 1168.69921875 897.599609375 l 1
 1168.69921875 969.599609375 l 2
 1163.90039062 998.400390625 1148.30078125 1012.80078125 1121.90039062 1012.80078125 c 2
 -166.900390625 1012.80078125 l 2
1121.90039062 91.19921875 m 2
 1148.30078125 91.19921875 1163.90039062 105.599609375 1168.69921875 134.400390625 c 2
 1168.69921875 552 l 1
 -213.69921875 552 l 1
 -213.69921875 134.400390625 l 2
 -208.900390625 105.599609375 -193.30078125 91.19921875 -166.900390625 91.19921875 c 2
 1121.90039062 91.19921875 l 2
-98.5 321.599609375 m 1
 -98.5 379.19921875 l 1
 592.69921875 379.19921875 l 1
 592.69921875 321.599609375 l 1
 -98.5 321.599609375 l 1
-98.5 206.400390625 m 1
 -98.5 264 l 1
 247.099609375 264 l 1
 247.099609375 206.400390625 l 1
 -98.5 206.400390625 l 1
823.099609375 206.400390625 m 1
 823.099609375 379.19921875 l 1
 1053.5 379.19921875 l 1
 1053.5 206.400390625 l 1
 823.099609375 206.400390625 l 1
EndSplineSet
EndChar

StartChar: uniF455
Encoding: 62549 62549 41
Width: 1434
VWidth: 1704
Flags: HW
LayerCount: 2
Fore
SplineSet
74.80078125 1012.80078125 m 128
 41.19921875 1012.80078125 13.599609375 1023.59960938 -8 1045.19921875 c 128
 -29.599609375 1066.80078125 -40.400390625 1094.40039062 -40.400390625 1128 c 2
 -40.400390625 1243.19921875 l 2
 -40.400390625 1276.80078125 -29.599609375 1304.40039062 -8 1326 c 128
 13.599609375 1347.59960938 41.19921875 1358.40039062 74.80078125 1358.40039062 c 128
 108.400390625 1358.40039062 136 1347.59960938 157.599609375 1326 c 128
 179.19921875 1304.40039062 190 1276.80078125 190 1243.19921875 c 2
 190 1128 l 2
 190 1094.40039062 179.19921875 1066.80078125 157.599609375 1045.19921875 c 128
 136 1023.59960938 108.400390625 1012.80078125 74.80078125 1012.80078125 c 128
881.19921875 1012.80078125 m 128
 847.599609375 1012.80078125 820 1023.59960938 798.400390625 1045.19921875 c 128
 776.80078125 1066.80078125 766 1094.40039062 766 1128 c 2
 766 1243.19921875 l 2
 766 1276.80078125 776.80078125 1304.40039062 798.400390625 1326 c 128
 820 1347.59960938 847.599609375 1358.40039062 881.19921875 1358.40039062 c 128
 914.80078125 1358.40039062 942.400390625 1347.59960938 964 1326 c 128
 985.599609375 1304.40039062 996.400390625 1276.80078125 996.400390625 1243.19921875 c 2
 996.400390625 1128 l 2
 996.400390625 1094.40039062 985.599609375 1066.80078125 964 1045.19921875 c 128
 942.400390625 1023.59960938 914.80078125 1012.80078125 881.19921875 1012.80078125 c 128
1255.59960938 1243.19921875 m 2
 1274.80078125 1243.19921875 1284.40039062 1233.6015625 1284.40039062 1214.40039062 c 2
 1284.40039062 -225.599609375 l 2
 1284.40039062 -244.80078125 1274.80078125 -254.400390625 1255.59960938 -254.400390625 c 2
 -299.599609375 -254.400390625 l 2
 -318.80078125 -254.400390625 -328.400390625 -244.80078125 -328.400390625 -225.599609375 c 2
 -328.400390625 1214.40039062 l 2
 -328.400390625 1233.6015625 -318.80078125 1243.19921875 -299.599609375 1243.19921875 c 2
 -98 1243.19921875 l 1
 -98 1095.59960938 l 2
 -98 1057.20117188 -80.599609375 1024.19921875 -45.80078125 996.599609375 c 128
 -11 969 29.201171875 955.19921875 74.80078125 955.19921875 c 128
 120.3984375 955.19921875 160.599609375 969 195.400390625 996.599609375 c 128
 230.19921875 1024.19921875 247.599609375 1057.20117188 247.599609375 1095.59960938 c 2
 247.599609375 1243.19921875 l 1
 708.400390625 1243.19921875 l 1
 708.400390625 1095.59960938 l 2
 708.400390625 1057.20117188 726.400390625 1024.19921875 762.400390625 996.599609375 c 128
 798.400390625 969 839.201171875 955.19921875 884.80078125 955.19921875 c 0
 928 955.19921875 967 969 1001.80078125 996.599609375 c 128
 1036.59960938 1024.19921875 1054 1057.20117188 1054 1095.59960938 c 2
 1054 1243.19921875 l 1
 1255.59960938 1243.19921875 l 2
1111.59960938 -81.599609375 m 1
 1111.59960938 840 l 1
 -155.599609375 840 l 1
 -155.599609375 -81.599609375 l 1
 1111.59960938 -81.599609375 l 1
EndSplineSet
EndChar

StartChar: uniF456
Encoding: 62550 62550 42
Width: 1246
VWidth: 1704
Flags: HW
LayerCount: 2
Fore
SplineSet
-196.5 -254.400390625 m 2
 -218.099609375 -254.400390625 -236.69921875 -246.6015625 -252.30078125 -231 c 128
 -267.900390625 -215.400390625 -275.69921875 -196.80078125 -275.69921875 -175.19921875 c 2
 -275.69921875 588 l 2
 -275.69921875 609.599609375 -267.900390625 628.19921875 -252.30078125 643.80078125 c 128
 -236.69921875 659.400390625 -218.099609375 667.19921875 -196.5 667.19921875 c 2
 -185.69921875 667.19921875 l 1
 -117.30078125 667.19921875 l 1
 -117.30078125 778.80078125 l 2
 -117.30078125 944.400390625 -65.69921875 1082.40039062 37.5 1192.80078125 c 128
 140.69921875 1303.19921875 266.69921875 1358.40039062 415.5 1358.40039062 c 1
 564.30078125 1358.40039062 690.30078125 1303.19921875 793.5 1192.80078125 c 128
 896.69921875 1082.40039062 948.30078125 944.400390625 948.30078125 778.80078125 c 2
 948.30078125 667.19921875 l 1
 1027.5 667.19921875 l 2
 1049.09960938 667.19921875 1067.69921875 659.400390625 1083.30078125 643.80078125 c 128
 1098.90039062 628.19921875 1106.69921875 609.599609375 1106.69921875 588 c 2
 1106.69921875 -175.19921875 l 2
 1106.69921875 -196.80078125 1098.90039062 -215.400390625 1083.30078125 -231 c 128
 1067.69921875 -246.6015625 1049.09960938 -254.400390625 1027.5 -254.400390625 c 2
 -196.5 -254.400390625 l 2
73.5 778.80078125 m 2
 73.5 667.19921875 l 1
 134.69921875 667.19921875 l 1
 692.69921875 667.19921875 l 1
 757.5 667.19921875 l 1
 757.5 778.80078125 l 2
 757.5 898.80078125 723.900390625 994.80078125 656.69921875 1066.80078125 c 1
 656.69921875 1070.40039062 l 1
 591.900390625 1140 511.5 1174.80078125 415.5 1174.80078125 c 1
 319.5 1174.80078125 239.099609375 1140 174.30078125 1070.40039062 c 1
 174.30078125 1066.80078125 l 1
 107.099609375 994.80078125 73.5 898.80078125 73.5 778.80078125 c 2
EndSplineSet
EndChar

StartChar: uniF43D
Encoding: 62525 62525 43
Width: 668
VWidth: 1704
Flags: HW
LayerCount: 2
Fore
SplineSet
395.80078125 390 m 1
 511 320.3984375 568.599609375 220.80078125 568.599609375 91.19921875 c 0
 568.599609375 -4.798828125 535 -86.400390625 467.80078125 -153.599609375 c 128
 400.6015625 -220.798828125 319 -254.400390625 223 -254.400390625 c 128
 127 -254.400390625 45.3984375 -220.798828125 -21.80078125 -153.599609375 c 128
 -89 -86.400390625 -122.599609375 -4.798828125 -122.599609375 91.19921875 c 0
 -122.599609375 225.599609375 -65 326.400390625 50.19921875 393.599609375 c 1
 67 432 81.3984375 481.201171875 93.400390625 541.19921875 c 0
 93.400390625 546 100 552.599609375 113.19921875 561 c 128
 126.3984375 569.400390625 133 577.19921875 133 584.400390625 c 2
 133 656.400390625 l 2
 133 663.599609375 128.80078125 671.3984375 120.400390625 679.80078125 c 128
 112 688.201171875 107.80078125 693.6015625 107.80078125 696 c 2
 107.80078125 724.80078125 l 1
 107.80078125 753.599609375 l 2
 107.80078125 763.19921875 109 770.400390625 111.400390625 775.19921875 c 2
 115 778.80078125 l 1
 115 782.400390625 l 1
 122.19921875 786 l 1
 136.599609375 800.400390625 l 1
 136.599609375 804 l 2
 143.80078125 811.19921875 147.400390625 818.400390625 147.400390625 825.599609375 c 2
 151 840 l 2
 151 854.400390625 151 854.400390625 151 858 c 0
 151 867.599609375 146.19921875 877.201171875 136.599609375 886.80078125 c 2
 133 890.400390625 l 1
 118.599609375 904.80078125 l 1
 115 908.400390625 l 2
 107.80078125 915.599609375 104.19921875 925.19921875 104.19921875 937.19921875 c 2
 104.19921875 962.400390625 l 2
 104.19921875 974.400390625 109 985.201171875 118.599609375 994.80078125 c 2
 136.599609375 1012.80078125 l 2
 146.19921875 1022.40039062 151 1029.59960938 151 1034.40039062 c 2
 151 1120.80078125 l 2
 151 1130.40039062 146.19921875 1140 136.599609375 1149.59960938 c 1
 136.599609375 1153.19921875 l 1
 122.19921875 1167.59960938 l 1
 118.599609375 1171.19921875 l 2
 111.400390625 1178.40039062 107.80078125 1188 107.80078125 1200 c 2
 107.80078125 1264.80078125 l 2
 107.80078125 1310.40039062 118.599609375 1338 140.19921875 1347.59960938 c 0
 161.80078125 1354.80078125 189.3984375 1358.40039062 223 1358.40039062 c 0
 261.400390625 1358.40039062 289.599609375 1348.80078125 307.599609375 1329.59960938 c 128
 325.599609375 1310.40039062 335.80078125 1276.80078125 338.19921875 1228.80078125 c 0
 355 1034.40039062 365.798828125 862.80078125 370.599609375 714 c 2
 395.80078125 390 l 1
223 -139.19921875 m 128
 256.6015625 -139.19921875 284.19921875 -128.400390625 305.80078125 -106.80078125 c 128
 327.400390625 -85.19921875 338.19921875 -57.6015625 338.19921875 -24 c 128
 338.19921875 9.599609375 327.400390625 37.19921875 305.80078125 58.80078125 c 128
 284.19921875 80.400390625 256.6015625 91.19921875 223 91.19921875 c 128
 189.3984375 91.19921875 161.80078125 80.400390625 140.19921875 58.80078125 c 128
 118.599609375 37.19921875 107.80078125 9.599609375 107.80078125 -24 c 128
 107.80078125 -57.6015625 118.599609375 -85.19921875 140.19921875 -106.80078125 c 128
 161.80078125 -128.400390625 189.3984375 -139.19921875 223 -139.19921875 c 128
EndSplineSet
EndChar

StartChar: uniF44C
Encoding: 62540 62540 44
Width: 1242
VWidth: 1704
Flags: HW
LayerCount: 2
Fore
SplineSet
414 724.80078125 m 1024
817.19921875 897.599609375 m 2
 896.400390625 897.599609375 964.201171875 869.400390625 1020.59960938 813 c 128
 1077 756.6015625 1105.19921875 688.80078125 1105.19921875 609.599609375 c 2
 1105.19921875 494.400390625 l 2
 1105.19921875 415.19921875 1077 347.3984375 1020.59960938 291 c 128
 964.201171875 234.599609375 896.400390625 206.400390625 817.19921875 206.400390625 c 2
 414 206.400390625 l 2
 291.599609375 206.400390625 204 264 151.19921875 379.19921875 c 0
 134.400390625 420 126 458.400390625 126 494.400390625 c 2
 126 609.599609375 l 1
 298.80078125 609.599609375 l 1
 298.80078125 494.400390625 l 2
 298.80078125 460.798828125 309.599609375 433.19921875 331.19921875 411.599609375 c 128
 352.80078125 390 380.3984375 379.19921875 414 379.19921875 c 2
 817.19921875 379.19921875 l 2
 850.80078125 379.19921875 878.400390625 390 900 411.599609375 c 128
 921.599609375 433.19921875 932.400390625 460.798828125 932.400390625 494.400390625 c 2
 932.400390625 609.599609375 l 2
 932.400390625 643.201171875 921.599609375 670.80078125 900 692.400390625 c 128
 878.400390625 714 850.80078125 724.80078125 817.19921875 724.80078125 c 2
 759.599609375 724.80078125 l 1
 752.400390625 758.400390625 739.201171875 789.599609375 720 818.400390625 c 128
 700.798828125 847.19921875 682.798828125 867.599609375 666 879.599609375 c 2
 644.400390625 897.599609375 l 1
 817.19921875 897.599609375 l 2
680.400390625 724.80078125 m 0
 694.80078125 688.80078125 702 650.400390625 702 609.599609375 c 2
 702 494.400390625 l 1
 529.19921875 494.400390625 l 1
 529.19921875 609.599609375 l 2
 529.19921875 643.201171875 518.400390625 670.80078125 496.80078125 692.400390625 c 128
 475.19921875 714 447.6015625 724.80078125 414 724.80078125 c 2
 10.80078125 724.80078125 l 2
 -22.80078125 724.80078125 -50.400390625 714 -72 692.400390625 c 128
 -93.599609375 670.80078125 -104.400390625 643.201171875 -104.400390625 609.599609375 c 2
 -104.400390625 494.400390625 l 2
 -104.400390625 460.798828125 -93.599609375 433.19921875 -72 411.599609375 c 128
 -50.400390625 390 -22.80078125 379.19921875 10.80078125 379.19921875 c 2
 68.400390625 379.19921875 l 1
 75.599609375 345.599609375 88.798828125 314.400390625 108 285.599609375 c 128
 127.201171875 256.80078125 145.201171875 236.400390625 162 224.400390625 c 2
 183.599609375 206.400390625 l 1
 10.80078125 206.400390625 l 2
 -68.400390625 206.400390625 -136.201171875 234.599609375 -192.599609375 291 c 128
 -249 347.3984375 -277.19921875 415.19921875 -277.19921875 494.400390625 c 2
 -277.19921875 609.599609375 l 2
 -277.19921875 688.80078125 -249 756.6015625 -192.599609375 813 c 128
 -136.201171875 869.400390625 -68.400390625 897.599609375 10.80078125 897.599609375 c 2
 414 897.599609375 l 2
 471.599609375 897.599609375 525 881.400390625 574.19921875 849 c 128
 623.400390625 816.599609375 658.80078125 775.19921875 680.400390625 724.80078125 c 0
EndSplineSet
EndChar

StartChar: uniF44E
Encoding: 62542 62542 45
Width: 1242
VWidth: 1704
Flags: HW
LayerCount: 2
Fore
SplineSet
993.599609375 667.19921875 m 2
 1024.79882812 667.19921875 1051.19921875 655.80078125 1072.80078125 633 c 128
 1094.40039062 610.19921875 1105.19921875 583.19921875 1105.19921875 552 c 128
 1105.19921875 520.80078125 1094.40039062 493.80078125 1072.80078125 471 c 128
 1051.19921875 448.19921875 1024.79882812 436.80078125 993.599609375 436.80078125 c 2
 -165.599609375 436.80078125 l 2
 -196.798828125 436.80078125 -223.19921875 448.19921875 -244.80078125 471 c 128
 -266.400390625 493.80078125 -277.19921875 520.80078125 -277.19921875 552 c 128
 -277.19921875 583.19921875 -266.400390625 610.19921875 -244.80078125 633 c 128
 -223.19921875 655.80078125 -196.798828125 667.19921875 -165.599609375 667.19921875 c 2
 993.599609375 667.19921875 l 2
993.599609375 1128 m 2
 1024.79882812 1128 1051.19921875 1116.6015625 1072.80078125 1093.80078125 c 128
 1094.40039062 1071 1105.19921875 1044 1105.19921875 1012.80078125 c 128
 1105.19921875 981.6015625 1094.40039062 954.6015625 1072.80078125 931.80078125 c 128
 1051.19921875 909 1024.79882812 897.599609375 993.599609375 897.599609375 c 2
 -165.599609375 897.599609375 l 2
 -196.798828125 897.599609375 -223.19921875 909 -244.80078125 931.80078125 c 128
 -266.400390625 954.6015625 -277.19921875 981.6015625 -277.19921875 1012.80078125 c 128
 -277.19921875 1044 -266.400390625 1071 -244.80078125 1093.80078125 c 128
 -223.19921875 1116.6015625 -196.798828125 1128 -165.599609375 1128 c 2
 993.599609375 1128 l 2
993.599609375 206.400390625 m 2
 1024.79882812 206.400390625 1051.19921875 195 1072.80078125 172.19921875 c 128
 1094.40039062 149.3984375 1105.19921875 122.3984375 1105.19921875 91.19921875 c 128
 1105.19921875 60 1094.40039062 33 1072.80078125 10.19921875 c 128
 1051.19921875 -12.6015625 1024.79882812 -24 993.599609375 -24 c 2
 -165.599609375 -24 l 2
 -196.798828125 -24 -223.19921875 -12.6015625 -244.80078125 10.19921875 c 128
 -266.400390625 33 -277.19921875 60 -277.19921875 91.19921875 c 128
 -277.19921875 122.3984375 -266.400390625 149.3984375 -244.80078125 172.19921875 c 128
 -223.19921875 195 -196.798828125 206.400390625 -165.599609375 206.400390625 c 2
 993.599609375 206.400390625 l 2
EndSplineSet
EndChar

StartChar: uniF44D
Encoding: 62541 62541 46
Width: 1236
VWidth: 1704
Flags: HW
LayerCount: 2
Fore
SplineSet
1103.19921875 667.19921875 m 1
 1103.19921875 436.80078125 l 1
 527.19921875 436.80078125 l 1
 527.19921875 -139.19921875 l 1
 296.80078125 -139.19921875 l 1
 296.80078125 436.80078125 l 1
 -279.19921875 436.80078125 l 1
 -279.19921875 667.19921875 l 1
 296.80078125 667.19921875 l 1
 296.80078125 1243.19921875 l 1
 527.19921875 1243.19921875 l 1
 527.19921875 667.19921875 l 1
 1103.19921875 667.19921875 l 1
EndSplineSet
EndChar

StartChar: uniF450
Encoding: 62544 62544 47
Width: 882
VWidth: 1704
Flags: HW
LayerCount: 2
Fore
SplineSet
294 1358.40039062 m 128
 428.400390625 1358.40039062 542.400390625 1311.59960938 636 1218 c 128
 729.599609375 1124.40039062 776.400390625 1011.59960938 776.400390625 879.599609375 c 0
 776.400390625 817.19921875 765.599609375 757.19921875 744 699.599609375 c 1
 740.400390625 696 l 2
 740.400390625 692.400390625 740.400390625 692.400390625 740.400390625 688.80078125 c 2
 736.80078125 681.599609375 l 1
 733.19921875 678 l 1
 294 -254.400390625 l 1
 -145.19921875 681.599609375 l 1
 -148.80078125 688.80078125 l 2
 -151.19921875 691.19921875 -152.400390625 693.6015625 -152.400390625 696 c 2
 -152.400390625 699.599609375 l 1
 -176.400390625 764.400390625 -188.400390625 824.400390625 -188.400390625 879.599609375 c 0
 -188.400390625 1011.59960938 -141.599609375 1124.40039062 -48 1218 c 128
 45.599609375 1311.59960938 159.599609375 1358.40039062 294 1358.40039062 c 128
294 728.400390625 m 128
 342 728.400390625 382.19921875 744.599609375 414.599609375 777 c 128
 447 809.400390625 463.19921875 849.599609375 463.19921875 897.599609375 c 128
 463.19921875 945.6015625 447 985.80078125 414.599609375 1018.19921875 c 128
 382.19921875 1050.59960938 342 1066.80078125 294 1066.80078125 c 128
 246 1066.80078125 205.80078125 1050.59960938 173.400390625 1018.19921875 c 128
 141 985.80078125 124.80078125 945.6015625 124.80078125 897.599609375 c 128
 124.80078125 849.599609375 141 809.400390625 173.400390625 777 c 128
 205.80078125 744.599609375 246 728.400390625 294 728.400390625 c 128
EndSplineSet
EndChar

StartChar: uniF44F
Encoding: 62543 62543 48
Width: 1390
VWidth: 1703
Flags: HW
LayerCount: 2
Fore
SplineSet
146.69921875 62.400390625 m 128
 122.701171875 62.400390625 102.298828125 70.80078125 85.5 87.599609375 c 2
 -317.69921875 490.80078125 l 2
 -334.5 507.599609375 -342.900390625 528 -342.900390625 552 c 128
 -342.900390625 576 -334.5 596.400390625 -317.69921875 613.19921875 c 2
 85.5 1016.40039062 l 2
 102.298828125 1033.19921875 122.701171875 1041.59960938 146.69921875 1041.59960938 c 128
 170.69921875 1041.59960938 191.099609375 1033.19921875 207.900390625 1016.40039062 c 128
 224.69921875 999.6015625 233.099609375 979.19921875 233.099609375 955.19921875 c 128
 233.099609375 931.201171875 224.69921875 910.798828125 207.900390625 894 c 2
 -134.099609375 552 l 1
 207.900390625 210 l 2
 224.69921875 193.201171875 233.099609375 172.798828125 233.099609375 148.80078125 c 128
 233.099609375 124.80078125 224.69921875 104.3984375 207.900390625 87.599609375 c 128
 191.099609375 70.80078125 170.69921875 62.400390625 146.69921875 62.400390625 c 128
780.30078125 62.400390625 m 128
 756.30078125 62.400390625 735.900390625 70.80078125 719.099609375 87.599609375 c 128
 702.30078125 104.3984375 693.900390625 124.80078125 693.900390625 148.80078125 c 128
 693.900390625 172.798828125 702.30078125 193.201171875 719.099609375 210 c 2
 1061.09960938 552 l 1
 719.099609375 894 l 2
 702.30078125 910.798828125 693.900390625 931.201171875 693.900390625 955.19921875 c 128
 693.900390625 979.19921875 702.30078125 999.6015625 719.099609375 1016.40039062 c 128
 735.900390625 1033.19921875 756.30078125 1041.59960938 780.30078125 1041.59960938 c 128
 804.298828125 1041.59960938 824.701171875 1033.19921875 841.5 1016.40039062 c 2
 1244.69921875 613.19921875 l 2
 1261.5 596.400390625 1269.90039062 576 1269.90039062 552 c 128
 1269.90039062 528 1261.5 507.599609375 1244.69921875 490.80078125 c 2
 841.5 87.599609375 l 2
 824.701171875 70.80078125 804.298828125 62.400390625 780.30078125 62.400390625 c 128
EndSplineSet
EndChar

StartChar: uniF40B
Encoding: 62475 62475 49
Width: 1390
VWidth: 1703
Flags: HW
LayerCount: 2
Fore
SplineSet
117.900390625 552 m 128
 117.900390625 609.599609375 146.69921875 638.400390625 204.30078125 638.400390625 c 128
 261.900390625 638.400390625 290.69921875 609.599609375 290.69921875 552 c 128
 290.69921875 494.400390625 261.900390625 465.599609375 204.30078125 465.599609375 c 128
 146.69921875 465.599609375 117.900390625 494.400390625 117.900390625 552 c 128
377.099609375 552 m 128
 377.099609375 609.599609375 405.900390625 638.400390625 463.5 638.400390625 c 128
 521.099609375 638.400390625 549.900390625 609.599609375 549.900390625 552 c 128
 549.900390625 494.400390625 521.099609375 465.599609375 463.5 465.599609375 c 128
 405.900390625 465.599609375 377.099609375 494.400390625 377.099609375 552 c 128
636.30078125 552 m 128
 636.30078125 609.599609375 665.099609375 638.400390625 722.69921875 638.400390625 c 128
 780.30078125 638.400390625 809.099609375 609.599609375 809.099609375 552 c 128
 809.099609375 494.400390625 780.30078125 465.599609375 722.69921875 465.599609375 c 128
 665.099609375 465.599609375 636.30078125 494.400390625 636.30078125 552 c 128
146.69921875 62.400390625 m 128
 122.701171875 62.400390625 102.298828125 70.80078125 85.5 87.599609375 c 2
 -317.69921875 490.80078125 l 2
 -334.5 507.599609375 -342.900390625 528 -342.900390625 552 c 128
 -342.900390625 576 -334.5 596.400390625 -317.69921875 613.19921875 c 2
 85.5 1016.40039062 l 2
 102.298828125 1033.19921875 122.701171875 1041.59960938 146.69921875 1041.59960938 c 128
 170.69921875 1041.59960938 191.099609375 1033.19921875 207.900390625 1016.40039062 c 128
 224.69921875 999.6015625 233.099609375 979.19921875 233.099609375 955.19921875 c 128
 233.099609375 931.201171875 224.69921875 910.798828125 207.900390625 894 c 2
 -134.099609375 552 l 1
 207.900390625 210 l 2
 224.69921875 193.201171875 233.099609375 172.798828125 233.099609375 148.80078125 c 128
 233.099609375 124.80078125 224.69921875 104.3984375 207.900390625 87.599609375 c 128
 191.099609375 70.80078125 170.69921875 62.400390625 146.69921875 62.400390625 c 128
780.30078125 62.400390625 m 128
 756.30078125 62.400390625 735.900390625 70.80078125 719.099609375 87.599609375 c 128
 702.30078125 104.3984375 693.900390625 124.80078125 693.900390625 148.80078125 c 128
 693.900390625 172.798828125 702.30078125 193.201171875 719.099609375 210 c 2
 1061.09960938 552 l 1
 719.099609375 894 l 2
 702.30078125 910.798828125 693.900390625 931.201171875 693.900390625 955.19921875 c 128
 693.900390625 979.19921875 702.30078125 999.6015625 719.099609375 1016.40039062 c 128
 735.900390625 1033.19921875 756.30078125 1041.59960938 780.30078125 1041.59960938 c 128
 804.298828125 1041.59960938 824.701171875 1033.19921875 841.5 1016.40039062 c 2
 1244.69921875 613.19921875 l 2
 1261.5 596.400390625 1269.90039062 576 1269.90039062 552 c 128
 1269.90039062 528 1261.5 507.599609375 1244.69921875 490.80078125 c 2
 841.5 87.599609375 l 2
 824.701171875 70.80078125 804.298828125 62.400390625 780.30078125 62.400390625 c 128
EndSplineSet
EndChar

StartChar: uniF40C
Encoding: 62476 62476 50
Width: 1390
VWidth: 1703
Flags: HW
LayerCount: 2
Fore
SplineSet
117.900390625 552 m 128
 117.900390625 609.599609375 146.69921875 638.400390625 204.30078125 638.400390625 c 128
 261.900390625 638.400390625 290.69921875 609.599609375 290.69921875 552 c 128
 290.69921875 494.400390625 261.900390625 465.599609375 204.30078125 465.599609375 c 128
 146.69921875 465.599609375 117.900390625 494.400390625 117.900390625 552 c 128
377.099609375 552 m 128
 377.099609375 609.599609375 405.900390625 638.400390625 463.5 638.400390625 c 128
 521.099609375 638.400390625 549.900390625 609.599609375 549.900390625 552 c 128
 549.900390625 494.400390625 521.099609375 465.599609375 463.5 465.599609375 c 128
 405.900390625 465.599609375 377.099609375 494.400390625 377.099609375 552 c 128
636.30078125 552 m 128
 636.30078125 609.599609375 665.099609375 638.400390625 722.69921875 638.400390625 c 128
 780.30078125 638.400390625 809.099609375 609.599609375 809.099609375 552 c 128
 809.099609375 494.400390625 780.30078125 465.599609375 722.69921875 465.599609375 c 128
 665.099609375 465.599609375 636.30078125 494.400390625 636.30078125 552 c 128
146.69921875 62.400390625 m 128
 122.701171875 62.400390625 102.298828125 70.80078125 85.5 87.599609375 c 2
 -317.69921875 490.80078125 l 2
 -334.5 507.599609375 -342.900390625 528 -342.900390625 552 c 128
 -342.900390625 576 -334.5 596.400390625 -317.69921875 613.19921875 c 2
 85.5 1016.40039062 l 2
 102.298828125 1033.19921875 122.701171875 1041.59960938 146.69921875 1041.59960938 c 128
 170.69921875 1041.59960938 191.099609375 1033.19921875 207.900390625 1016.40039062 c 128
 224.69921875 999.6015625 233.099609375 979.19921875 233.099609375 955.19921875 c 128
 233.099609375 931.201171875 224.69921875 910.798828125 207.900390625 894 c 2
 -134.099609375 552 l 1
 207.900390625 210 l 2
 224.69921875 193.201171875 233.099609375 172.798828125 233.099609375 148.80078125 c 128
 233.099609375 124.80078125 224.69921875 104.3984375 207.900390625 87.599609375 c 128
 191.099609375 70.80078125 170.69921875 62.400390625 146.69921875 62.400390625 c 128
780.30078125 62.400390625 m 128
 756.30078125 62.400390625 735.900390625 70.80078125 719.099609375 87.599609375 c 128
 702.30078125 104.3984375 693.900390625 124.80078125 693.900390625 148.80078125 c 128
 693.900390625 172.798828125 702.30078125 193.201171875 719.099609375 210 c 2
 1061.09960938 552 l 1
 719.099609375 894 l 2
 702.30078125 910.798828125 693.900390625 931.201171875 693.900390625 955.19921875 c 128
 693.900390625 979.19921875 702.30078125 999.6015625 719.099609375 1016.40039062 c 128
 735.900390625 1033.19921875 756.30078125 1041.59960938 780.30078125 1041.59960938 c 128
 804.298828125 1041.59960938 824.701171875 1033.19921875 841.5 1016.40039062 c 2
 1244.69921875 613.19921875 l 2
 1261.5 596.400390625 1269.90039062 576 1269.90039062 552 c 128
 1269.90039062 528 1261.5 507.599609375 1244.69921875 490.80078125 c 2
 841.5 87.599609375 l 2
 824.701171875 70.80078125 804.298828125 62.400390625 780.30078125 62.400390625 c 128
EndSplineSet
EndChar

StartChar: uniF442
Encoding: 62530 62530 52
Width: 1338
VWidth: 1704
Flags: HW
LayerCount: 2
Fore
SplineSet
734 1300.80078125 m 1
 734 897.599609375 l 1
 100.400390625 897.599609375 l 1
 100.400390625 494.400390625 l 1
 -302.80078125 494.400390625 l 1
 -302.80078125 1300.80078125 l 1
 734 1300.80078125 l 1
158 840 m 1
 1194.80078125 840 l 1
 1194.80078125 33.599609375 l 1
 1022 33.599609375 l 1
 1022 -196.80078125 l 1
 975.19921875 -196.80078125 l 1
 744.80078125 33.599609375 l 1
 158 33.599609375 l 1
 158 840 l 1
EndSplineSet
EndChar

StartChar: uniF443
Encoding: 62531 62531 53
Width: 1194
VWidth: 1682
Flags: HW
LayerCount: 2
Fore
SplineSet
-293.19921875 12.80078125 m 1
 -293.19921875 128 l 2
 -293.19921875 334.400390625 -234.400390625 497.599609375 -116.80078125 617.599609375 c 0
 3.201171875 742.400390625 174.80078125 809.6015625 398 819.19921875 c 1
 398 1107.19921875 l 1
 1089.19921875 646.400390625 l 1
 398 185.599609375 l 1
 398 473.599609375 l 1
 287.599609375 471.201171875 183.201171875 447.19921875 84.80078125 401.599609375 c 0
 -8.80078125 358.400390625 -98.80078125 266 -185.19921875 124.400390625 c 2
 -257.19921875 12.80078125 l 1
 -293.19921875 12.80078125 l 1
EndSplineSet
EndChar

StartChar: uniF444
Encoding: 62532 62532 54
Width: 1321
VWidth: 1704
Flags: HW
LayerCount: 2
Fore
SplineSet
440.5 1300.80078125 m 128
 646.900390625 1300.80078125 823.30078125 1227.59960938 969.69921875 1081.19921875 c 128
 1116.09960938 934.80078125 1189.30078125 758.400390625 1189.30078125 552 c 128
 1189.30078125 345.599609375 1116.09960938 169.19921875 969.69921875 22.80078125 c 128
 823.30078125 -123.599609375 646.900390625 -196.80078125 440.5 -196.80078125 c 128
 234.099609375 -196.80078125 57.69921875 -123.599609375 -88.69921875 22.80078125 c 128
 -235.099609375 169.19921875 -308.30078125 345.599609375 -308.30078125 552 c 128
 -308.30078125 758.400390625 -235.099609375 934.80078125 -88.69921875 1081.19921875 c 128
 57.69921875 1227.59960938 234.099609375 1300.80078125 440.5 1300.80078125 c 128
440.5 -135.599609375 m 128
 630.099609375 -135.599609375 792.099609375 -68.400390625 926.5 66 c 128
 1060.90039062 200.400390625 1128.09960938 362.400390625 1128.09960938 552 c 128
 1128.09960938 741.599609375 1060.90039062 903.599609375 926.5 1038 c 128
 792.099609375 1172.40039062 630.099609375 1239.59960938 440.5 1239.59960938 c 128
 250.900390625 1239.59960938 88.900390625 1172.40039062 -45.5 1038 c 128
 -179.900390625 903.599609375 -247.099609375 741.599609375 -247.099609375 552 c 128
 -247.099609375 362.400390625 -179.900390625 200.400390625 -45.5 66 c 128
 88.900390625 -68.400390625 250.900390625 -135.599609375 440.5 -135.599609375 c 128
440.5 1128 m 128
 598.900390625 1128 734.5 1071.6015625 847.30078125 958.80078125 c 128
 960.1015625 846 1016.5 710.400390625 1016.5 552 c 128
 1016.5 393.599609375 960.1015625 258 847.30078125 145.19921875 c 128
 734.5 32.3984375 598.900390625 -24 440.5 -24 c 128
 282.099609375 -24 146.5 32.3984375 33.69921875 145.19921875 c 128
 -79.1015625 258 -135.5 393.599609375 -135.5 552 c 128
 -135.5 710.400390625 -79.1015625 846 33.69921875 958.80078125 c 128
 146.5 1071.6015625 282.099609375 1128 440.5 1128 c 128
EndSplineSet
EndChar

StartChar: uniF445
Encoding: 62533 62533 55
Width: 1261
VWidth: 1704
Flags: HW
LayerCount: 2
Fore
SplineSet
1072.09960938 1243.19921875 m 2
 1098.5 1243.19921875 1111.69921875 1230 1111.69921875 1203.59960938 c 2
 1111.69921875 -99.599609375 l 2
 1111.69921875 -126 1098.5 -139.19921875 1072.09960938 -139.19921875 c 2
 -231.099609375 -139.19921875 l 2
 -257.5 -139.19921875 -270.69921875 -126 -270.69921875 -99.599609375 c 2
 -270.69921875 1203.59960938 l 2
 -270.69921875 1230 -257.5 1243.19921875 -231.099609375 1243.19921875 c 2
 1072.09960938 1243.19921875 l 2
EndSplineSet
EndChar

StartChar: uniF45E
Encoding: 62558 62558 56
Width: 1395
VWidth: 1704
Flags: HW
LayerCount: 2
Fore
SplineSet
1257 948 m 2
 1266.59960938 938.400390625 1271.40039062 926.400390625 1271.40039062 912 c 0
 1271.40039062 895.201171875 1266.59960938 882 1257 872.400390625 c 2
 490.19921875 105.599609375 l 2
 480.6015625 96 468.599609375 91.19921875 454.19921875 91.19921875 c 1
 447 91.19921875 l 2
 435 91.19921875 424.19921875 96 414.599609375 105.599609375 c 2
 -10.19921875 534 l 2
 -34.19921875 560.400390625 -34.19921875 585.599609375 -10.19921875 609.599609375 c 2
 115.80078125 735.599609375 l 2
 125.3984375 745.19921875 137.400390625 750 151.80078125 750 c 0
 168.599609375 750 181.80078125 745.19921875 191.400390625 735.599609375 c 2
 454.19921875 472.80078125 l 1
 1055.40039062 1074 l 2
 1067.40039062 1086 1079.40039062 1092 1091.40039062 1092 c 0
 1105.80078125 1092 1119 1086 1131 1074 c 2
 1257 948 l 2
1210.19921875 688.80078125 m 1
 1210.19921875 685.19921875 l 1
 1251 644.3984375 1271.40039062 600 1271.40039062 552 c 0
 1271.40039062 508.80078125 1251 464.3984375 1210.19921875 418.80078125 c 2
 598.19921875 -200.400390625 l 2
 562.19921875 -236.400390625 517.19921875 -254.400390625 463.19921875 -254.400390625 c 128
 409.19921875 -254.400390625 364.19921875 -236.400390625 328.19921875 -200.400390625 c 2
 -287.400390625 418.80078125 l 2
 -323.400390625 454.80078125 -341.400390625 499.201171875 -341.400390625 552 c 128
 -341.400390625 604.798828125 -323.400390625 649.19921875 -287.400390625 685.19921875 c 2
 328.19921875 1304.40039062 l 2
 364.19921875 1340.40039062 409.798828125 1358.40039062 465 1358.40039062 c 0
 517.798828125 1358.40039062 562.19921875 1340.40039062 598.19921875 1304.40039062 c 2
 875.400390625 1023.59960938 l 1
 457.80078125 606 l 1
 259.80078125 804 l 2
 231 832.80078125 196.201171875 847.19921875 155.400390625 847.19921875 c 128
 114.599609375 847.19921875 79.80078125 832.80078125 51 804 c 2
 -75 678 l 2
 -103.80078125 649.19921875 -118.19921875 614.400390625 -118.19921875 573.599609375 c 128
 -118.19921875 532.798828125 -103.80078125 498 -75 469.19921875 c 2
 353.400390625 40.80078125 l 2
 375 19.19921875 397.80078125 4.80078125 421.80078125 -2.400390625 c 2
 429 -2.400390625 l 1
 457.80078125 -2.400390625 l 2
 498.6015625 -2.400390625 533.400390625 12 562.19921875 40.80078125 c 2
 1210.19921875 688.80078125 l 1
EndSplineSet
EndChar

StartChar: uniF461
Encoding: 62561 62561 57
Width: 743
VWidth: 1704
Flags: HW
LayerCount: 2
Fore
SplineSet
564.80078125 1243.19921875 m 2
 584 1243.19921875 593.599609375 1233.6015625 593.599609375 1214.40039062 c 2
 593.599609375 1012.80078125 l 1
 -97.599609375 1012.80078125 l 1
 -97.599609375 1214.40039062 l 2
 -97.599609375 1233.6015625 -88 1243.19921875 -68.80078125 1243.19921875 c 2
 564.80078125 1243.19921875 l 2
-97.599609375 -139.19921875 m 1
 -97.599609375 955.19921875 l 1
 593.599609375 955.19921875 l 1
 593.599609375 -139.19921875 l 1
 248 206.400390625 l 1
 -97.599609375 -139.19921875 l 1
EndSplineSet
EndChar

StartChar: uniF460
Encoding: 62560 62560 58
Width: 847
VWidth: 1702
Flags: HW
LayerCount: 2
Fore
SplineSet
435.5 552.952148438 m 1
 -165.69921875 1179.35253906 l 2
 -184.900390625 1198.55175781 -184.900390625 1217.75292969 -165.69921875 1236.95214844 c 2
 -57.69921875 1344.95214844 l 2
 -36.099609375 1364.15332031 -16.900390625 1365.35253906 -0.099609375 1348.55175781 c 2
 734.30078125 581.752929688 l 2
 741.5 574.551757812 745.099609375 564.952148438 745.099609375 552.952148438 c 128
 745.099609375 540.954101562 741.5 531.352539062 734.30078125 524.151367188 c 2
 -0.099609375 -242.647460938 l 2
 -19.30078125 -261.846679688 -38.5 -261.846679688 -57.69921875 -242.647460938 c 2
 -165.69921875 -131.047851562 l 2
 -184.900390625 -111.846679688 -184.900390625 -92.6474609375 -165.69921875 -73.4482421875 c 2
 435.5 552.952148438 l 1
EndSplineSet
EndChar

StartChar: uniF47B
Encoding: 62587 62587 59
Width: 1360
VWidth: 1702
Flags: HW
LayerCount: 2
Fore
SplineSet
453.5 704.5 m 1
 -172.900390625 103.30078125 l 2
 -192.1015625 84.099609375 -211.298828125 84.099609375 -230.5 103.30078125 c 2
 -342.099609375 211.30078125 l 2
 -361.30078125 230.5 -361.30078125 249.69921875 -342.099609375 268.900390625 c 2
 424.69921875 1003.30078125 l 2
 431.900390625 1010.5 441.5 1014.09960938 453.5 1014.09960938 c 128
 465.5 1014.09960938 475.099609375 1010.5 482.30078125 1003.30078125 c 2
 1249.09960938 268.900390625 l 2
 1268.30078125 249.69921875 1268.30078125 230.5 1249.09960938 211.30078125 c 2
 1137.5 103.30078125 l 2
 1118.29882812 84.099609375 1099.1015625 84.099609375 1079.90039062 103.30078125 c 2
 453.5 704.5 l 1
EndSplineSet
EndChar

StartChar: uniF47C
Encoding: 62588 62588 60
Width: 1357
VWidth: 1701
Flags: HW
LayerCount: 2
Fore
SplineSet
452.5 399.5 m 1
 1078.90039062 1000.69921875 l 2
 1098.1015625 1019.90039062 1117.29882812 1019.90039062 1136.5 1000.69921875 c 2
 1248.09960938 892.69921875 l 2
 1267.30078125 873.5 1267.30078125 854.30078125 1248.09960938 835.099609375 c 2
 481.30078125 100.69921875 l 2
 474.099609375 93.5 464.5 89.900390625 452.5 89.900390625 c 128
 440.5 89.900390625 430.900390625 93.5 423.69921875 100.69921875 c 2
 -343.099609375 835.099609375 l 2
 -362.30078125 854.30078125 -362.30078125 873.5 -343.099609375 892.69921875 c 2
 -231.5 1000.69921875 l 2
 -212.298828125 1019.90039062 -193.1015625 1019.90039062 -173.900390625 1000.69921875 c 2
 452.5 399.5 l 1
EndSplineSet
EndChar

StartChar: uniF47D
Encoding: 62589 62589 61
Width: 847
VWidth: 1702
Flags: HW
LayerCount: 2
Fore
SplineSet
129.5 552.952148438 m 1
 730.69921875 -73.4482421875 l 2
 749.900390625 -92.6474609375 749.900390625 -111.846679688 730.69921875 -131.047851562 c 2
 622.69921875 -242.647460938 l 2
 603.5 -261.846679688 584.30078125 -261.846679688 565.099609375 -242.647460938 c 2
 -169.30078125 524.151367188 l 2
 -176.5 531.352539062 -180.099609375 540.954101562 -180.099609375 552.952148438 c 128
 -180.099609375 564.952148438 -176.5 574.551757812 -169.30078125 581.752929688 c 2
 565.099609375 1348.55175781 l 2
 581.900390625 1365.35253906 601.099609375 1364.15332031 622.69921875 1344.95214844 c 2
 730.69921875 1236.95214844 l 2
 749.900390625 1217.75292969 749.900390625 1198.55175781 730.69921875 1179.35253906 c 2
 129.5 552.952148438 l 1
EndSplineSet
EndChar

StartChar: uniF466
Encoding: 62566 62566 62
Width: 1407
VWidth: 1704
Flags: HW
LayerCount: 2
Fore
SplineSet
469 692.400390625 m 1
 638.19921875 876 l 1
 638.19921875 228 l 1
 469 411.599609375 l 1
 235 411.599609375 l 1
 235 692.400390625 l 1
 469 692.400390625 l 1
857.80078125 1257.59960938 m 1
 985 1188 1086.40039062 1090.19921875 1162 964.19921875 c 128
 1237.59960938 838.19921875 1275.40039062 700.80078125 1275.40039062 552 c 0
 1275.40039062 328.80078125 1196.79882812 138.599609375 1039.59960938 -18.599609375 c 128
 882.400390625 -175.798828125 692.19921875 -254.400390625 469 -254.400390625 c 0
 332.19921875 -254.400390625 202.599609375 -222 80.19921875 -157.19921875 c 1
 76.599609375 -153.599609375 l 1
 -48.19921875 -84 -148.400390625 13.80078125 -224 139.80078125 c 128
 -299.599609375 265.80078125 -337.400390625 403.19921875 -337.400390625 552 c 0
 -337.400390625 775.19921875 -258.798828125 965.400390625 -101.599609375 1122.59960938 c 128
 55.599609375 1279.79882812 245.80078125 1358.40039062 469 1358.40039062 c 0
 605.80078125 1358.40039062 734.19921875 1324.79882812 854.19921875 1257.59960938 c 1
 857.80078125 1257.59960938 l 1
965.80078125 195.599609375 m 1
 1045 306 1084.59960938 424.798828125 1084.59960938 552 c 0
 1084.59960938 669.599609375 1054 777 992.80078125 874.19921875 c 128
 931.599609375 971.400390625 851.80078125 1045.19921875 753.400390625 1095.59960938 c 0
 719.798828125 1112.40039062 699.400390625 1122 692.19921875 1124.40039062 c 0
 620.19921875 1150.80078125 545.80078125 1164 469 1164 c 0
 339.400390625 1164 220.599609375 1125.6015625 112.599609375 1048.80078125 c 1
 375.400390625 782.400390625 l 1
 101.80078125 782.400390625 l 1
 -27.80078125 908.400390625 l 1
 -104.6015625 800.400390625 -143 681.599609375 -143 552 c 0
 -143 436.80078125 -113.6015625 331.19921875 -54.80078125 235.19921875 c 128
 4 139.201171875 82.599609375 64.798828125 181 12 c 0
 219.3984375 -7.201171875 242.19921875 -18 249.400390625 -20.400390625 c 0
 321.400390625 -46.80078125 394.599609375 -60 469 -60 c 0
 601 -60 721 -21.6015625 829 55.19921875 c 1
 757 127.19921875 l 1
 757 404.400390625 l 1
 965.80078125 195.599609375 l 1
EndSplineSet
EndChar

StartChar: uniF467
Encoding: 62567 62567 63
Width: 1189
VWidth: 1704
Flags: HW
LayerCount: 2
Fore
SplineSet
1073.30078125 80.400390625 m 2
 1082.90039062 70.80078125 1087.69921875 58.80078125 1087.69921875 44.400390625 c 128
 1087.69921875 30 1082.90039062 18 1073.30078125 8.400390625 c 2
 936.5 -124.80078125 l 2
 926.900390625 -134.400390625 916.1015625 -139.19921875 904.099609375 -139.19921875 c 0
 889.69921875 -139.19921875 877.69921875 -134.400390625 868.099609375 -124.80078125 c 2
 396.5 346.80078125 l 1
 -75.099609375 -124.80078125 l 2
 -84.69921875 -134.400390625 -95.5 -139.19921875 -107.5 -139.19921875 c 0
 -121.900390625 -139.19921875 -133.900390625 -134.400390625 -143.5 -124.80078125 c 2
 -280.30078125 8.400390625 l 2
 -289.900390625 18 -294.69921875 30 -294.69921875 44.400390625 c 128
 -294.69921875 58.80078125 -289.900390625 70.80078125 -280.30078125 80.400390625 c 2
 194.900390625 552 l 1
 -280.30078125 1020 l 2
 -304.298828125 1044 -304.298828125 1068 -280.30078125 1092 c 2
 -147.099609375 1228.80078125 l 2
 -132.69921875 1238.40039062 -120.69921875 1243.19921875 -111.099609375 1243.19921875 c 0
 -96.69921875 1243.19921875 -84.69921875 1238.40039062 -75.099609375 1228.80078125 c 2
 396.5 760.80078125 l 1
 868.099609375 1228.80078125 l 2
 882.5 1238.40039062 894.5 1243.19921875 904.099609375 1243.19921875 c 0
 918.5 1243.19921875 930.5 1238.40039062 940.099609375 1228.80078125 c 2
 1073.30078125 1092 l 2
 1097.29882812 1068 1097.29882812 1045.19921875 1073.30078125 1023.59960938 c 2
 598.099609375 555.599609375 l 1
 1073.30078125 80.400390625 l 2
EndSplineSet
EndChar

StartChar: uniF46A
Encoding: 62570 62570 64
Width: 1384
VWidth: 1704
Flags: HW
LayerCount: 2
Fore
SplineSet
922.30078125 206.400390625 m 1
 547.900390625 609.599609375 l 1
 814.30078125 609.599609375 l 1
 802.298828125 727.19921875 751.30078125 823.80078125 661.30078125 899.400390625 c 128
 571.30078125 975 466.30078125 1012.80078125 346.30078125 1012.80078125 c 0
 219.099609375 1012.80078125 110.5 967.80078125 20.5 877.80078125 c 128
 -69.5 787.80078125 -114.5 679.201171875 -114.5 552 c 128
 -114.5 424.798828125 -69.5 316.19921875 20.5 226.19921875 c 128
 110.5 136.19921875 219.099609375 91.19921875 346.30078125 91.19921875 c 0
 447.099609375 91.19921875 537.099609375 120 616.30078125 177.599609375 c 2
 637.900390625 195.599609375 l 1
 792.69921875 30 l 1
 767.5 8.400390625 l 2
 642.701171875 -90 502.30078125 -139.19921875 346.30078125 -139.19921875 c 0
 183.099609375 -139.19921875 39.099609375 -88.80078125 -85.69921875 12 c 128
 -210.5 112.80078125 -290.900390625 241.19921875 -326.900390625 397.19921875 c 1
 -326.900390625 400.80078125 l 1
 -330.5 408 l 1
 -330.5 408 -330.5 408 -330.5 411.599609375 c 256
 -330.5 415.19921875 -330.5 415.19921875 -330.5 417 c 128
 -330.5 418.201171875 -331.099609375 419.3984375 -332.30078125 420.599609375 c 128
 -333.5 421.80078125 -334.099609375 423.599609375 -334.099609375 426 c 128
 -334.099609375 429.599609375 -334.099609375 429.599609375 -334.099609375 429.599609375 c 257
 -334.099609375 429.599609375 -334.099609375 429.599609375 -334.099609375 433.19921875 c 256
 -334.099609375 435.599609375 -334.69921875 438 -335.900390625 440.400390625 c 128
 -337.1015625 442.798828125 -337.69921875 445.201171875 -337.69921875 447.599609375 c 0
 -340.099609375 471.599609375 -342.5 494.400390625 -344.900390625 516 c 2
 -344.900390625 519.599609375 l 2
 -344.900390625 530.400390625 -344.900390625 530.400390625 -344.900390625 534 c 0
 -344.900390625 541.19921875 -344.900390625 541.19921875 -344.900390625 552 c 0
 -344.900390625 555.599609375 -344.900390625 555.599609375 -344.900390625 561 c 128
 -344.900390625 566.400390625 -344.900390625 566.400390625 -344.900390625 570 c 128
 -344.900390625 573.599609375 -344.900390625 573.599609375 -344.900390625 577.19921875 c 128
 -344.900390625 580.80078125 -344.900390625 580.80078125 -344.900390625 584.400390625 c 2
 -344.900390625 588 l 2
 -342.5 612 -340.099609375 634.80078125 -337.69921875 656.400390625 c 0
 -337.69921875 658.798828125 -337.1015625 661.201171875 -335.900390625 663.599609375 c 128
 -334.69921875 666 -334.099609375 668.400390625 -334.099609375 670.80078125 c 256
 -334.099609375 674.400390625 -334.099609375 674.400390625 -334.099609375 674.400390625 c 257
 -334.099609375 674.400390625 -334.099609375 674.400390625 -334.099609375 678 c 128
 -334.099609375 680.400390625 -333.5 682.19921875 -332.30078125 683.400390625 c 128
 -331.099609375 684.6015625 -330.5 685.798828125 -330.5 687 c 128
 -330.5 688.80078125 -330.5 688.80078125 -330.5 692.400390625 c 256
 -330.5 696 -330.5 696 -330.5 696 c 2
 -328.1015625 700.80078125 -326.900390625 704.400390625 -326.900390625 706.80078125 c 0
 -290.900390625 862.80078125 -210.5 991.19921875 -85.69921875 1092 c 128
 39.099609375 1192.80078125 183.099609375 1243.19921875 346.30078125 1243.19921875 c 1
 384.69921875 1243.19921875 421.900390625 1239.59960938 457.900390625 1232.40039062 c 0
 461.5 1232.40039062 461.5 1232.40039062 465.099609375 1232.40039062 c 2
 465.099609375 1232.40039062 465.099609375 1232.40039062 466.900390625 1232.40039062 c 128
 468.69921875 1232.40039062 468.69921875 1232.40039062 472.30078125 1232.40039062 c 0
 573.099609375 1213.19921875 665.5 1173 749.5 1111.80078125 c 128
 833.5 1050.59960938 900.69921875 975.599609375 951.099609375 886.80078125 c 0
 999.1015625 800.400390625 1026.69921875 708 1033.90039062 609.599609375 c 1
 1267.90039062 609.599609375 l 1
 922.30078125 206.400390625 l 1
EndSplineSet
EndChar

StartChar: uniF46F
Encoding: 62575 62575 65
Width: 1377
VWidth: 1702
Flags: HW
LayerCount: 2
Fore
SplineSet
887.400390625 1018.38769531 m 1
 865.80078125 960.788085938 832.19921875 909.186523438 786.599609375 863.588867188 c 0
 697.80078125 774.788085938 588.599609375 730.387695312 459 730.387695312 c 128
 329.400390625 730.387695312 220.19921875 774.788085938 131.400390625 863.588867188 c 0
 85.80078125 909.186523438 52.19921875 960.788085938 30.599609375 1018.38769531 c 1
 143.400390625 1169.58886719 286.19921875 1245.18847656 459 1245.18847656 c 128
 631.80078125 1245.18847656 774.599609375 1169.58886719 887.400390625 1018.38769531 c 1
-5.400390625 960.788085938 m 1
 35.400390625 879.188476562 94.80078125 811.987304688 172.80078125 759.188476562 c 128
 250.798828125 706.387695312 336.599609375 677.588867188 430.19921875 672.788085938 c 1
 430.19921875 -137.211914062 l 1
 283.80078125 -130.012695312 159 -65.2119140625 55.80078125 57.1884765625 c 1
 31.80078125 37.9873046875 16.19921875 19.9873046875 9 3.1884765625 c 1
 40.19921875 -32.8115234375 39 -70.0126953125 5.400390625 -108.411132812 c 0
 -33 -151.612304688 -73.80078125 -154.010742188 -117 -115.612304688 c 128
 -160.19921875 -77.2119140625 -162.599609375 -36.4111328125 -124.19921875 6.7880859375 c 2
 -113.400390625 17.5888671875 l 1
 -106.19921875 21.1884765625 l 1
 -91.80078125 69.1884765625 -59.400390625 112.387695312 -9 150.788085938 c 1
 -69 253.987304688 -103.80078125 361.987304688 -113.400390625 474.788085938 c 0
 -118.201171875 474.788085938 -138.599609375 471.188476562 -174.599609375 463.987304688 c 1
 -179.400390625 408.788085938 -208.201171875 381.188476562 -261 381.188476562 c 0
 -285 381.188476562 -305.400390625 389.588867188 -322.19921875 406.387695312 c 128
 -339 423.186523438 -347.400390625 443.588867188 -347.400390625 467.588867188 c 128
 -347.400390625 491.586914062 -339 511.989257812 -322.19921875 528.788085938 c 128
 -305.400390625 545.586914062 -285 553.987304688 -261 553.987304688 c 2
 -250.19921875 553.987304688 l 1
 -207 575.588867188 l 2
 -173.400390625 585.186523438 -143.400390625 589.987304688 -117 589.987304688 c 1
 -114.6015625 666.788085938 -99 744.788085938 -70.19921875 823.987304688 c 1
 -99 843.188476562 -117 856.387695312 -124.19921875 863.588867188 c 0
 -143.400390625 877.987304688 -160.19921875 900.788085938 -174.599609375 931.987304688 c 0
 -179.400390625 931.987304688 -184.19921875 934.387695312 -189 939.188476562 c 0
 -237 963.186523438 -247.80078125 1002.78808594 -221.400390625 1057.98730469 c 0
 -197.400390625 1105.98925781 -157.80078125 1116.78808594 -102.599609375 1090.38769531 c 0
 -57 1063.98730469 -45 1026.78808594 -66.599609375 978.788085938 c 0
 -64.201171875 973.987304688 -61.798828125 967.987304688 -59.400390625 960.788085938 c 2
 -52.19921875 949.987304688 l 2
 -49.80078125 947.588867188 -45 944.588867188 -37.80078125 940.987304688 c 128
 -30.599609375 937.387695312 -25.798828125 934.387695312 -23.400390625 931.987304688 c 1
 -21 936.788085938 -18 941.586914062 -14.400390625 946.387695312 c 128
 -10.80078125 951.188476562 -7.798828125 955.987304688 -5.400390625 960.788085938 c 1
1179 553.987304688 m 2
 1203 553.987304688 1223.40039062 545.586914062 1240.19921875 528.788085938 c 128
 1257 511.989257812 1265.40039062 491.586914062 1265.40039062 467.588867188 c 128
 1265.40039062 443.588867188 1257 423.186523438 1240.19921875 406.387695312 c 128
 1223.40039062 389.588867188 1203 381.188476562 1179 381.188476562 c 0
 1126.20117188 381.188476562 1097.40039062 408.788085938 1092.59960938 463.987304688 c 1
 1056.59960938 471.188476562 1036.20117188 474.788085938 1031.40039062 474.788085938 c 0
 1021.80078125 361.987304688 987 253.987304688 927 150.788085938 c 1
 977.400390625 112.387695312 1009.80078125 69.1884765625 1024.19921875 21.1884765625 c 0
 1026.59960938 21.1884765625 1029 19.9873046875 1031.40039062 17.5888671875 c 2
 1042.19921875 6.7880859375 l 2
 1080.59960938 -36.4111328125 1078.19921875 -77.2119140625 1035 -115.612304688 c 128
 991.80078125 -154.010742188 951 -151.612304688 912.599609375 -108.411132812 c 0
 879 -70.0126953125 877.80078125 -32.8115234375 909 3.1884765625 c 1
 901.80078125 19.9873046875 886.19921875 37.9873046875 862.19921875 57.1884765625 c 1
 759 -65.2119140625 634.19921875 -130.012695312 487.80078125 -137.211914062 c 1
 487.80078125 672.788085938 l 1
 581.400390625 677.588867188 667.201171875 706.387695312 745.19921875 759.188476562 c 128
 823.19921875 811.987304688 882.599609375 879.188476562 923.400390625 960.788085938 c 1
 925.798828125 955.987304688 928.80078125 951.188476562 932.400390625 946.387695312 c 128
 936 941.586914062 939 936.788085938 941.400390625 931.987304688 c 1
 943.798828125 934.387695312 948.599609375 937.387695312 955.80078125 940.987304688 c 128
 963 944.588867188 967.80078125 947.588867188 970.19921875 949.987304688 c 2
 977.400390625 960.788085938 l 2
 979.798828125 967.987304688 982.201171875 973.987304688 984.599609375 978.788085938 c 0
 963 1026.78808594 975 1063.98730469 1020.59960938 1090.38769531 c 0
 1075.80078125 1116.78808594 1115.40039062 1105.98925781 1139.40039062 1057.98730469 c 0
 1165.80078125 1002.78808594 1155 963.186523438 1107 939.188476562 c 0
 1102.19921875 934.387695312 1097.40039062 931.987304688 1092.59960938 931.987304688 c 0
 1078.19921875 900.788085938 1061.40039062 877.987304688 1042.19921875 863.588867188 c 0
 1035 856.387695312 1017 843.188476562 988.19921875 823.987304688 c 1
 1017 744.788085938 1032.6015625 666.788085938 1035 589.987304688 c 1
 1061.40039062 589.987304688 1091.40039062 585.186523438 1125 575.588867188 c 2
 1168.19921875 553.987304688 l 1
 1179 553.987304688 l 2
EndSplineSet
EndChar

StartChar: uniF46E
Encoding: 62574 62574 66
Width: 1438
VWidth: 1704
Flags: HW
LayerCount: 2
Fore
SplineSet
1281.05664062 480 m 128
 1312.2578125 448.80078125 1329.05859375 413.400390625 1331.45703125 373.80078125 c 128
 1333.859375 334.19921875 1319.45898438 298.798828125 1288.2578125 267.599609375 c 0
 1024.2578125 -15.599609375 851.458984375 -182.400390625 769.857421875 -232.80078125 c 0
 647.45703125 -324 511.857421875 -369.599609375 363.056640625 -369.599609375 c 0
 250.2578125 -369.599609375 149.458984375 -337.19921875 60.658203125 -272.400390625 c 128
 -28.142578125 -207.599609375 -89.341796875 -123.599609375 -122.943359375 -20.400390625 c 1
 -122.943359375 -16.80078125 l 1
 -126.54296875 -9.599609375 l 1
 -126.54296875 -2.400390625 l 1
 -364.142578125 775.19921875 l 2
 -376.140625 806.400390625 -375.54296875 837 -362.341796875 867 c 128
 -349.140625 897 -326.94140625 916.80078125 -295.7421875 926.400390625 c 128
 -264.541015625 936 -235.142578125 934.19921875 -207.54296875 921 c 128
 -179.94140625 907.80078125 -160.140625 885.599609375 -148.142578125 854.400390625 c 2
 -11.341796875 487.19921875 l 2
 -6.54296875 484.80078125 -2.94140625 487.19921875 -0.54296875 494.400390625 c 2
 -94.142578125 1156.80078125 l 2
 -98.94140625 1188 -92.341796875 1217.40039062 -74.341796875 1245 c 128
 -56.341796875 1272.59960938 -31.7421875 1288.79882812 -0.54296875 1293.59960938 c 128
 30.658203125 1298.40039062 59.458984375 1291.20117188 85.857421875 1272 c 128
 112.2578125 1252.79882812 127.859375 1227.59960938 132.658203125 1196.40039062 c 2
 237.056640625 631.19921875 l 1
 240.658203125 624 l 1
 244.2578125 631.19921875 l 1
 247.857421875 1358.40039062 l 2
 247.857421875 1392 258.658203125 1419.59960938 280.2578125 1441.19921875 c 128
 301.857421875 1462.80078125 329.458984375 1473.59960938 363.056640625 1473.59960938 c 128
 396.658203125 1473.59960938 424.2578125 1462.80078125 445.857421875 1441.19921875 c 128
 467.45703125 1419.59960938 478.2578125 1392 478.2578125 1358.40039062 c 2
 510.658203125 638.400390625 l 2
 510.658203125 628.80078125 512.45703125 624 516.056640625 624 c 128
 519.658203125 624 522.658203125 627.599609375 525.056640625 634.80078125 c 2
 622.2578125 1189.19921875 l 2
 627.05859375 1222.80078125 642.056640625 1249.19921875 667.2578125 1268.40039062 c 128
 692.45703125 1287.6015625 720.658203125 1296 751.857421875 1293.59960938 c 128
 783.05859375 1291.20117188 808.2578125 1276.80078125 827.45703125 1250.40039062 c 128
 846.658203125 1224 853.857421875 1194 849.056640625 1160.40039062 c 2
 762.658203125 454.80078125 l 2
 750.658203125 375.599609375 753.05859375 326.400390625 769.857421875 307.19921875 c 0
 808.2578125 264 851.458984375 266.3984375 899.45703125 314.400390625 c 2
 1072.2578125 487.19921875 l 2
 1103.45898438 518.3984375 1138.2578125 532.798828125 1176.65820312 530.400390625 c 128
 1215.05859375 528 1249.85742188 511.19921875 1281.05664062 480 c 128
EndSplineSet
EndChar

StartChar: uniF46D
Encoding: 62573 62573 67
Width: 1176
VWidth: 1704
Flags: HW
LayerCount: 2
Fore
SplineSet
1083.19921875 436.80078125 m 1
 910.400390625 436.80078125 l 1
 910.400390625 -139.19921875 l 1
 564.80078125 -139.19921875 l 1
 564.80078125 321.599609375 l 1
 219.19921875 321.599609375 l 1
 219.19921875 -139.19921875 l 1
 -126.400390625 -139.19921875 l 1
 -126.400390625 436.80078125 l 1
 -299.19921875 436.80078125 l 1
 392 1243.19921875 l 1
 1083.19921875 436.80078125 l 1
EndSplineSet
EndChar

StartChar: uniF475
Encoding: 62581 62581 68
Width: 1068
VWidth: 1704
Flags: HW
LayerCount: 2
Fore
SplineSet
356 667.19921875 m 128
 389.6015625 667.19921875 417.19921875 656.400390625 438.80078125 634.80078125 c 128
 460.400390625 613.19921875 471.19921875 585.599609375 471.19921875 552 c 128
 471.19921875 518.3984375 460.400390625 490.80078125 438.80078125 469.19921875 c 128
 417.19921875 447.599609375 389.6015625 436.80078125 356 436.80078125 c 128
 322.3984375 436.80078125 294.80078125 447.599609375 273.19921875 469.19921875 c 128
 251.599609375 490.80078125 240.80078125 518.3984375 240.80078125 552 c 128
 240.80078125 585.599609375 251.599609375 613.19921875 273.19921875 634.80078125 c 128
 294.80078125 656.400390625 322.3984375 667.19921875 356 667.19921875 c 128
-104.80078125 667.19921875 m 128
 -71.19921875 667.19921875 -43.599609375 656.400390625 -22 634.80078125 c 128
 -0.400390625 613.19921875 10.400390625 585.599609375 10.400390625 552 c 128
 10.400390625 518.3984375 -0.400390625 490.80078125 -22 469.19921875 c 128
 -43.599609375 447.599609375 -71.19921875 436.80078125 -104.80078125 436.80078125 c 128
 -138.400390625 436.80078125 -166 447.599609375 -187.599609375 469.19921875 c 128
 -209.19921875 490.80078125 -220 518.3984375 -220 552 c 128
 -220 585.599609375 -209.19921875 613.19921875 -187.599609375 634.80078125 c 128
 -166 656.400390625 -138.400390625 667.19921875 -104.80078125 667.19921875 c 128
816.80078125 667.19921875 m 128
 850.400390625 667.19921875 878 656.400390625 899.599609375 634.80078125 c 128
 921.19921875 613.19921875 932 585.599609375 932 552 c 128
 932 518.3984375 921.19921875 490.80078125 899.599609375 469.19921875 c 128
 878 447.599609375 850.400390625 436.80078125 816.80078125 436.80078125 c 128
 783.19921875 436.80078125 755.599609375 447.599609375 734 469.19921875 c 128
 712.400390625 490.80078125 701.599609375 518.3984375 701.599609375 552 c 128
 701.599609375 585.599609375 712.400390625 613.19921875 734 634.80078125 c 128
 755.599609375 656.400390625 783.19921875 667.19921875 816.80078125 667.19921875 c 128
EndSplineSet
EndChar

StartChar: uniF484
Encoding: 62596 62596 69
Width: 1321
VWidth: 1704
Flags: HW
LayerCount: 2
Fore
SplineSet
440.5 1300.80078125 m 1
 646.900390625 1300.80078125 823.30078125 1227.59960938 969.69921875 1081.19921875 c 128
 1116.09960938 934.80078125 1189.30078125 758.400390625 1189.30078125 552 c 128
 1189.30078125 345.599609375 1116.09960938 169.19921875 969.69921875 22.80078125 c 128
 823.30078125 -123.599609375 646.900390625 -196.80078125 440.5 -196.80078125 c 1
 234.099609375 -196.80078125 57.69921875 -123.599609375 -88.69921875 22.80078125 c 128
 -235.099609375 169.19921875 -308.30078125 345.599609375 -308.30078125 552 c 128
 -308.30078125 758.400390625 -235.099609375 934.80078125 -88.69921875 1081.19921875 c 128
 57.69921875 1227.59960938 234.099609375 1300.80078125 440.5 1300.80078125 c 1
440.5 -135.599609375 m 1
 632.5 -135.599609375 795.099609375 -69 928.30078125 64.19921875 c 128
 1061.5 197.400390625 1128.09960938 360 1128.09960938 552 c 128
 1128.09960938 744 1061.5 906.599609375 928.30078125 1039.80078125 c 128
 795.099609375 1173 632.5 1239.59960938 440.5 1239.59960938 c 1
 248.5 1239.59960938 85.900390625 1173 -47.30078125 1039.80078125 c 128
 -180.5 906.599609375 -247.099609375 744 -247.099609375 552 c 0
 -247.099609375 362.400390625 -179.900390625 200.400390625 -45.5 66 c 128
 88.900390625 -68.400390625 250.900390625 -135.599609375 440.5 -135.599609375 c 1
678.099609375 854.400390625 m 1
 697.30078125 780 709.298828125 688.80078125 714.099609375 580.80078125 c 1
 469.30078125 580.80078125 l 1
 469.30078125 825.599609375 l 1
 531.701171875 828 601.298828125 837.6015625 678.099609375 854.400390625 c 1
469.30078125 1178.40039062 m 1
 548.5 1154.40039062 613.30078125 1064.40039062 663.69921875 908.400390625 c 1
 610.900390625 896.400390625 546.1015625 888 469.30078125 883.19921875 c 1
 469.30078125 1178.40039062 l 1
213.69921875 908.400390625 m 1
 261.701171875 1062 327.69921875 1152 411.69921875 1178.40039062 c 1
 411.69921875 883.19921875 l 1
 337.30078125 888 271.30078125 896.400390625 213.69921875 908.400390625 c 1
890.5 994.80078125 m 1
 830.5 963.6015625 772.900390625 939.599609375 717.69921875 922.80078125 c 1
 684.099609375 1030.80078125 640.900390625 1111.20117188 588.099609375 1164 c 1
 705.69921875 1135.19921875 806.5 1078.80078125 890.5 994.80078125 c 1
768.099609375 580.80078125 m 1
 763.298828125 691.19921875 751.30078125 787.201171875 732.099609375 868.80078125 c 1
 794.5 888 859.30078125 915.599609375 926.5 951.599609375 c 1
 1015.29882812 843.599609375 1063.30078125 720 1070.5 580.80078125 c 1
 768.099609375 580.80078125 l 1
166.900390625 580.80078125 m 1
 171.701171875 698.400390625 182.5 789.599609375 199.30078125 854.400390625 c 1
 256.900390625 840 327.69921875 830.400390625 411.69921875 825.599609375 c 1
 411.69921875 580.80078125 l 1
 166.900390625 580.80078125 l 1
714.099609375 523.19921875 m 1
 709.298828125 415.19921875 697.30078125 324 678.099609375 249.599609375 c 1
 620.5 264 550.900390625 273.599609375 469.30078125 278.400390625 c 1
 469.30078125 523.19921875 l 1
 714.099609375 523.19921875 l 1
199.30078125 249.599609375 m 1
 182.5 314.400390625 171.701171875 405.599609375 166.900390625 523.19921875 c 1
 411.69921875 523.19921875 l 1
 411.69921875 278.400390625 l 1
 327.69921875 273.599609375 256.900390625 264 199.30078125 249.599609375 c 1
411.69921875 -74.400390625 m 1
 327.69921875 -48 261.701171875 42 213.69921875 195.599609375 c 1
 271.30078125 207.599609375 337.30078125 216 411.69921875 220.80078125 c 1
 411.69921875 -74.400390625 l 1
588.099609375 -60 m 1
 640.900390625 -7.201171875 684.099609375 73.19921875 717.69921875 181.19921875 c 1
 784.900390625 162 842.5 139.201171875 890.5 112.80078125 c 1
 804.099609375 26.400390625 703.30078125 -31.19921875 588.099609375 -60 c 1
292.900390625 1164 m 1
 242.5 1113.59960938 199.30078125 1033.19921875 163.30078125 922.80078125 c 1
 91.30078125 944.400390625 33.69921875 967.201171875 -9.5 991.19921875 c 1
 72.099609375 1075.20117188 172.8984375 1132.80078125 292.900390625 1164 c 1
732.099609375 235.19921875 m 1
 751.30078125 316.798828125 763.298828125 412.80078125 768.099609375 523.19921875 c 1
 1070.5 523.19921875 l 1
 1063.30078125 384 1015.29882812 260.400390625 926.5 152.400390625 c 1
 859.30078125 188.400390625 794.5 216 732.099609375 235.19921875 c 1
469.30078125 220.80078125 m 1
 546.1015625 216 610.900390625 207.599609375 663.69921875 195.599609375 c 1
 615.69921875 39.599609375 550.900390625 -50.400390625 469.30078125 -74.400390625 c 1
 469.30078125 220.80078125 l 1
148.900390625 868.80078125 m 1
 122.5 763.19921875 109.30078125 667.19921875 109.30078125 580.80078125 c 1
 -189.5 580.80078125 l 1
 -182.30078125 720 -134.298828125 843.599609375 -45.5 951.599609375 c 1
 21.69921875 915.599609375 86.5 888 148.900390625 868.80078125 c 1
109.30078125 523.19921875 m 1
 114.099609375 412.80078125 126.099609375 316.798828125 145.30078125 235.19921875 c 1
 87.69921875 218.400390625 24.099609375 190.798828125 -45.5 152.400390625 c 1
 -134.298828125 260.400390625 -182.30078125 384 -189.5 523.19921875 c 1
 109.30078125 523.19921875 l 1
-9.5 112.80078125 m 1
 33.69921875 136.798828125 91.30078125 159.599609375 163.30078125 181.19921875 c 1
 199.30078125 70.80078125 242.5 -9.599609375 292.900390625 -60 c 1
 172.8984375 -28.80078125 72.099609375 28.798828125 -9.5 112.80078125 c 1
EndSplineSet
EndChar

StartChar: uniF486
Encoding: 62598 62598 70
Width: 1405
VWidth: 1704
Flags: HW
LayerCount: 2
Fore
SplineSet
1181.30078125 8.400390625 m 1
 1094.90039062 -80.400390625 992.900390625 -146.400390625 875.30078125 -189.599609375 c 128
 757.701171875 -232.80078125 631.701171875 -254.400390625 497.30078125 -254.400390625 c 0
 377.298828125 -254.400390625 263.30078125 -234 155.30078125 -193.19921875 c 0
 52.099609375 -154.80078125 -35.5 -99.599609375 -107.5 -27.599609375 c 0
 -181.900390625 46.798828125 -238.30078125 132 -276.69921875 228 c 0
 -317.5 331.19921875 -337.900390625 439.19921875 -337.900390625 552 c 0
 -337.900390625 667.19921875 -316.30078125 774 -273.099609375 872.400390625 c 128
 -229.900390625 970.80078125 -169.900390625 1056 -93.099609375 1128 c 0
 -23.5 1195.19921875 65.30078125 1251.6015625 173.30078125 1297.19921875 c 0
 276.5 1338 384.5 1358.40039062 497.30078125 1358.40039062 c 0
 598.099609375 1358.40039062 695.30078125 1344 788.900390625 1315.19921875 c 128
 882.5 1286.40039062 965.30078125 1243.19921875 1037.30078125 1185.59960938 c 128
 1109.30078125 1128 1166.90039062 1056 1210.09960938 969.599609375 c 128
 1253.30078125 883.19921875 1274.90039062 781.19921875 1274.90039062 663.599609375 c 0
 1274.90039062 572.3984375 1262.90039062 495.599609375 1238.90039062 433.19921875 c 0
 1212.5 363.599609375 1180.09960938 308.400390625 1141.69921875 267.599609375 c 0
 1098.5 222 1052.90039062 188.400390625 1004.90039062 166.80078125 c 0
 949.69921875 142.80078125 895.69921875 130.80078125 842.900390625 130.80078125 c 0
 785.30078125 130.80078125 738.5 145.19921875 702.5 174 c 128
 666.5 202.80078125 648.5 237.599609375 648.5 278.400390625 c 1
 637.69921875 278.400390625 l 1
 616.099609375 242.400390625 582.5 208.798828125 536.900390625 177.599609375 c 128
 491.30078125 146.400390625 436.099609375 130.80078125 371.30078125 130.80078125 c 0
 272.8984375 130.80078125 196.099609375 163.19921875 140.900390625 228 c 0
 85.69921875 295.19921875 58.099609375 380.400390625 58.099609375 483.599609375 c 0
 58.099609375 546 68.900390625 606 90.5 663.599609375 c 0
 112.099609375 723.599609375 140.900390625 776.400390625 176.900390625 822 c 0
 210.5 865.19921875 256.099609375 902.400390625 313.69921875 933.599609375 c 0
 368.900390625 962.400390625 427.69921875 976.80078125 490.099609375 976.80078125 c 0
 538.1015625 976.80078125 583.69921875 964.798828125 626.900390625 940.80078125 c 0
 665.298828125 916.80078125 690.5 888 702.5 854.400390625 c 1
 706.099609375 854.400390625 l 1
 724.099609375 940.80078125 l 1
 918.5 940.80078125 l 1
 832.099609375 534 l 2
 827.298828125 505.19921875 823.69921875 482.3984375 821.30078125 465.599609375 c 0
 816.5 432 814.099609375 409.201171875 814.099609375 397.19921875 c 0
 814.099609375 370.798828125 818.900390625 349.19921875 828.5 332.400390625 c 128
 838.099609375 315.599609375 856.099609375 307.19921875 882.5 307.19921875 c 0
 940.099609375 307.19921875 986.900390625 338.3984375 1022.90039062 400.80078125 c 0
 1061.29882812 465.599609375 1080.5 547.19921875 1080.5 645.599609375 c 0
 1080.5 732 1066.09960938 808.80078125 1037.30078125 876 c 0
 1010.90039062 936 970.1015625 992.400390625 914.900390625 1045.19921875 c 0
 864.5 1093.20117188 802.099609375 1128 727.69921875 1149.59960938 c 0
 655.69921875 1171.19921875 577.701171875 1182 493.69921875 1182 c 0
 397.701171875 1182 313.69921875 1166.40039062 241.69921875 1135.19921875 c 0
 167.30078125 1104 102.5 1058.40039062 47.30078125 998.400390625 c 0
 -10.30078125 936 -52.298828125 868.80078125 -78.69921875 796.80078125 c 0
 -109.900390625 715.201171875 -125.5 632.400390625 -125.5 548.400390625 c 0
 -125.5 447.599609375 -109.900390625 361.19921875 -78.69921875 289.19921875 c 0
 -45.099609375 212.3984375 -0.701171875 147.599609375 54.5 94.80078125 c 0
 114.5 39.599609375 182.8984375 -2.400390625 259.69921875 -31.19921875 c 0
 338.900390625 -60 425.30078125 -74.400390625 518.900390625 -74.400390625 c 0
 631.701171875 -74.400390625 733.69921875 -55.19921875 824.900390625 -16.80078125 c 0
 901.701171875 14.3984375 979.69921875 66 1058.90039062 138 c 1
 1181.30078125 8.400390625 l 1
493.69921875 796.80078125 m 0
 455.30078125 796.80078125 425.30078125 787.201171875 403.69921875 768 c 0
 372.5 741.599609375 349.69921875 715.201171875 335.30078125 688.80078125 c 0
 320.900390625 664.80078125 307.701171875 631.19921875 295.69921875 588 c 0
 286.099609375 556.80078125 281.30078125 520.80078125 281.30078125 480 c 0
 281.30078125 456 282.5 436.80078125 284.900390625 422.400390625 c 0
 287.298828125 403.19921875 294.5 385.19921875 306.5 368.400390625 c 0
 316.099609375 354 330.5 340.80078125 349.69921875 328.80078125 c 128
 368.900390625 316.798828125 391.69921875 310.80078125 418.099609375 310.80078125 c 0
 454.099609375 310.80078125 487.701171875 320.3984375 518.900390625 339.599609375 c 0
 542.900390625 354 565.69921875 379.19921875 587.30078125 415.19921875 c 0
 608.900390625 448.80078125 622.099609375 480 626.900390625 508.80078125 c 0
 634.099609375 544.80078125 637.69921875 577.19921875 637.69921875 606 c 0
 637.69921875 637.19921875 636.5 660 634.099609375 674.400390625 c 0
 631.701171875 691.19921875 623.30078125 711.6015625 608.900390625 735.599609375 c 0
 596.900390625 752.400390625 582.5 766.798828125 565.69921875 778.80078125 c 0
 546.5 790.80078125 522.5 796.80078125 493.69921875 796.80078125 c 0
EndSplineSet
EndChar

StartChar: uniF485
Encoding: 62597 62597 71
Width: 1414
VWidth: 1704
Flags: HW
LayerCount: 2
Fore
SplineSet
381.5 4.80078125 m 1
 39.5 321.599609375 l 1
 -334.900390625 321.599609375 l 1
 -334.900390625 782.400390625 l 1
 39.5 782.400390625 l 1
 381.5 1099.19921875 l 1
 381.5 4.80078125 l 1
583.099609375 192 m 1
 511.099609375 249.599609375 l 1
 575.900390625 340.80078125 608.30078125 441.599609375 608.30078125 552 c 128
 608.30078125 662.3984375 575.900390625 763.19921875 511.099609375 854.400390625 c 1
 583.099609375 912 l 1
 662.30078125 801.6015625 701.900390625 681.599609375 701.900390625 552 c 128
 701.900390625 422.400390625 662.30078125 302.3984375 583.099609375 192 c 1
824.30078125 26.400390625 m 1
 748.69921875 84 l 1
 851.900390625 220.80078125 903.5 376.80078125 903.5 552 c 128
 903.5 727.19921875 851.900390625 883.19921875 748.69921875 1020 c 1
 824.30078125 1077.59960938 l 1
 939.5 919.19921875 997.099609375 744 997.099609375 552 c 128
 997.099609375 360 939.5 184.80078125 824.30078125 26.400390625 c 1
979.099609375 1189.19921875 m 1
 1051.09960938 1243.19921875 l 1
 1202.30078125 1034.40039062 1277.90039062 804 1277.90039062 552 c 128
 1277.90039062 300 1202.30078125 69.599609375 1051.09960938 -139.19921875 c 1
 979.099609375 -85.19921875 l 1
 1118.29882812 104.3984375 1187.90039062 316.798828125 1187.90039062 552 c 128
 1187.90039062 787.201171875 1118.29882812 999.6015625 979.099609375 1189.19921875 c 1
EndSplineSet
EndChar

StartChar: uniF487
Encoding: 62599 62599 72
Width: 1425
VWidth: 1704
Flags: HW
LayerCount: 2
Fore
SplineSet
1234.59960938 868.80078125 m 0
 1246.6015625 868.80078125 1257.40039062 864.6015625 1267 856.19921875 c 128
 1276.59960938 847.798828125 1281.40039062 837.6015625 1281.40039062 825.599609375 c 2
 1281.40039062 166.80078125 l 2
 1281.40039062 135.599609375 1264.6015625 109.19921875 1231 87.599609375 c 1
 1231 84 l 1
 601 -247.19921875 l 1
 601 -250.80078125 l 2
 596.19921875 -253.19921875 589 -254.400390625 579.400390625 -254.400390625 c 0
 567.400390625 -254.400390625 556.599609375 -250.201171875 547 -241.80078125 c 128
 537.400390625 -233.400390625 532.599609375 -223.201171875 532.599609375 -211.19921875 c 2
 532.599609375 454.80078125 l 2
 532.599609375 488.400390625 548.201171875 514.798828125 579.400390625 534 c 2
 590.19921875 541.19921875 l 1
 1209.40039062 861.599609375 l 1
 1216.59960938 865.19921875 l 2
 1221.40039062 867.599609375 1227.40039062 868.80078125 1234.59960938 868.80078125 c 0
1187.80078125 1045.19921875 m 2
 1207 1038 1216.59960938 1027.19921875 1216.59960938 1012.80078125 c 0
 1216.59960938 1005.59960938 1214.20117188 998.400390625 1209.40039062 991.19921875 c 128
 1204.59960938 984 1199.80078125 979.19921875 1195 976.80078125 c 2
 1187.80078125 973.19921875 l 1
 529 624 l 1
 521.80078125 620.400390625 l 2
 507.400390625 613.19921875 491.798828125 609.599609375 475 609.599609375 c 128
 458.201171875 609.599609375 442.599609375 613.19921875 428.19921875 620.400390625 c 2
 421 624 l 1
 -237.80078125 969.599609375 l 2
 -257 981.6015625 -266.599609375 996 -266.599609375 1012.80078125 c 0
 -266.599609375 1020 -264.201171875 1026 -259.400390625 1030.80078125 c 128
 -254.599609375 1035.6015625 -249.80078125 1039.20117188 -245 1041.59960938 c 2
 -237.80078125 1045.19921875 l 1
 413.80078125 1340.40039062 l 2
 440.201171875 1352.40039062 460.599609375 1358.40039062 475 1358.40039062 c 2
 536.19921875 1340.40039062 l 1
 1187.80078125 1045.19921875 l 2
370.599609375 534 m 2
 401.798828125 514.798828125 417.400390625 488.400390625 417.400390625 454.80078125 c 2
 417.400390625 -211.19921875 l 2
 417.400390625 -223.201171875 412.599609375 -233.400390625 403 -241.80078125 c 128
 393.400390625 -250.201171875 382.599609375 -254.400390625 370.599609375 -254.400390625 c 0
 365.798828125 -254.400390625 358.599609375 -252 349 -247.19921875 c 2
 -281 84 l 1
 -281 87.599609375 l 1
 -314.6015625 109.19921875 -331.400390625 135.599609375 -331.400390625 166.80078125 c 2
 -331.400390625 825.599609375 l 2
 -331.400390625 837.6015625 -326.599609375 847.798828125 -317 856.19921875 c 128
 -307.400390625 864.6015625 -296.6015625 868.80078125 -284.599609375 868.80078125 c 0
 -275 868.80078125 -269 867.599609375 -266.599609375 865.19921875 c 2
 -259.400390625 861.599609375 l 1
 356.19921875 541.19921875 l 1
 370.599609375 534 l 2
EndSplineSet
EndChar

StartChar: uniF489
Encoding: 62601 62601 73
Width: 909
VWidth: 1704
Flags: HW
LayerCount: 2
Fore
SplineSet
706.19921875 1070.40039062 m 0
 713.400390625 1070.40039062 723 1071 735 1072.19921875 c 128
 747 1073.40039062 756.599609375 1075.20117188 763.80078125 1077.59960938 c 1
 763.80078125 1020 l 1
 763.80078125 454.80078125 l 2
 756.599609375 452.400390625 747 450.599609375 735 449.400390625 c 128
 723 448.19921875 713.400390625 447.599609375 706.19921875 447.599609375 c 0
 627 440.400390625 580.19921875 436.80078125 565.80078125 436.80078125 c 0
 496.19921875 436.80078125 413.400390625 447.599609375 317.400390625 469.19921875 c 0
 180.599609375 500.3984375 103.798828125 516 87 516 c 0
 12.599609375 516 -49.80078125 507.599609375 -100.19921875 490.80078125 c 1
 -100.19921875 -24 l 1
 -157.80078125 -24 l 1
 -157.80078125 487.19921875 l 1
 -157.80078125 1070.40039062 l 1
 -157.80078125 1077.59960938 l 1
 -147 1088.40039062 l 1
 -94.201171875 1114.80078125 -16.19921875 1128 87 1128 c 0
 151.80078125 1128 232.201171875 1117.19921875 328.19921875 1095.59960938 c 0
 467.400390625 1069.19921875 545.400390625 1056 562.19921875 1056 c 0
 583.80078125 1056 612.599609375 1058.40039062 648.599609375 1063.19921875 c 128
 684.599609375 1068 703.80078125 1070.40039062 706.19921875 1070.40039062 c 0
EndSplineSet
EndChar

StartChar: uniF48E
Encoding: 62606 62606 74
Width: 1091
VWidth: 1704
Flags: HW
LayerCount: 2
Fore
SplineSet
670 1012.80078125 m 1
 997.599609375 1012.80078125 l 1
 997.599609375 897.599609375 l 1
 965.19921875 897.599609375 l 2
 953.19921875 895.201171875 943.599609375 890.400390625 936.400390625 883.19921875 c 2
 922 850.80078125 l 1
 853.599609375 -16.80078125 l 2
 851.201171875 -48 849.400390625 -69.599609375 848.19921875 -81.599609375 c 128
 847 -93.6015625 841.599609375 -105 832 -115.80078125 c 128
 822.400390625 -126.599609375 809.80078125 -133.201171875 794.19921875 -135.599609375 c 128
 778.599609375 -138 755.19921875 -139.19921875 724 -139.19921875 c 2
 4 -139.19921875 l 2
 -27.19921875 -139.19921875 -50.599609375 -138 -66.19921875 -135.599609375 c 128
 -81.80078125 -133.201171875 -94.400390625 -126.599609375 -104 -115.80078125 c 128
 -113.599609375 -105 -119 -93.6015625 -120.19921875 -81.599609375 c 128
 -121.400390625 -69.599609375 -123.201171875 -48 -125.599609375 -16.80078125 c 2
 -194 854.400390625 l 2
 -196.400390625 868.80078125 -201.19921875 879.599609375 -208.400390625 886.80078125 c 2
 -237.19921875 897.599609375 l 1
 -269.599609375 897.599609375 l 1
 -269.599609375 1012.80078125 l 1
 58 1012.80078125 l 1
 58 1117.19921875 l 2
 58 1153.19921875 69.3984375 1183.20117188 92.19921875 1207.19921875 c 128
 115 1231.19921875 144.400390625 1243.19921875 180.400390625 1243.19921875 c 2
 544 1243.19921875 l 2
 580 1243.19921875 610 1230.59960938 634 1205.40039062 c 128
 658 1180.19921875 670 1150.80078125 670 1117.19921875 c 2
 670 1012.80078125 l 1
133.599609375 1117.19921875 m 2
 133.599609375 1012.80078125 l 1
 594.400390625 1012.80078125 l 1
 594.400390625 1117.19921875 l 2
 594.400390625 1153.19921875 571.599609375 1171.19921875 526 1171.19921875 c 2
 198.400390625 1171.19921875 l 2
 155.19921875 1171.19921875 133.599609375 1153.19921875 133.599609375 1117.19921875 c 2
104.80078125 91.19921875 m 1
 176.80078125 91.19921875 l 1
 140.80078125 782.400390625 l 1
 65.19921875 782.400390625 l 1
 104.80078125 91.19921875 l 1
403.599609375 91.19921875 m 1
 403.599609375 782.400390625 l 1
 324.400390625 782.400390625 l 1
 324.400390625 91.19921875 l 1
 403.599609375 91.19921875 l 1
626.80078125 91.19921875 m 1
 662.80078125 782.400390625 l 1
 590.80078125 782.400390625 l 1
 551.19921875 91.19921875 l 1
 626.80078125 91.19921875 l 1
EndSplineSet
EndChar

StartChar: uniF48D
Encoding: 62605 62605 75
Width: 1574
VWidth: 1704
Flags: HW
LayerCount: 2
Fore
SplineSet
1101 1358.40039062 m 1
 1446.59960938 436.80078125 l 1
 1446.59960938 -254.400390625 l 1
 -396.599609375 -254.400390625 l 1
 -396.599609375 436.80078125 l 1
 -51 1358.40039062 l 1
 1101 1358.40039062 l 1
813 436.80078125 m 1
 1216.19921875 436.80078125 l 1
 985.80078125 1214.40039062 l 1
 64.19921875 1214.40039062 l 1
 -166.19921875 436.80078125 l 1
 237 436.80078125 l 1
 237 357.599609375 265.201171875 289.798828125 321.599609375 233.400390625 c 128
 378 177 445.80078125 148.80078125 525 148.80078125 c 128
 604.19921875 148.80078125 672 177 728.400390625 233.400390625 c 128
 784.798828125 289.798828125 813 357.599609375 813 436.80078125 c 1
EndSplineSet
EndChar

StartChar: uniF490
Encoding: 62608 62608 76
Width: 1035
VWidth: 1704
Flags: HW
LayerCount: 2
Fore
SplineSet
838.19921875 616.80078125 m 1
 893.400390625 523.19921875 921 424.798828125 921 321.599609375 c 0
 921 208.798828125 889.80078125 103.201171875 827.400390625 4.80078125 c 1
 709.80078125 -168 549 -254.400390625 345 -254.400390625 c 0
 273 -254.400390625 217.798828125 -246 179.400390625 -229.19921875 c 0
 124.19921875 -205.201171875 84.599609375 -175.19921875 60.599609375 -139.19921875 c 0
 22.201171875 -81.599609375 -3 -19.19921875 -15 48 c 1
 -34.201171875 -28.80078125 -23.400390625 -100.80078125 17.400390625 -168 c 1
 -148.19921875 -67.19921875 -231 82.798828125 -231 282 c 2
 -231 296.400390625 l 2
 -226.19921875 361.19921875 -210.6015625 422.400390625 -184.19921875 480 c 128
 -157.798828125 537.599609375 -129 583.19921875 -97.80078125 616.80078125 c 128
 -66.6015625 650.400390625 -31.19921875 688.80078125 8.400390625 732 c 128
 48 775.19921875 76.201171875 811.19921875 93 840 c 0
 126.599609375 897.599609375 138.599609375 955.19921875 129 1012.80078125 c 1
 165 984 183 937.19921875 183 872.400390625 c 2
 172.19921875 768 l 1
 186.599609375 796.80078125 197.400390625 834 204.599609375 879.599609375 c 0
 233.400390625 1052.40039062 189 1210.80078125 71.400390625 1354.80078125 c 1
 67.80078125 1358.40039062 l 1
 84.599609375 1358.40039062 106.19921875 1354.80078125 132.599609375 1347.59960938 c 0
 303 1318.80078125 449.400390625 1242.6015625 571.80078125 1119 c 128
 694.19921875 995.400390625 768.599609375 848.400390625 795 678 c 0
 802.19921875 634.80078125 805.80078125 592.80078125 805.80078125 552 c 0
 805.80078125 499.201171875 799.80078125 442.798828125 787.80078125 382.80078125 c 1
 816.599609375 447.599609375 833.400390625 513.599609375 838.19921875 580.80078125 c 2
 838.19921875 616.80078125 l 1
EndSplineSet
EndChar

StartChar: uniF496
Encoding: 62614 62614 77
Width: 1236
VWidth: 1701
Flags: HW
LayerCount: 2
Fore
SplineSet
1016.80078125 540.748046875 m 1
 1060 519.1484375 1081.59960938 484.349609375 1081.59960938 436.34765625 c 0
 1081.59960938 383.548828125 1057.6015625 347.548828125 1009.59960938 328.34765625 c 1
 1024 309.1484375 1031.19921875 286.349609375 1031.19921875 259.947265625 c 0
 1031.19921875 207.1484375 1007.20117188 171.1484375 959.19921875 151.947265625 c 1
 971.201171875 132.748046875 977.19921875 112.34765625 977.19921875 90.748046875 c 0
 977.19921875 59.548828125 967.6015625 36.748046875 948.400390625 22.34765625 c 128
 929.19921875 7.947265625 896.798828125 -5.251953125 851.19921875 -17.251953125 c 0
 724 -48.451171875 572.798828125 -59.251953125 397.599609375 -49.65234375 c 0
 373.599609375 -49.65234375 328.599609375 -45.453125 262.599609375 -37.052734375 c 128
 196.599609375 -28.650390625 150.400390625 -24.451171875 124 -24.451171875 c 1
 124 -139.65234375 l 1
 -279.19921875 -139.65234375 l 1
 -279.19921875 724.34765625 l 1
 124 724.34765625 l 1
 124 666.748046875 l 1
 193.599609375 671.548828125 241.599609375 688.34765625 268 717.1484375 c 0
 364 817.947265625 412 947.548828125 412 1105.94726562 c 0
 412 1177.94726562 416.80078125 1218.74804688 426.400390625 1228.34765625 c 0
 450.400390625 1252.34765625 484 1248.74804688 527.19921875 1217.54882812 c 128
 570.400390625 1186.34960938 599.19921875 1145.54882812 613.599609375 1095.1484375 c 0
 620.80078125 1066.34765625 625.6015625 1036.34765625 628 1005.1484375 c 128
 630.400390625 973.94921875 630.400390625 948.1484375 628 927.748046875 c 128
 625.6015625 907.349609375 622 881.546875 617.19921875 850.34765625 c 128
 612.400390625 819.1484375 610 796.34765625 610 781.947265625 c 1
 980.80078125 781.947265625 l 2
 1014.40039062 781.947265625 1043.20117188 769.947265625 1067.19921875 745.947265625 c 128
 1091.19921875 721.94921875 1103.19921875 693.1484375 1103.19921875 659.548828125 c 0
 1103.19921875 597.1484375 1074.40039062 557.546875 1016.80078125 540.748046875 c 1
-106.400390625 -24.451171875 m 128
 -68 -24.451171875 -48.80078125 -5.251953125 -48.80078125 33.1484375 c 128
 -48.80078125 71.546875 -68 90.748046875 -106.400390625 90.748046875 c 128
 -144.798828125 90.748046875 -164 71.546875 -164 33.1484375 c 128
 -164 -5.251953125 -144.798828125 -24.451171875 -106.400390625 -24.451171875 c 128
EndSplineSet
EndChar

StartChar: uniF497
Encoding: 62615 62615 78
Width: 1234
VWidth: 1702
Flags: HW
LayerCount: 2
Fore
SplineSet
-193.30078125 563.251953125 m 1
 -236.5 584.8515625 -258.099609375 619.650390625 -258.099609375 667.65234375 c 0
 -258.099609375 720.451171875 -234.1015625 756.451171875 -186.099609375 775.65234375 c 1
 -200.5 794.8515625 -207.69921875 817.650390625 -207.69921875 844.052734375 c 0
 -207.69921875 896.8515625 -183.701171875 932.8515625 -135.69921875 952.052734375 c 1
 -147.701171875 971.251953125 -153.69921875 991.65234375 -153.69921875 1013.25195312 c 0
 -153.69921875 1044.45117188 -144.1015625 1067.25195312 -124.900390625 1081.65234375 c 128
 -105.69921875 1096.05273438 -73.298828125 1109.25195312 -27.69921875 1121.25195312 c 0
 99.5 1152.45117188 250.701171875 1163.25195312 425.900390625 1153.65234375 c 0
 449.900390625 1153.65234375 494.900390625 1149.453125 560.900390625 1141.05273438 c 128
 626.900390625 1132.65039062 673.099609375 1128.45117188 699.5 1128.45117188 c 1
 699.5 1243.65234375 l 1
 1102.69921875 1243.65234375 l 1
 1102.69921875 379.65234375 l 1
 699.5 379.65234375 l 1
 699.5 437.251953125 l 1
 629.900390625 432.451171875 581.900390625 415.65234375 555.5 386.8515625 c 0
 459.5 286.052734375 411.5 156.451171875 411.5 -1.947265625 c 0
 411.5 -73.947265625 406.69921875 -114.748046875 397.099609375 -124.34765625 c 0
 373.099609375 -148.34765625 339.5 -144.748046875 296.30078125 -113.548828125 c 128
 253.099609375 -82.349609375 224.30078125 -41.548828125 209.900390625 8.8515625 c 0
 202.69921875 37.65234375 197.8984375 67.65234375 195.5 98.8515625 c 128
 193.099609375 130.05078125 193.099609375 155.8515625 195.5 176.251953125 c 128
 197.8984375 196.650390625 201.5 222.453125 206.30078125 253.65234375 c 128
 211.099609375 284.8515625 213.5 307.65234375 213.5 322.052734375 c 1
 -157.30078125 322.052734375 l 2
 -190.900390625 322.052734375 -219.701171875 334.052734375 -243.69921875 358.052734375 c 128
 -267.69921875 382.05078125 -279.69921875 410.8515625 -279.69921875 444.451171875 c 0
 -279.69921875 506.8515625 -250.900390625 546.453125 -193.30078125 563.251953125 c 1
929.900390625 1128.45117188 m 128
 891.5 1128.45117188 872.30078125 1109.25195312 872.30078125 1070.8515625 c 128
 872.30078125 1032.453125 891.5 1013.25195312 929.900390625 1013.25195312 c 128
 968.298828125 1013.25195312 987.5 1032.453125 987.5 1070.8515625 c 128
 987.5 1109.25195312 968.298828125 1128.45117188 929.900390625 1128.45117188 c 128
EndSplineSet
EndChar

StartChar: uniF499
Encoding: 62617 62617 79
Width: 1180
VWidth: 1704
Flags: HW
LayerCount: 2
Fore
SplineSet
1052.30078125 48 m 2
 1073.90039062 16.80078125 1084.69921875 -21.6015625 1084.69921875 -67.19921875 c 0
 1084.69921875 -192 1009.09960938 -254.400390625 857.900390625 -254.400390625 c 2
 -70.900390625 -254.400390625 l 2
 -222.099609375 -254.400390625 -297.69921875 -192 -297.69921875 -67.19921875 c 0
 -297.69921875 -24 -286.900390625 14.3984375 -265.30078125 48 c 2
 -88.900390625 310.80078125 l 1
 83.900390625 573.599609375 l 1
 91.099609375 584.400390625 l 2
 139.099609375 658.798828125 163.099609375 744 163.099609375 840 c 2
 163.099609375 1171.19921875 l 2
 163.099609375 1197.6015625 154.099609375 1225.79882812 136.099609375 1255.80078125 c 128
 118.099609375 1285.80078125 109.099609375 1304.40039062 109.099609375 1311.59960938 c 0
 109.099609375 1342.79882812 127.099609375 1358.40039062 163.099609375 1358.40039062 c 2
 620.30078125 1358.40039062 l 2
 658.69921875 1358.40039062 677.900390625 1344 677.900390625 1315.19921875 c 0
 677.900390625 1308 668.900390625 1288.79882812 650.900390625 1257.59960938 c 128
 632.900390625 1226.40039062 623.900390625 1197.6015625 623.900390625 1171.19921875 c 2
 623.900390625 840 l 2
 623.900390625 739.19921875 646.701171875 654 692.30078125 584.400390625 c 2
 703.099609375 570 l 1
 875.900390625 310.80078125 l 1
 1052.30078125 48 l 2
944.30078125 -114 m 128
 961.099609375 -97.201171875 969.5 -80.400390625 969.5 -63.599609375 c 0
 969.5 -49.19921875 964.69921875 -32.400390625 955.099609375 -13.19921875 c 2
 778.69921875 246 l 1
 778.69921875 249.599609375 l 1
 605.900390625 508.80078125 l 2
 601.099609375 516 597.5 522 595.099609375 526.80078125 c 0
 537.5 620.400390625 508.69921875 724.80078125 508.69921875 840 c 2
 508.69921875 1106.40039062 l 2
 508.69921875 1149.59960938 509.900390625 1176 512.30078125 1185.59960938 c 0
 524.30078125 1207.19921875 526.69921875 1222.19921875 519.5 1230.59960938 c 128
 512.30078125 1239 508.1015625 1243.19921875 506.900390625 1243.19921875 c 128
 505.099609375 1243.19921875 505.099609375 1243.19921875 479.900390625 1243.19921875 c 2
 310.69921875 1243.19921875 l 2
 289.099609375 1243.19921875 276.5 1242 272.900390625 1239.59960938 c 128
 269.30078125 1237.20117188 269.8984375 1219.20117188 274.69921875 1185.59960938 c 0
 277.099609375 1176 278.30078125 1149.59960938 278.30078125 1106.40039062 c 2
 278.30078125 836.400390625 l 2
 278.30078125 723.599609375 248.298828125 620.400390625 188.30078125 526.80078125 c 2
 177.5 508.80078125 l 1
 8.30078125 246 l 1
 -168.099609375 -16.80078125 l 2
 -177.69921875 -36 -182.5 -52.80078125 -182.5 -67.19921875 c 0
 -182.5 -84 -175.30078125 -99.599609375 -160.900390625 -114 c 0
 -144.1015625 -130.798828125 -114.099609375 -139.19921875 -70.900390625 -139.19921875 c 2
 857.900390625 -139.19921875 l 2
 898.701171875 -139.19921875 927.5 -130.798828125 944.30078125 -114 c 128
879.5 -6 m 1
 883.099609375 -9.599609375 l 2
 887.900390625 -19.19921875 890.30078125 -27.599609375 890.30078125 -34.80078125 c 0
 890.30078125 -66 873.5 -81.599609375 839.900390625 -81.599609375 c 2
 782.30078125 -81.599609375 l 1
 674.30078125 -81.599609375 l 1
 109.099609375 -81.599609375 l 1
 4.69921875 -81.599609375 l 1
 -52.900390625 -81.599609375 l 2
 -86.5 -81.599609375 -103.30078125 -66 -103.30078125 -34.80078125 c 0
 -103.30078125 -22.798828125 -99.69921875 -13.19921875 -92.5 -6 c 2
 -63.69921875 40.80078125 l 1
 -60.099609375 44.400390625 l 1
 -60.099609375 48 l 1
 -2.5 130.80078125 l 1
 148.69921875 368.400390625 l 1
 152.30078125 372 l 1
 195.5 436.80078125 l 1
 587.900390625 436.80078125 l 1
 638.30078125 364.80078125 l 1
 641.900390625 361.19921875 l 1
 645.5 354 l 1
 789.5 130.80078125 l 1
 832.69921875 66 l 1
 879.5 -6 l 1
559.099609375 242.400390625 m 0
 568.69921875 237.599609375 575.900390625 235.19921875 580.69921875 235.19921875 c 0
 587.900390625 235.19921875 593.900390625 237.599609375 598.69921875 242.400390625 c 2
 609.5 264 l 2
 609.5 271.19921875 605.900390625 278.400390625 598.69921875 285.599609375 c 0
 596.30078125 290.400390625 590.298828125 292.80078125 580.69921875 292.80078125 c 128
 571.1015625 292.80078125 563.900390625 290.400390625 559.099609375 285.599609375 c 0
 554.298828125 276 551.900390625 268.80078125 551.900390625 264 c 0
 551.900390625 254.400390625 554.298828125 247.201171875 559.099609375 242.400390625 c 0
688.69921875 40.80078125 m 1
 698.298828125 31.201171875 706.69921875 26.400390625 713.900390625 26.400390625 c 128
 721.099609375 26.400390625 725.900390625 27.599609375 728.30078125 30 c 0
 742.69921875 37.19921875 745.099609375 50.3984375 735.5 69.599609375 c 2
 652.69921875 199.19921875 l 2
 647.900390625 208.798828125 639.5 213.599609375 627.5 213.599609375 c 0
 620.30078125 213.599609375 615.5 212.3984375 613.099609375 210 c 0
 596.30078125 202.80078125 592.701171875 189.599609375 602.30078125 170.400390625 c 2
 688.69921875 40.80078125 l 1
148.69921875 368.400390625 m 1024
EndSplineSet
EndChar

StartChar: uniF4A0
Encoding: 62624 62624 80
Width: 1407
VWidth: 1704
Flags: HW
LayerCount: 2
Fore
SplineSet
469 1358.40039062 m 128
 692.19921875 1358.40039062 882.400390625 1279.79882812 1039.59960938 1122.59960938 c 128
 1196.79882812 965.400390625 1275.40039062 775.19921875 1275.40039062 552 c 128
 1275.40039062 328.80078125 1196.79882812 138.599609375 1039.59960938 -18.599609375 c 128
 882.400390625 -175.798828125 692.19921875 -254.400390625 469 -254.400390625 c 128
 245.80078125 -254.400390625 55.599609375 -175.798828125 -101.599609375 -18.599609375 c 128
 -258.798828125 138.599609375 -337.400390625 328.80078125 -337.400390625 552 c 128
 -337.400390625 775.19921875 -258.798828125 965.400390625 -101.599609375 1122.59960938 c 128
 55.599609375 1279.79882812 245.80078125 1358.40039062 469 1358.40039062 c 128
883 822 m 2
 885.400390625 824.400390625 886.599609375 828 886.599609375 832.80078125 c 0
 886.599609375 840 885.400390625 844.80078125 883 847.19921875 c 2
 771.400390625 933.599609375 l 2
 769 936 764.19921875 937.19921875 757 937.19921875 c 0
 752.19921875 937.19921875 748.599609375 936 746.19921875 933.599609375 c 2
 346.599609375 418.80078125 l 1
 241 519.599609375 187 571.201171875 184.599609375 573.599609375 c 0
 177.400390625 580.80078125 170.19921875 584.400390625 163 584.400390625 c 0
 160.599609375 584.400390625 155.80078125 580.80078125 148.599609375 573.599609375 c 2
 58.599609375 483.599609375 l 1
 55 480 l 2
 52.599609375 477.599609375 51.400390625 472.80078125 51.400390625 465.599609375 c 0
 51.400390625 460.798828125 52.599609375 457.19921875 55 454.80078125 c 2
 62.19921875 451.19921875 l 1
 249.400390625 271.19921875 344.201171875 180 346.599609375 177.599609375 c 0
 353.80078125 170.400390625 359.798828125 166.80078125 364.599609375 166.80078125 c 128
 369.400390625 166.80078125 375.400390625 170.400390625 382.599609375 177.599609375 c 2
 883 822 l 2
EndSplineSet
EndChar

StartChar: uniF4A5
Encoding: 62629 62629 81
Width: 999
VWidth: 1704
Flags: HW
LayerCount: 2
Fore
SplineSet
847.80078125 865.19921875 m 0
 850.19921875 858 851.400390625 847.19921875 851.400390625 832.80078125 c 2
 851.400390625 -45.599609375 l 2
 851.400390625 -69.599609375 844.19921875 -91.19921875 829.80078125 -110.400390625 c 128
 815.400390625 -129.6015625 797.400390625 -139.19921875 775.80078125 -139.19921875 c 2
 -99 -139.19921875 l 2
 -120.599609375 -139.19921875 -140.400390625 -129.6015625 -158.400390625 -110.400390625 c 128
 -176.400390625 -91.19921875 -185.400390625 -69.599609375 -185.400390625 -45.599609375 c 2
 -185.400390625 1160.40039062 l 2
 -185.400390625 1182 -176.400390625 1201.20117188 -158.400390625 1218 c 128
 -140.400390625 1234.79882812 -120.599609375 1243.19921875 -99 1243.19921875 c 2
 477 1243.19921875 l 2
 491.400390625 1243.19921875 502.19921875 1240.80078125 509.400390625 1236 c 0
 523.80078125 1228.80078125 532.201171875 1224 534.599609375 1221.59960938 c 2
 833.400390625 890.400390625 l 2
 840.599609375 883.19921875 845.400390625 874.798828125 847.80078125 865.19921875 c 0
509.400390625 1074 m 1
 509.400390625 847.19921875 l 1
 718.19921875 847.19921875 l 1
 509.400390625 1074 l 1
-70.19921875 -24 m 1
 736.19921875 -24 l 1
 736.19921875 732 l 1
 495 732 l 2
 468.599609375 732 445.19921875 742.201171875 424.80078125 762.599609375 c 128
 404.400390625 783 394.19921875 806.400390625 394.19921875 832.80078125 c 2
 394.19921875 1128 l 1
 -70.19921875 1128 l 1
 -70.19921875 -24 l 1
EndSplineSet
EndChar

StartChar: uniF4A4
Encoding: 62628 62628 82
Width: 1068
VWidth: 1704
Flags: HW
LayerCount: 2
Fore
SplineSet
356 667.19921875 m 128
 389.6015625 667.19921875 417.19921875 656.400390625 438.80078125 634.80078125 c 128
 460.400390625 613.19921875 471.19921875 585.599609375 471.19921875 552 c 128
 471.19921875 518.3984375 460.400390625 490.80078125 438.80078125 469.19921875 c 128
 417.19921875 447.599609375 389.6015625 436.80078125 356 436.80078125 c 128
 322.3984375 436.80078125 294.80078125 447.599609375 273.19921875 469.19921875 c 128
 251.599609375 490.80078125 240.80078125 518.3984375 240.80078125 552 c 128
 240.80078125 585.599609375 251.599609375 613.19921875 273.19921875 634.80078125 c 128
 294.80078125 656.400390625 322.3984375 667.19921875 356 667.19921875 c 128
-104.80078125 667.19921875 m 128
 -71.19921875 667.19921875 -43.599609375 656.400390625 -22 634.80078125 c 128
 -0.400390625 613.19921875 10.400390625 585.599609375 10.400390625 552 c 128
 10.400390625 518.3984375 -0.400390625 490.80078125 -22 469.19921875 c 128
 -43.599609375 447.599609375 -71.19921875 436.80078125 -104.80078125 436.80078125 c 128
 -138.400390625 436.80078125 -166 447.599609375 -187.599609375 469.19921875 c 128
 -209.19921875 490.80078125 -220 518.3984375 -220 552 c 128
 -220 585.599609375 -209.19921875 613.19921875 -187.599609375 634.80078125 c 128
 -166 656.400390625 -138.400390625 667.19921875 -104.80078125 667.19921875 c 128
816.80078125 667.19921875 m 128
 850.400390625 667.19921875 878 656.400390625 899.599609375 634.80078125 c 128
 921.19921875 613.19921875 932 585.599609375 932 552 c 128
 932 518.3984375 921.19921875 490.80078125 899.599609375 469.19921875 c 128
 878 447.599609375 850.400390625 436.80078125 816.80078125 436.80078125 c 128
 783.19921875 436.80078125 755.599609375 447.599609375 734 469.19921875 c 128
 712.400390625 490.80078125 701.599609375 518.3984375 701.599609375 552 c 128
 701.599609375 585.599609375 712.400390625 613.19921875 734 634.80078125 c 128
 755.599609375 656.400390625 783.19921875 667.19921875 816.80078125 667.19921875 c 128
EndSplineSet
EndChar

StartChar: uniF4A7
Encoding: 62631 62631 83
Width: 1236
VWidth: 1704
Flags: HW
LayerCount: 2
Fore
SplineSet
1103.19921875 667.19921875 m 1
 1103.19921875 436.80078125 l 1
 527.19921875 436.80078125 l 1
 527.19921875 -139.19921875 l 1
 296.80078125 -139.19921875 l 1
 296.80078125 436.80078125 l 1
 -279.19921875 436.80078125 l 1
 -279.19921875 667.19921875 l 1
 296.80078125 667.19921875 l 1
 296.80078125 1243.19921875 l 1
 527.19921875 1243.19921875 l 1
 527.19921875 667.19921875 l 1
 1103.19921875 667.19921875 l 1
EndSplineSet
EndChar

StartChar: uniF4A8
Encoding: 62632 62632 84
Width: 1194
VWidth: 1682
Flags: HW
LayerCount: 2
Fore
SplineSet
-293.19921875 12.80078125 m 1
 -293.19921875 128 l 2
 -293.19921875 334.400390625 -234.400390625 497.599609375 -116.80078125 617.599609375 c 0
 3.201171875 742.400390625 174.80078125 809.6015625 398 819.19921875 c 1
 398 1107.19921875 l 1
 1089.19921875 646.400390625 l 1
 398 185.599609375 l 1
 398 473.599609375 l 1
 287.599609375 471.201171875 183.201171875 447.19921875 84.80078125 401.599609375 c 0
 -8.80078125 358.400390625 -98.80078125 266 -185.19921875 124.400390625 c 2
 -257.19921875 12.80078125 l 1
 -293.19921875 12.80078125 l 1
EndSplineSet
EndChar

StartChar: uniF4A9
Encoding: 62633 62633 85
Width: 1429
VWidth: 1704
Flags: HW
LayerCount: 2
Fore
SplineSet
1243.30078125 1243.19921875 m 2
 1269.70117188 1243.19921875 1282.90039062 1230 1282.90039062 1203.59960938 c 2
 1282.90039062 246 l 2
 1282.90039062 219.599609375 1269.70117188 206.400390625 1243.30078125 206.400390625 c 2
 -290.30078125 206.400390625 l 2
 -316.701171875 206.400390625 -329.900390625 219.599609375 -329.900390625 246 c 2
 -329.900390625 1203.59960938 l 2
 -329.900390625 1230 -316.701171875 1243.19921875 -290.30078125 1243.19921875 c 2
 1243.30078125 1243.19921875 l 2
1167.69921875 321.599609375 m 1
 1167.69921875 1128 l 1
 -214.69921875 1128 l 1
 -214.69921875 321.599609375 l 1
 1167.69921875 321.599609375 l 1
642.099609375 -139.19921875 m 1
 310.900390625 -139.19921875 l 2
 226.8984375 -139.19921875 186.099609375 -130.798828125 188.5 -114 c 0
 188.5 -109.19921875 193.30078125 -103.19921875 202.900390625 -96 c 128
 212.5 -88.80078125 227.5 -79.201171875 247.900390625 -67.19921875 c 128
 268.298828125 -55.19921875 283.900390625 -45 294.69921875 -36.599609375 c 128
 305.5 -28.19921875 310.900390625 -20.400390625 310.900390625 -13.19921875 c 2
 314.5 148.80078125 l 1
 476.5 148.80078125 l 1
 638.5 148.80078125 l 1
 640.900390625 50.3984375 642.099609375 -3.6015625 642.099609375 -13.19921875 c 0
 642.099609375 -20.400390625 647.5 -28.19921875 658.30078125 -36.599609375 c 128
 669.099609375 -45 684.701171875 -55.19921875 705.099609375 -67.19921875 c 128
 725.5 -79.201171875 740.5 -88.80078125 750.099609375 -96 c 0
 778.900390625 -117.599609375 765.701171875 -130.798828125 710.5 -135.599609375 c 2
 642.099609375 -139.19921875 l 1
EndSplineSet
EndChar

StartChar: uniF4B1
Encoding: 62641 62641 86
Width: 1161
VWidth: 1704
Flags: HW
LayerCount: 2
Fore
SplineSet
840.599609375 660 m 0
 840.599609375 609.599609375 842.400390625 563.3984375 846 521.400390625 c 128
 849.599609375 479.400390625 853.19921875 444 856.80078125 415.19921875 c 128
 860.400390625 386.400390625 868.80078125 357.599609375 882 328.80078125 c 128
 895.19921875 300 903.599609375 279 907.19921875 265.80078125 c 128
 910.80078125 252.599609375 923.400390625 234.599609375 945 211.80078125 c 128
 966.599609375 189 978.6015625 175.80078125 981 172.19921875 c 128
 983.400390625 168.599609375 999.599609375 154.798828125 1029.59960938 130.80078125 c 128
 1059.6015625 106.80078125 1075.80078125 93.599609375 1078.19921875 91.19921875 c 1
 -304.19921875 91.19921875 l 1
 -297 98.400390625 -283.80078125 109.19921875 -264.599609375 123.599609375 c 128
 -245.400390625 138 -232.798828125 148.201171875 -226.80078125 154.19921875 c 128
 -217.80078125 163.19921875 -217.80078125 163.19921875 -194.400390625 186.599609375 c 128
 -178.798828125 202.201171875 -168 214.80078125 -162 224.400390625 c 128
 -156 234 -147 247.80078125 -135 265.80078125 c 128
 -123 283.80078125 -114.6015625 300.599609375 -109.80078125 316.19921875 c 128
 -105 331.80078125 -99 352.19921875 -91.80078125 377.400390625 c 128
 -84.599609375 402.599609375 -79.798828125 428.3984375 -77.400390625 454.80078125 c 128
 -75 481.201171875 -72.599609375 511.80078125 -70.19921875 546.599609375 c 128
 -67.80078125 581.3984375 -66.599609375 619.19921875 -66.599609375 660 c 0
 -66.599609375 950.400390625 55.80078125 1116 300.599609375 1156.80078125 c 1
 300.599609375 1164 l 2
 300.599609375 1185.59960938 309 1204.19921875 325.80078125 1219.80078125 c 128
 342.599609375 1235.40039062 363 1243.19921875 387 1243.19921875 c 128
 411 1243.19921875 431.400390625 1235.40039062 448.19921875 1219.80078125 c 128
 465 1204.19921875 473.400390625 1185.59960938 473.400390625 1164 c 2
 473.400390625 1156.80078125 l 1
 718.19921875 1120.80078125 840.599609375 955.19921875 840.599609375 660 c 0
387 -139.19921875 m 128
 339 -139.19921875 297 -124.201171875 261 -94.19921875 c 128
 225 -64.19921875 204.599609375 -27.599609375 199.80078125 15.599609375 c 1
 574.19921875 15.599609375 l 1
 569.400390625 -27.599609375 549 -64.19921875 513 -94.19921875 c 128
 477 -124.201171875 435 -139.19921875 387 -139.19921875 c 128
EndSplineSet
EndChar

StartChar: uniF4B4
Encoding: 62644 62644 87
Width: 743
VWidth: 1704
Flags: HW
LayerCount: 2
Fore
SplineSet
564.80078125 1243.19921875 m 2
 584 1243.19921875 593.599609375 1233.6015625 593.599609375 1214.40039062 c 2
 593.599609375 1012.80078125 l 1
 -97.599609375 1012.80078125 l 1
 -97.599609375 1214.40039062 l 2
 -97.599609375 1233.6015625 -88 1243.19921875 -68.80078125 1243.19921875 c 2
 564.80078125 1243.19921875 l 2
-97.599609375 -139.19921875 m 1
 -97.599609375 955.19921875 l 1
 593.599609375 955.19921875 l 1
 593.599609375 -139.19921875 l 1
 248 206.400390625 l 1
 -97.599609375 -139.19921875 l 1
EndSplineSet
EndChar

StartChar: uniF4B6
Encoding: 62646 62646 88
Width: 1269
VWidth: 1704
Flags: HW
LayerCount: 2
Fore
SplineSet
1164.59960938 1077.59960938 m 2
 1169.40039062 1068 1171.80078125 1060.80078125 1171.80078125 1056 c 128
 1171.80078125 1051.19921875 1169.40039062 1044 1164.59960938 1034.40039062 c 2
 268.19921875 -117.599609375 l 2
 253.80078125 -132 243 -139.19921875 235.80078125 -139.19921875 c 0
 223.798828125 -139.19921875 211.80078125 -133.201171875 199.80078125 -121.19921875 c 2
 -307.80078125 368.400390625 l 1
 -318.599609375 379.19921875 l 2
 -323.400390625 388.798828125 -325.80078125 396 -325.80078125 400.80078125 c 0
 -325.80078125 403.19921875 -323.400390625 409.201171875 -318.599609375 418.80078125 c 2
 -311.400390625 426 l 2
 -244.201171875 498 -191.400390625 553.201171875 -153 591.599609375 c 0
 -138.599609375 606 -129 613.19921875 -124.19921875 613.19921875 c 0
 -114.6015625 613.19921875 -102.599609375 606 -88.19921875 591.599609375 c 2
 199.80078125 310.80078125 l 1
 919.80078125 1236 l 2
 924.6015625 1240.80078125 931.80078125 1243.19921875 941.400390625 1243.19921875 c 0
 948.599609375 1243.19921875 957 1240.80078125 966.599609375 1236 c 2
 1164.59960938 1077.59960938 l 2
EndSplineSet
EndChar

StartChar: uniF4B7
Encoding: 62647 62647 89
Width: 1321
VWidth: 1704
Flags: HW
LayerCount: 2
Fore
SplineSet
440.5 1300.80078125 m 128
 646.900390625 1300.80078125 823.30078125 1227.59960938 969.69921875 1081.19921875 c 128
 1116.09960938 934.80078125 1189.30078125 758.400390625 1189.30078125 552 c 128
 1189.30078125 345.599609375 1116.09960938 169.19921875 969.69921875 22.80078125 c 128
 823.30078125 -123.599609375 646.900390625 -196.80078125 440.5 -196.80078125 c 128
 234.099609375 -196.80078125 57.69921875 -123.599609375 -88.69921875 22.80078125 c 128
 -235.099609375 169.19921875 -308.30078125 345.599609375 -308.30078125 552 c 128
 -308.30078125 758.400390625 -235.099609375 934.80078125 -88.69921875 1081.19921875 c 128
 57.69921875 1227.59960938 234.099609375 1300.80078125 440.5 1300.80078125 c 128
440.5 -135.599609375 m 128
 630.099609375 -135.599609375 792.099609375 -68.400390625 926.5 66 c 128
 1060.90039062 200.400390625 1128.09960938 362.400390625 1128.09960938 552 c 128
 1128.09960938 741.599609375 1060.90039062 903.599609375 926.5 1038 c 128
 792.099609375 1172.40039062 630.099609375 1239.59960938 440.5 1239.59960938 c 128
 250.900390625 1239.59960938 88.900390625 1172.40039062 -45.5 1038 c 128
 -179.900390625 903.599609375 -247.099609375 741.599609375 -247.099609375 552 c 128
 -247.099609375 362.400390625 -179.900390625 200.400390625 -45.5 66 c 128
 88.900390625 -68.400390625 250.900390625 -135.599609375 440.5 -135.599609375 c 128
EndSplineSet
EndChar

StartChar: uniF4B8
Encoding: 62648 62648 90
Width: 1390
VWidth: 1703
Flags: HW
LayerCount: 2
Fore
SplineSet
117.900390625 552 m 128
 117.900390625 609.599609375 146.69921875 638.400390625 204.30078125 638.400390625 c 128
 261.900390625 638.400390625 290.69921875 609.599609375 290.69921875 552 c 128
 290.69921875 494.400390625 261.900390625 465.599609375 204.30078125 465.599609375 c 128
 146.69921875 465.599609375 117.900390625 494.400390625 117.900390625 552 c 128
377.099609375 552 m 128
 377.099609375 609.599609375 405.900390625 638.400390625 463.5 638.400390625 c 128
 521.099609375 638.400390625 549.900390625 609.599609375 549.900390625 552 c 128
 549.900390625 494.400390625 521.099609375 465.599609375 463.5 465.599609375 c 128
 405.900390625 465.599609375 377.099609375 494.400390625 377.099609375 552 c 128
636.30078125 552 m 128
 636.30078125 609.599609375 665.099609375 638.400390625 722.69921875 638.400390625 c 128
 780.30078125 638.400390625 809.099609375 609.599609375 809.099609375 552 c 128
 809.099609375 494.400390625 780.30078125 465.599609375 722.69921875 465.599609375 c 128
 665.099609375 465.599609375 636.30078125 494.400390625 636.30078125 552 c 128
146.69921875 62.400390625 m 128
 122.701171875 62.400390625 102.298828125 70.80078125 85.5 87.599609375 c 2
 -317.69921875 490.80078125 l 2
 -334.5 507.599609375 -342.900390625 528 -342.900390625 552 c 128
 -342.900390625 576 -334.5 596.400390625 -317.69921875 613.19921875 c 2
 85.5 1016.40039062 l 2
 102.298828125 1033.19921875 122.701171875 1041.59960938 146.69921875 1041.59960938 c 128
 170.69921875 1041.59960938 191.099609375 1033.19921875 207.900390625 1016.40039062 c 128
 224.69921875 999.6015625 233.099609375 979.19921875 233.099609375 955.19921875 c 128
 233.099609375 931.201171875 224.69921875 910.798828125 207.900390625 894 c 2
 -134.099609375 552 l 1
 207.900390625 210 l 2
 224.69921875 193.201171875 233.099609375 172.798828125 233.099609375 148.80078125 c 128
 233.099609375 124.80078125 224.69921875 104.3984375 207.900390625 87.599609375 c 128
 191.099609375 70.80078125 170.69921875 62.400390625 146.69921875 62.400390625 c 128
780.30078125 62.400390625 m 128
 756.30078125 62.400390625 735.900390625 70.80078125 719.099609375 87.599609375 c 128
 702.30078125 104.3984375 693.900390625 124.80078125 693.900390625 148.80078125 c 128
 693.900390625 172.798828125 702.30078125 193.201171875 719.099609375 210 c 2
 1061.09960938 552 l 1
 719.099609375 894 l 2
 702.30078125 910.798828125 693.900390625 931.201171875 693.900390625 955.19921875 c 128
 693.900390625 979.19921875 702.30078125 999.6015625 719.099609375 1016.40039062 c 128
 735.900390625 1033.19921875 756.30078125 1041.59960938 780.30078125 1041.59960938 c 128
 804.298828125 1041.59960938 824.701171875 1033.19921875 841.5 1016.40039062 c 2
 1244.69921875 613.19921875 l 2
 1261.5 596.400390625 1269.90039062 576 1269.90039062 552 c 128
 1269.90039062 528 1261.5 507.599609375 1244.69921875 490.80078125 c 2
 841.5 87.599609375 l 2
 824.701171875 70.80078125 804.298828125 62.400390625 780.30078125 62.400390625 c 128
EndSplineSet
EndChar

StartChar: uniF4B9
Encoding: 62649 62649 91
Width: 1390
VWidth: 1703
Flags: HW
LayerCount: 2
Fore
SplineSet
146.69921875 62.400390625 m 128
 122.701171875 62.400390625 102.298828125 70.80078125 85.5 87.599609375 c 2
 -317.69921875 490.80078125 l 2
 -334.5 507.599609375 -342.900390625 528 -342.900390625 552 c 128
 -342.900390625 576 -334.5 596.400390625 -317.69921875 613.19921875 c 2
 85.5 1016.40039062 l 2
 102.298828125 1033.19921875 122.701171875 1041.59960938 146.69921875 1041.59960938 c 128
 170.69921875 1041.59960938 191.099609375 1033.19921875 207.900390625 1016.40039062 c 128
 224.69921875 999.6015625 233.099609375 979.19921875 233.099609375 955.19921875 c 128
 233.099609375 931.201171875 224.69921875 910.798828125 207.900390625 894 c 2
 -134.099609375 552 l 1
 207.900390625 210 l 2
 224.69921875 193.201171875 233.099609375 172.798828125 233.099609375 148.80078125 c 128
 233.099609375 124.80078125 224.69921875 104.3984375 207.900390625 87.599609375 c 128
 191.099609375 70.80078125 170.69921875 62.400390625 146.69921875 62.400390625 c 128
780.30078125 62.400390625 m 128
 756.30078125 62.400390625 735.900390625 70.80078125 719.099609375 87.599609375 c 128
 702.30078125 104.3984375 693.900390625 124.80078125 693.900390625 148.80078125 c 128
 693.900390625 172.798828125 702.30078125 193.201171875 719.099609375 210 c 2
 1061.09960938 552 l 1
 719.099609375 894 l 2
 702.30078125 910.798828125 693.900390625 931.201171875 693.900390625 955.19921875 c 128
 693.900390625 979.19921875 702.30078125 999.6015625 719.099609375 1016.40039062 c 128
 735.900390625 1033.19921875 756.30078125 1041.59960938 780.30078125 1041.59960938 c 128
 804.298828125 1041.59960938 824.701171875 1033.19921875 841.5 1016.40039062 c 2
 1244.69921875 613.19921875 l 2
 1261.5 596.400390625 1269.90039062 576 1269.90039062 552 c 128
 1269.90039062 528 1261.5 507.599609375 1244.69921875 490.80078125 c 2
 841.5 87.599609375 l 2
 824.701171875 70.80078125 804.298828125 62.400390625 780.30078125 62.400390625 c 128
EndSplineSet
EndChar

StartChar: uniF4BA
Encoding: 62650 62650 92
Width: 1432
VWidth: 1704
Flags: HW
LayerCount: 2
Fore
SplineSet
-98.5 1012.80078125 m 1
 1283.90039062 1012.80078125 l 1
 1283.90039062 -139.19921875 l 1
 -98.5 -139.19921875 l 1
 -98.5 1012.80078125 l 1
1053.5 1243.19921875 m 1
 1053.5 1070.40039062 l 1
 -156.099609375 1070.40039062 l 1
 -156.099609375 91.19921875 l 1
 -328.900390625 91.19921875 l 1
 -328.900390625 1243.19921875 l 1
 1053.5 1243.19921875 l 1
EndSplineSet
EndChar

StartChar: uniF4BC
Encoding: 62652 62652 93
Width: 1321
VWidth: 1704
Flags: HW
LayerCount: 2
Fore
SplineSet
440.5 1300.80078125 m 128
 646.900390625 1300.80078125 823.30078125 1227.59960938 969.69921875 1081.19921875 c 128
 1116.09960938 934.80078125 1189.30078125 758.400390625 1189.30078125 552 c 128
 1189.30078125 345.599609375 1116.09960938 169.19921875 969.69921875 22.80078125 c 128
 823.30078125 -123.599609375 646.900390625 -196.80078125 440.5 -196.80078125 c 128
 234.099609375 -196.80078125 57.69921875 -123.599609375 -88.69921875 22.80078125 c 128
 -235.099609375 169.19921875 -308.30078125 345.599609375 -308.30078125 552 c 128
 -308.30078125 758.400390625 -235.099609375 934.80078125 -88.69921875 1081.19921875 c 128
 57.69921875 1227.59960938 234.099609375 1300.80078125 440.5 1300.80078125 c 128
440.5 -135.599609375 m 128
 630.099609375 -135.599609375 792.099609375 -68.400390625 926.5 66 c 128
 1060.90039062 200.400390625 1128.09960938 362.400390625 1128.09960938 552 c 128
 1128.09960938 741.599609375 1060.90039062 903.599609375 926.5 1038 c 128
 792.099609375 1172.40039062 630.099609375 1239.59960938 440.5 1239.59960938 c 128
 250.900390625 1239.59960938 88.900390625 1172.40039062 -45.5 1038 c 128
 -179.900390625 903.599609375 -247.099609375 741.599609375 -247.099609375 552 c 128
 -247.099609375 362.400390625 -179.900390625 200.400390625 -45.5 66 c 128
 88.900390625 -68.400390625 250.900390625 -135.599609375 440.5 -135.599609375 c 128
440.5 1128 m 128
 598.900390625 1128 734.5 1071.6015625 847.30078125 958.80078125 c 128
 960.1015625 846 1016.5 710.400390625 1016.5 552 c 128
 1016.5 393.599609375 960.1015625 258 847.30078125 145.19921875 c 128
 734.5 32.3984375 598.900390625 -24 440.5 -24 c 128
 282.099609375 -24 146.5 32.3984375 33.69921875 145.19921875 c 128
 -79.1015625 258 -135.5 393.599609375 -135.5 552 c 128
 -135.5 710.400390625 -79.1015625 846 33.69921875 958.80078125 c 128
 146.5 1071.6015625 282.099609375 1128 440.5 1128 c 128
EndSplineSet
EndChar

StartChar: uniF4C6
Encoding: 62662 62662 94
Width: 1209
VWidth: 1704
Flags: HW
LayerCount: 2
Fore
SplineSet
709 1174.80078125 m 0
 814.6015625 1174.80078125 905.19921875 1136.40039062 980.80078125 1059.59960938 c 128
 1056.40039062 982.798828125 1094.19921875 891.6015625 1094.19921875 786 c 0
 1094.19921875 675.599609375 1054.59960938 583.19921875 975.400390625 508.80078125 c 2
 442.599609375 -31.19921875 l 1
 403 -70.80078125 l 1
 363.400390625 -31.19921875 l 1
 -180.19921875 519.599609375 l 2
 -252.19921875 596.400390625 -288.19921875 685.19921875 -288.19921875 786 c 0
 -288.19921875 891.6015625 -250.400390625 982.798828125 -174.80078125 1059.59960938 c 128
 -99.19921875 1136.40039062 -8.6015625 1174.80078125 97 1174.80078125 c 0
 224.201171875 1174.80078125 326.19921875 1124.40039062 403 1023.59960938 c 1
 479.80078125 1124.40039062 581.798828125 1174.80078125 709 1174.80078125 c 0
EndSplineSet
EndChar

StartChar: uniF4C8
Encoding: 62664 62664 95
Width: 1321
VWidth: 1704
Flags: HW
LayerCount: 2
Fore
SplineSet
440.5 1300.80078125 m 128
 646.900390625 1300.80078125 823.30078125 1227.59960938 969.69921875 1081.19921875 c 128
 1116.09960938 934.80078125 1189.30078125 758.400390625 1189.30078125 552 c 128
 1189.30078125 345.599609375 1116.09960938 169.19921875 969.69921875 22.80078125 c 128
 823.30078125 -123.599609375 646.900390625 -196.80078125 440.5 -196.80078125 c 128
 234.099609375 -196.80078125 57.69921875 -123.599609375 -88.69921875 22.80078125 c 128
 -235.099609375 169.19921875 -308.30078125 345.599609375 -308.30078125 552 c 128
 -308.30078125 758.400390625 -235.099609375 934.80078125 -88.69921875 1081.19921875 c 128
 57.69921875 1227.59960938 234.099609375 1300.80078125 440.5 1300.80078125 c 128
58.900390625 933.599609375 m 2
 56.5 931.201171875 81.099609375 894 132.69921875 822 c 128
 184.30078125 750 236.5 679.201171875 289.30078125 609.599609375 c 2
 368.5 501.599609375 l 1
 372.099609375 498 l 2
 391.30078125 474 414.099609375 462 440.5 462 c 0
 464.5 462 485.5 471 503.5 489 c 128
 521.5 507 530.5 528 530.5 552 c 128
 530.5 576 520.900390625 597.599609375 501.69921875 616.80078125 c 2
 490.900390625 627.599609375 l 1
 58.900390625 933.599609375 l 2
440.5 -135.599609375 m 128
 632.5 -135.599609375 795.69921875 -68.400390625 930.099609375 66 c 128
 1064.5 200.400390625 1131.69921875 362.400390625 1131.69921875 552 c 0
 1131.69921875 744 1064.5 907.19921875 930.099609375 1041.59960938 c 128
 795.69921875 1176 632.5 1243.19921875 440.5 1243.19921875 c 1
 440.5 897.599609375 l 1
 498.099609375 897.599609375 l 1
 498.099609375 1178.40039062 l 1
 656.5 1161.6015625 790.900390625 1093.20117188 901.30078125 973.19921875 c 128
 1011.69921875 853.19921875 1066.90039062 712.798828125 1066.90039062 552 c 0
 1066.90039062 379.19921875 1005.69921875 231.599609375 883.30078125 109.19921875 c 128
 760.900390625 -13.19921875 613.30078125 -74.400390625 440.5 -74.400390625 c 128
 267.69921875 -74.400390625 119.5 -13.19921875 -4.099609375 109.19921875 c 128
 -127.701171875 231.599609375 -189.5 379.19921875 -189.5 552 c 0
 -189.5 727.19921875 -128.30078125 876 -5.900390625 998.400390625 c 1
 -45.5 1041.59960938 l 1
 -179.900390625 907.19921875 -247.099609375 744 -247.099609375 552 c 128
 -247.099609375 360 -180.5 197.400390625 -47.30078125 64.19921875 c 128
 85.900390625 -69 248.5 -135.599609375 440.5 -135.599609375 c 128
EndSplineSet
EndChar

StartChar: uniF4C9
Encoding: 62665 62665 96
Width: 1236
VWidth: 1704
Flags: HW
LayerCount: 2
Fore
SplineSet
1009.59960938 757.19921875 m 128
 1072 702 1103.19921875 633.599609375 1103.19921875 552 c 128
 1103.19921875 470.400390625 1072 402 1009.59960938 346.80078125 c 128
 947.19921875 291.599609375 871.599609375 264 782.80078125 264 c 0
 696.400390625 264 622 291.599609375 559.599609375 346.80078125 c 2
 188.80078125 681.599609375 l 2
 150.400390625 717.599609375 101.19921875 735.599609375 41.19921875 735.599609375 c 128
 -18.798828125 735.599609375 -68 717.599609375 -106.400390625 681.599609375 c 128
 -144.798828125 645.599609375 -164 602.400390625 -164 552 c 128
 -164 501.599609375 -144.798828125 458.400390625 -106.400390625 422.400390625 c 128
 -68 386.400390625 -18.798828125 368.400390625 41.19921875 368.400390625 c 128
 101.19921875 368.400390625 150.400390625 386.400390625 188.80078125 422.400390625 c 2
 296.80078125 523.19921875 l 1
 379.599609375 451.19921875 l 1
 264.400390625 346.80078125 l 2
 202 291.599609375 127.599609375 264 41.19921875 264 c 0
 -47.599609375 264 -123.19921875 291.599609375 -185.599609375 346.80078125 c 128
 -248 402 -279.19921875 470.400390625 -279.19921875 552 c 128
 -279.19921875 633.599609375 -248 702 -185.599609375 757.19921875 c 128
 -123.19921875 812.400390625 -47.599609375 840 41.19921875 840 c 0
 127.599609375 840 202 812.400390625 264.400390625 757.19921875 c 2
 638.80078125 422.400390625 l 2
 679.6015625 386.400390625 727.599609375 368.400390625 782.80078125 368.400390625 c 0
 842.798828125 368.400390625 892 386.400390625 930.400390625 422.400390625 c 0
 971.201171875 458.400390625 991.599609375 501.599609375 991.599609375 552 c 128
 991.599609375 602.400390625 971.201171875 645.599609375 930.400390625 681.599609375 c 0
 892 717.599609375 842.798828125 735.599609375 782.80078125 735.599609375 c 0
 727.599609375 735.599609375 679.6015625 717.599609375 638.80078125 681.599609375 c 2
 527.19921875 580.80078125 l 1
 444.400390625 652.80078125 l 1
 559.599609375 757.19921875 l 2
 622 812.400390625 696.400390625 840 782.80078125 840 c 0
 871.599609375 840 947.19921875 812.400390625 1009.59960938 757.19921875 c 128
EndSplineSet
EndChar

StartChar: uniF4CA
Encoding: 62666 62666 97
Width: 1142
VWidth: 1704
Flags: HW
LayerCount: 2
Fore
SplineSet
93 -24 m 1
 93 1128 l 1
 323.400390625 1128 l 1
 323.400390625 -24 l 1
 93 -24 l 1
-252.599609375 -24 m 1
 -252.599609375 321.599609375 l 1
 -22.19921875 321.599609375 l 1
 -22.19921875 -24 l 1
 -252.599609375 -24 l 1
438.599609375 -24 m 1
 438.599609375 552 l 1
 669 552 l 1
 669 -24 l 1
 438.599609375 -24 l 1
784.19921875 -24 m 1
 784.19921875 782.400390625 l 1
 1014.59960938 782.400390625 l 1
 1014.59960938 -24 l 1
 784.19921875 -24 l 1
EndSplineSet
EndChar

StartChar: uniF4E5
Encoding: 62693 62693 98
Width: 1039
VWidth: 1704
Flags: HW
LayerCount: 2
Fore
SplineSet
314.099609375 926.400390625 m 1
 314.099609375 1128 l 1
 378.900390625 1128 l 1
 378.900390625 926.400390625 l 1
 314.099609375 926.400390625 l 1
314.099609375 -24 m 1
 314.099609375 192 l 1
 378.900390625 192 l 1
 378.900390625 -24 l 1
 314.099609375 -24 l 1
720.900390625 519.599609375 m 1
 720.900390625 584.400390625 l 1
 922.5 584.400390625 l 1
 922.5 519.599609375 l 1
 720.900390625 519.599609375 l 1
-229.5 519.599609375 m 1
 -229.5 584.400390625 l 1
 -13.5 584.400390625 l 1
 -13.5 519.599609375 l 1
 -229.5 519.599609375 l 1
634.5 328.80078125 m 1
 756.900390625 206.400390625 l 1
 713.69921875 163.19921875 l 1
 594.900390625 285.599609375 l 1
 634.5 328.80078125 l 1
0.900390625 962.400390625 m 1
 123.30078125 843.599609375 l 1
 80.099609375 800.400390625 l 1
 -42.30078125 922.80078125 l 1
 0.900390625 962.400390625 l 1
594.900390625 840 m 1
 713.69921875 962.400390625 l 1
 756.900390625 919.19921875 l 1
 634.5 800.400390625 l 1
 594.900390625 840 l 1
-42.30078125 206.400390625 m 1
 80.099609375 328.80078125 l 1
 119.69921875 285.599609375 l 1
 0.900390625 163.19921875 l 1
 -42.30078125 206.400390625 l 1
346.5 278.400390625 m 128
 269.69921875 278.400390625 204.8984375 304.80078125 152.099609375 357.599609375 c 128
 99.30078125 410.3984375 72.900390625 475.19921875 72.900390625 552 c 128
 72.900390625 628.80078125 99.30078125 693.6015625 152.099609375 746.400390625 c 128
 204.8984375 799.19921875 269.69921875 825.599609375 346.5 825.599609375 c 128
 423.30078125 825.599609375 488.1015625 799.19921875 540.900390625 746.400390625 c 128
 593.69921875 693.6015625 620.099609375 628.80078125 620.099609375 552 c 128
 620.099609375 475.19921875 593.69921875 410.3984375 540.900390625 357.599609375 c 128
 488.1015625 304.80078125 423.30078125 278.400390625 346.5 278.400390625 c 128
EndSplineSet
EndChar

StartChar: uniF4CD
Encoding: 62669 62669 99
Width: 756
VWidth: 1704
Flags: HW
LayerCount: 2
Fore
SplineSet
565.19921875 339.599609375 m 2
 591.6015625 339.599609375 616.80078125 343.19921875 640.80078125 350.400390625 c 1
 624 324 609.6015625 302.3984375 597.599609375 285.599609375 c 0
 516 187.19921875 410.400390625 138 280.80078125 138 c 0
 165.599609375 138 67.19921875 178.19921875 -14.400390625 258.599609375 c 128
 -96 339 -136.80078125 436.80078125 -136.80078125 552 c 0
 -136.80078125 645.599609375 -109.80078125 729 -55.80078125 802.19921875 c 128
 -1.80078125 875.400390625 68.400390625 925.19921875 154.80078125 951.599609375 c 0
 174 956.400390625 200.3984375 961.19921875 234 966 c 1
 214.798828125 937.19921875 201.599609375 915.599609375 194.400390625 901.19921875 c 0
 168 848.400390625 154.80078125 792 154.80078125 732 c 0
 154.80078125 624 193.19921875 531.599609375 270 454.80078125 c 128
 346.80078125 378 439.19921875 339.599609375 547.19921875 339.599609375 c 2
 565.19921875 339.599609375 l 2
EndSplineSet
EndChar

StartChar: uniF4CF
Encoding: 62671 62671 100
Width: 1347
VWidth: 1704
Flags: HW
LayerCount: 2
Fore
SplineSet
1255.40039062 728.400390625 m 1
 751.400390625 375.599609375 l 1
 945.80078125 -196.80078125 l 1
 449 159.599609375 l 1
 -47.80078125 -196.80078125 l 1
 146.599609375 375.599609375 l 1
 -357.400390625 728.400390625 l 1
 258.19921875 728.400390625 l 1
 449 1300.80078125 l 1
 639.80078125 728.400390625 l 1
 1255.40039062 728.400390625 l 1
EndSplineSet
EndChar

StartChar: uniF4D0
Encoding: 62672 62672 101
Width: 1477
VWidth: 1704
Flags: HW
LayerCount: 2
Fore
SplineSet
-342.69921875 1473.59960938 m 1
 1327.69921875 1473.59960938 l 1
 1327.69921875 -369.599609375 l 1
 -342.69921875 -369.599609375 l 1
 -342.69921875 1473.59960938 l 1
-198.69921875 1243.19921875 m 1
 -198.69921875 1012.80078125 l 1
 722.900390625 1012.80078125 l 1
 722.900390625 1243.19921875 l 1
 -198.69921875 1243.19921875 l 1
1183.69921875 -24 m 1
 1183.69921875 148.80078125 l 1
 -198.69921875 148.80078125 l 1
 -198.69921875 -24 l 1
 1183.69921875 -24 l 1
1183.69921875 321.599609375 m 1
 1183.69921875 494.400390625 l 1
 -198.69921875 494.400390625 l 1
 -198.69921875 321.599609375 l 1
 1183.69921875 321.599609375 l 1
1183.69921875 667.19921875 m 1
 1183.69921875 840 l 1
 -198.69921875 840 l 1
 -198.69921875 667.19921875 l 1
 1183.69921875 667.19921875 l 1
EndSplineSet
EndChar

StartChar: uniF4D5
Encoding: 62677 62677 102
Width: 1513
VWidth: 1704
Flags: HW
LayerCount: 2
Fore
SplineSet
436.099609375 166.80078125 m 1
 628.1015625 109.19921875 746.900390625 -12 792.5 -196.80078125 c 1
 -417.099609375 -196.80078125 l 1
 -369.099609375 -9.599609375 -250.298828125 111.599609375 -60.69921875 166.80078125 c 1
 16.099609375 121.201171875 98.900390625 98.400390625 187.69921875 98.400390625 c 128
 276.5 98.400390625 359.298828125 121.201171875 436.099609375 166.80078125 c 1
187.69921875 1070.40039062 m 128
 307.701171875 1070.40039062 410.30078125 1027.79882812 495.5 942.599609375 c 128
 580.69921875 857.400390625 623.30078125 754.80078125 623.30078125 634.80078125 c 128
 623.30078125 514.798828125 580.69921875 412.19921875 495.5 327 c 128
 410.30078125 241.80078125 307.701171875 199.19921875 187.69921875 199.19921875 c 128
 67.69921875 199.19921875 -34.900390625 241.80078125 -120.099609375 327 c 128
 -205.298828125 412.19921875 -247.900390625 514.798828125 -247.900390625 634.80078125 c 128
 -247.900390625 754.80078125 -205.298828125 857.400390625 -120.099609375 942.599609375 c 128
 -34.900390625 1027.79882812 67.69921875 1070.40039062 187.69921875 1070.40039062 c 128
187.69921875 303.599609375 m 128
 254.8984375 303.599609375 316.099609375 323.400390625 371.30078125 363 c 128
 426.5 402.599609375 466.099609375 452.400390625 490.099609375 512.400390625 c 1
 -118.30078125 512.400390625 l 1
 -94.30078125 452.400390625 -54.099609375 402.599609375 2.30078125 363 c 128
 58.69921875 323.400390625 120.5 303.599609375 187.69921875 303.599609375 c 128
778.099609375 33.599609375 m 1
 720.5 120 638.900390625 184.80078125 533.30078125 228 c 1
 583.69921875 271.19921875 622.099609375 315.599609375 648.5 361.19921875 c 1
 701.298828125 339.599609375 758.900390625 328.80078125 821.30078125 328.80078125 c 0
 910.099609375 328.80078125 992.900390625 351.599609375 1069.69921875 397.19921875 c 1
 1261.70117188 339.599609375 1380.5 218.400390625 1426.09960938 33.599609375 c 1
 778.099609375 33.599609375 l 1
713.30078125 742.80078125 m 1
 679.69921875 898.80078125 593.298828125 1017.6015625 454.099609375 1099.19921875 c 1
 540.5 1233.6015625 662.900390625 1300.80078125 821.30078125 1300.80078125 c 0
 941.30078125 1300.80078125 1043.90039062 1258.19921875 1129.09960938 1173 c 128
 1214.29882812 1087.80078125 1256.90039062 985.201171875 1256.90039062 865.19921875 c 128
 1256.90039062 745.19921875 1214.29882812 642.599609375 1129.09960938 557.400390625 c 128
 1043.90039062 472.201171875 941.30078125 429.599609375 821.30078125 429.599609375 c 0
 775.701171875 429.599609375 731.30078125 436.80078125 688.099609375 451.19921875 c 1
 702.5 494.400390625 712.099609375 528 716.900390625 552 c 1
 752.900390625 540 787.69921875 534 821.30078125 534 c 0
 888.5 534 949.69921875 553.80078125 1004.90039062 593.400390625 c 128
 1060.1015625 633 1099.70117188 682.80078125 1123.69921875 742.80078125 c 1
 713.30078125 742.80078125 l 1
EndSplineSet
EndChar

StartChar: uniF4D4
Encoding: 62676 62676 103
Width: 1005
VWidth: 1704
Flags: HW
LayerCount: 2
Fore
SplineSet
-241 573.599609375 m 1
 911 1128 l 1
 140.599609375 408 l 1
 -241 573.599609375 l 1
911 1128 m 1
 385.400390625 -24 l 1
 198.19921875 350.400390625 l 1
 911 1128 l 1
EndSplineSet
EndChar

StartChar: uniF4D7
Encoding: 62679 62679 104
Width: 1321
VWidth: 1704
Flags: HW
LayerCount: 2
Fore
SplineSet
440.5 1300.80078125 m 128
 646.900390625 1300.80078125 823.30078125 1227.59960938 969.69921875 1081.19921875 c 128
 1116.09960938 934.80078125 1189.30078125 758.400390625 1189.30078125 552 c 128
 1189.30078125 345.599609375 1116.09960938 169.19921875 969.69921875 22.80078125 c 128
 823.30078125 -123.599609375 646.900390625 -196.80078125 440.5 -196.80078125 c 128
 234.099609375 -196.80078125 57.69921875 -123.599609375 -88.69921875 22.80078125 c 128
 -235.099609375 169.19921875 -308.30078125 345.599609375 -308.30078125 552 c 128
 -308.30078125 758.400390625 -235.099609375 934.80078125 -88.69921875 1081.19921875 c 128
 57.69921875 1227.59960938 234.099609375 1300.80078125 440.5 1300.80078125 c 128
901.30078125 519.599609375 m 1
 901.30078125 580.80078125 l 1
 469.30078125 580.80078125 l 1
 469.30078125 1012.80078125 l 1
 408.099609375 1012.80078125 l 1
 408.099609375 580.80078125 l 1
 -20.30078125 580.80078125 l 1
 -20.30078125 519.599609375 l 1
 408.099609375 519.599609375 l 1
 408.099609375 91.19921875 l 1
 469.30078125 91.19921875 l 1
 469.30078125 519.599609375 l 1
 901.30078125 519.599609375 l 1
EndSplineSet
EndChar

StartChar: uniF4D6
Encoding: 62678 62678 105
Width: 882
VWidth: 1704
Flags: HW
LayerCount: 2
Fore
SplineSet
-166.80078125 1128 m 1
 754.80078125 552 l 1
 -166.80078125 -24 l 1
 -166.80078125 1128 l 1
EndSplineSet
EndChar

StartChar: uniF4D8
Encoding: 62680 62680 106
Width: 1142
VWidth: 1704
Flags: HW
LayerCount: 2
Fore
SplineSet
93 -24 m 1
 93 1128 l 1
 323.400390625 1128 l 1
 323.400390625 -24 l 1
 93 -24 l 1
-252.599609375 -24 m 1
 -252.599609375 321.599609375 l 1
 -22.19921875 321.599609375 l 1
 -22.19921875 -24 l 1
 -252.599609375 -24 l 1
438.599609375 -24 m 1
 438.599609375 552 l 1
 669 552 l 1
 669 -24 l 1
 438.599609375 -24 l 1
784.19921875 -24 m 1
 784.19921875 782.400390625 l 1
 1014.59960938 782.400390625 l 1
 1014.59960938 -24 l 1
 784.19921875 -24 l 1
EndSplineSet
EndChar

StartChar: uniF4E3
Encoding: 62691 62691 107
Width: 1261
VWidth: 1704
Flags: HW
LayerCount: 2
Fore
SplineSet
1072.09960938 1243.19921875 m 2
 1098.5 1243.19921875 1111.69921875 1230 1111.69921875 1203.59960938 c 2
 1111.69921875 -99.599609375 l 2
 1111.69921875 -126 1098.5 -139.19921875 1072.09960938 -139.19921875 c 2
 -231.099609375 -139.19921875 l 2
 -257.5 -139.19921875 -270.69921875 -126 -270.69921875 -99.599609375 c 2
 -270.69921875 1203.59960938 l 2
 -270.69921875 1230 -257.5 1243.19921875 -231.099609375 1243.19921875 c 2
 1072.09960938 1243.19921875 l 2
EndSplineSet
EndChar

StartChar: uniF4E4
Encoding: 62692 62692 108
Width: 1347
VWidth: 1704
Flags: HW
LayerCount: 2
Fore
SplineSet
1255.40039062 728.400390625 m 1
 751.400390625 375.599609375 l 1
 945.80078125 -196.80078125 l 1
 449 159.599609375 l 1
 -47.80078125 -196.80078125 l 1
 146.599609375 375.599609375 l 1
 -357.400390625 728.400390625 l 1
 258.19921875 728.400390625 l 1
 449 1300.80078125 l 1
 639.80078125 728.400390625 l 1
 1255.40039062 728.400390625 l 1
EndSplineSet
EndChar

StartChar: uniF4E7
Encoding: 62695 62695 109
Width: 1248
VWidth: 1704
Flags: HW
LayerCount: 2
Fore
SplineSet
-196 -254.400390625 m 2
 -217.599609375 -254.400390625 -236.19921875 -246.6015625 -251.80078125 -231 c 128
 -267.400390625 -215.400390625 -275.19921875 -196.80078125 -275.19921875 -175.19921875 c 2
 -275.19921875 588 l 2
 -275.19921875 609.599609375 -267.400390625 628.19921875 -251.80078125 643.80078125 c 128
 -236.19921875 659.400390625 -217.599609375 667.19921875 -196 667.19921875 c 2
 -185.19921875 667.19921875 l 1
 -116.80078125 667.19921875 l 1
 -116.80078125 778.80078125 l 2
 -116.80078125 944.400390625 -65.19921875 1082.40039062 38 1192.80078125 c 128
 141.19921875 1303.19921875 267.19921875 1358.40039062 416 1358.40039062 c 1
 564.80078125 1358.40039062 690.80078125 1303.19921875 794 1192.80078125 c 0
 863.6015625 1120.80078125 910.400390625 1022.40039062 934.400390625 897.599609375 c 1
 743.599609375 897.599609375 l 1
 724.400390625 969.599609375 695.599609375 1026 657.19921875 1066.80078125 c 1
 657.19921875 1070.40039062 l 1
 592.400390625 1140 512 1174.80078125 416 1174.80078125 c 1
 320 1174.80078125 239.599609375 1140 174.80078125 1070.40039062 c 1
 174.80078125 1066.80078125 l 1
 107.599609375 994.80078125 74 898.80078125 74 778.80078125 c 2
 74 667.19921875 l 1
 1028 667.19921875 l 2
 1049.59960938 667.19921875 1068.19921875 659.400390625 1083.80078125 643.80078125 c 128
 1099.40039062 628.19921875 1107.19921875 609.599609375 1107.19921875 588 c 2
 1107.19921875 -175.19921875 l 2
 1107.19921875 -196.80078125 1099.40039062 -215.400390625 1083.80078125 -231 c 128
 1068.19921875 -246.6015625 1049.59960938 -254.400390625 1028 -254.400390625 c 2
 -196 -254.400390625 l 2
EndSplineSet
EndChar

StartChar: uniF4EA
Encoding: 62698 62698 110
Width: 1321
VWidth: 1704
Flags: HW
LayerCount: 2
Fore
SplineSet
969.69921875 1081.19921875 m 128
 1116.09960938 934.80078125 1189.30078125 758.400390625 1189.30078125 552 c 128
 1189.30078125 345.599609375 1116.09960938 169.19921875 969.69921875 22.80078125 c 128
 823.30078125 -123.599609375 646.900390625 -196.80078125 440.5 -196.80078125 c 128
 234.099609375 -196.80078125 57.69921875 -123.599609375 -88.69921875 22.80078125 c 128
 -235.099609375 169.19921875 -308.30078125 345.599609375 -308.30078125 552 c 128
 -308.30078125 758.400390625 -235.099609375 934.80078125 -88.69921875 1081.19921875 c 128
 57.69921875 1227.59960938 234.099609375 1300.80078125 440.5 1300.80078125 c 128
 646.900390625 1300.80078125 823.30078125 1227.59960938 969.69921875 1081.19921875 c 128
786.099609375 249.599609375 m 1
 483.69921875 552 l 1
 786.099609375 854.400390625 l 1
 742.900390625 897.599609375 l 1
 440.5 595.19921875 l 1
 138.099609375 897.599609375 l 1
 94.900390625 854.400390625 l 1
 397.30078125 552 l 1
 94.900390625 249.599609375 l 1
 138.099609375 206.400390625 l 1
 440.5 508.80078125 l 1
 742.900390625 206.400390625 l 1
 786.099609375 249.599609375 l 1
EndSplineSet
EndChar

StartChar: uniF4DE
Encoding: 62686 62686 111
Width: 1089
VWidth: 1662
Flags: HW
LayerCount: 2
Fore
SplineSet
391.80078125 913.599609375 m 1
 939 913.599609375 l 1
 939 -180.80078125 l 1
 -213 -180.80078125 l 1
 -213 913.599609375 l 1
 334.19921875 913.599609375 l 1
 334.19921875 330.400390625 l 1
 391.80078125 330.400390625 l 1
 391.80078125 913.599609375 l 1
391.80078125 1205.19921875 m 1
 391.80078125 913.599609375 l 1
 334.19921875 913.599609375 l 1
 334.19921875 1205.19921875 l 1
 136.19921875 1007.19921875 l 1
 96.599609375 1050.40039062 l 1
 363 1316.80078125 l 1
 629.400390625 1050.40039062 l 1
 589.80078125 1007.19921875 l 1
 391.80078125 1205.19921875 l 1
EndSplineSet
EndChar

StartChar: uniF4DB
Encoding: 62683 62683 112
Width: 1371
VWidth: 1704
Flags: HW
LayerCount: 2
Fore
SplineSet
1263.40039062 552 m 1
 917.80078125 206.400390625 l 1
 917.80078125 480 l 1
 525.400390625 480 l 1
 529 91.19921875 l 1
 802.599609375 91.19921875 l 1
 457 -254.400390625 l 1
 111.400390625 91.19921875 l 1
 385 91.19921875 l 1
 385 480 l 1
 -3.80078125 480 l 1
 -3.80078125 206.400390625 l 1
 -349.400390625 552 l 1
 -3.80078125 897.599609375 l 1
 -3.80078125 624 l 1
 385 624 l 1
 385 1012.80078125 l 1
 111.400390625 1012.80078125 l 1
 457 1358.40039062 l 1
 802.599609375 1012.80078125 l 1
 529 1012.80078125 l 1
 529 624 l 1
 917.80078125 624 l 1
 917.80078125 897.599609375 l 1
 1263.40039062 552 l 1
EndSplineSet
EndChar

